Literata-M5Italic.ufo
<glyph name="exclam" format="2">
	<unicode hex="0021"/>
	<advance width="334"/>
	<outline>
		<contour>
			<point x="171" y="478" type="curve" smooth="yes"/>
			<point x="165" y="185" type="line"/>
			<point x="180" y="185" type="line"/>
			<point x="194" y="517"/>
			<point x="207" y="600"/>
			<point x="252" y="729" type="curve"/>
			<point x="243" y="737"/>
			<point x="232" y="745"/>
			<point x="216" y="745" type="curve" smooth="yes"/>
			<point x="188" y="745"/>
			<point x="172" y="724"/>
			<point x="171" y="682" type="curve" smooth="yes"/>
			<point x="171" y="621"/>
			<point x="173" y="579"/>
		</contour>
		<contour>
			<point x="117" y="36" type="curve" smooth="yes"/>
			<point x="117" y="10"/>
			<point x="139" y="-11"/>
			<point x="164" y="-11" type="curve" smooth="yes"/>
			<point x="191" y="-11"/>
			<point x="213" y="15"/>
			<point x="213" y="46" type="curve" smooth="yes"/>
			<point x="213" y="73"/>
			<point x="195" y="92"/>
			<point x="166" y="92" type="curve" smooth="yes"/>
			<point x="137" y="92"/>
			<point x="117" y="66"/>
		</contour>
	</outline>
</glyph>
<glyph name="numbersign" format="2">
	<unicode hex="0023"/>
	<advance width="622"/>
	<outline>
		<contour>
			<point x="170" y="1" type="line"/>
			<point x="198" y="1" type="line"/>
			<point x="230" y="169" type="line"/>
			<point x="392" y="169" type="line"/>
			<point x="359" y="1" type="line"/>
			<point x="387" y="1" type="line"/>
			<point x="420" y="169" type="line"/>
			<point x="515" y="169" type="line"/>
			<point x="519" y="194" type="line"/>
			<point x="424" y="194" type="line"/>
			<point x="454" y="354" type="line"/>
			<point x="552" y="354" type="line"/>
			<point x="556" y="379" type="line"/>
			<point x="459" y="379" type="line"/>
			<point x="488" y="539" type="line"/>
			<point x="460" y="539" type="line"/>
			<point x="431" y="379" type="line"/>
			<point x="269" y="379" type="line"/>
			<point x="298" y="539" type="line"/>
			<point x="270" y="539" type="line"/>
			<point x="241" y="379" type="line"/>
			<point x="132" y="379" type="line"/>
			<point x="128" y="354" type="line"/>
			<point x="236" y="354" type="line"/>
			<point x="206" y="194" type="line"/>
			<point x="97" y="194" type="line"/>
			<point x="93" y="169" type="line"/>
			<point x="202" y="169" type="line"/>
		</contour>
		<contour>
			<point x="264" y="354" type="line"/>
			<point x="426" y="354" type="line"/>
			<point x="396" y="194" type="line"/>
			<point x="234" y="194" type="line"/>
		</contour>
	</outline>
</glyph>
<glyph name="dollar" format="2">
	<unicode hex="0024"/>
	<advance width="497"/>
	<outline>
		<contour>
			<point x="234" y="-82" type="line"/>
			<point x="252" y="-82" type="line"/>
			<point x="255" y="-13" type="line"/>
			<point x="382" y="-3"/>
			<point x="448" y="83"/>
			<point x="448" y="179" type="curve" smooth="yes"/>
			<point x="448" y="289"/>
			<point x="378" y="345"/>
			<point x="281" y="399" type="curve" smooth="yes"/>
			<point x="277" y="401"/>
			<point x="274" y="403"/>
			<point x="270" y="405" type="curve"/>
			<point x="282" y="725" type="line"/>
			<point x="368" y="727"/>
			<point x="404" y="690"/>
			<point x="377" y="639" type="curve" smooth="yes"/>
			<point x="362" y="611" type="line"/>
			<point x="374" y="599"/>
			<point x="390" y="588"/>
			<point x="411" y="588" type="curve" smooth="yes"/>
			<point x="437" y="588"/>
			<point x="455" y="606"/>
			<point x="455" y="638" type="curve" smooth="yes"/>
			<point x="455" y="697"/>
			<point x="383" y="746"/>
			<point x="283" y="744" type="curve"/>
			<point x="285" y="811" type="line"/>
			<point x="267" y="811" type="line"/>
			<point x="264" y="743" type="line"/>
			<point x="144" y="734"/>
			<point x="86" y="660"/>
			<point x="86" y="563" type="curve" smooth="yes"/>
			<point x="86" y="491"/>
			<point x="120" y="430"/>
			<point x="250" y="362" type="curve"/>
			<point x="237" y="5" type="line"/>
			<point x="146" y="3"/>
			<point x="102" y="48"/>
			<point x="132" y="110" type="curve" smooth="yes"/>
			<point x="147" y="141" type="line"/>
			<point x="132" y="153"/>
			<point x="119" y="159"/>
			<point x="101" y="159" type="curve" smooth="yes"/>
			<point x="74" y="159"/>
			<point x="52" y="139"/>
			<point x="52" y="103" type="curve" smooth="yes"/>
			<point x="52" y="39"/>
			<point x="121" y="-15"/>
			<point x="237" y="-14" type="curve"/>
		</contour>
		<contour>
			<point x="255" y="6" type="curve"/>
			<point x="268" y="353" type="line"/>
			<point x="368" y="299"/>
			<point x="414" y="252"/>
			<point x="414" y="164" type="curve" smooth="yes"/>
			<point x="414" y="78"/>
			<point x="353" y="15"/>
		</contour>
		<contour>
			<point x="252" y="415" type="line"/>
			<point x="153" y="471"/>
			<point x="120" y="519"/>
			<point x="120" y="586" type="curve" smooth="yes"/>
			<point x="120" y="652"/>
			<point x="166" y="715"/>
			<point x="264" y="724" type="curve"/>
		</contour>
	</outline>
</glyph>
<glyph name="percent" format="2">
	<unicode hex="0025"/>
	<advance width="810"/>
	<outline>
		<contour>
			<point x="570" y="597" type="line"/>
			<point x="247" y="-16" type="line"/>
			<point x="269" y="-16" type="line"/>
			<point x="592" y="597" type="line"/>
		</contour>
		<contour>
			<point x="76" y="429" type="curve" smooth="yes"/>
			<point x="76" y="340"/>
			<point x="136" y="275"/>
			<point x="234" y="275" type="curve" smooth="yes"/>
			<point x="320" y="275"/>
			<point x="389" y="334"/>
			<point x="389" y="447" type="curve" smooth="yes"/>
			<point x="389" y="545"/>
			<point x="318" y="598"/>
			<point x="232" y="598" type="curve" smooth="yes"/>
			<point x="152" y="598"/>
			<point x="76" y="554"/>
		</contour>
		<contour>
			<point x="127" y="444" type="curve" smooth="yes"/>
			<point x="127" y="549"/>
			<point x="167" y="586"/>
			<point x="227" y="586" type="curve" smooth="yes"/>
			<point x="292" y="586"/>
			<point x="336" y="544"/>
			<point x="336" y="431" type="curve" smooth="yes"/>
			<point x="336" y="327"/>
			<point x="303" y="285"/>
			<point x="239" y="285" type="curve" smooth="yes"/>
			<point x="173" y="285"/>
			<point x="127" y="331"/>
		</contour>
		<contour>
			<point x="447" y="139" type="curve" smooth="yes"/>
			<point x="447" y="49"/>
			<point x="507" y="-16"/>
			<point x="606" y="-16" type="curve" smooth="yes"/>
			<point x="691" y="-16"/>
			<point x="760" y="43"/>
			<point x="760" y="157" type="curve" smooth="yes"/>
			<point x="760" y="254"/>
			<point x="689" y="307"/>
			<point x="603" y="307" type="curve" smooth="yes"/>
			<point x="523" y="307"/>
			<point x="447" y="263"/>
		</contour>
		<contour>
			<point x="499" y="154" type="curve" smooth="yes"/>
			<point x="499" y="258"/>
			<point x="538" y="295"/>
			<point x="598" y="295" type="curve" smooth="yes"/>
			<point x="663" y="295"/>
			<point x="707" y="254"/>
			<point x="707" y="141" type="curve" smooth="yes"/>
			<point x="707" y="37"/>
			<point x="674" y="-4"/>
			<point x="610" y="-4" type="curve" smooth="yes"/>
			<point x="544" y="-4"/>
			<point x="499" y="40"/>
		</contour>
	</outline>
</glyph>
<glyph name="ampersand" format="2">
	<unicode hex="0026"/>
	<advance width="696"/>
	<outline>
		<contour>
			<point x="284" y="-14" type="curve" smooth="yes"/>
			<point x="438" y="-14"/>
			<point x="558" y="85"/>
			<point x="558" y="204" type="curve" smooth="yes"/>
			<point x="558" y="253"/>
			<point x="536" y="296"/>
			<point x="498" y="339" type="curve" smooth="yes"/>
			<point x="489" y="349" type="line"/>
			<point x="523" y="338"/>
			<point x="555" y="331"/>
			<point x="587" y="331" type="curve" smooth="yes"/>
			<point x="636" y="331"/>
			<point x="681" y="364"/>
			<point x="681" y="409" type="curve" smooth="yes"/>
			<point x="681" y="438"/>
			<point x="663" y="461"/>
			<point x="636" y="461" type="curve" smooth="yes"/>
			<point x="622" y="461"/>
			<point x="610" y="458"/>
			<point x="595" y="450" type="curve"/>
			<point x="607" y="419" type="line" smooth="yes"/>
			<point x="630" y="360"/>
			<point x="605" y="336"/>
			<point x="538" y="350" type="curve" smooth="yes"/>
			<point x="482" y="362" type="line"/>
			<point x="476" y="352" type="line"/>
			<point x="499" y="309"/>
			<point x="509" y="270"/>
			<point x="509" y="224" type="curve" smooth="yes"/>
			<point x="509" y="91"/>
			<point x="430" y="1"/>
			<point x="298" y="1" type="curve" smooth="yes"/>
			<point x="180" y="1"/>
			<point x="129" y="76"/>
			<point x="129" y="176" type="curve" smooth="yes"/>
			<point x="129" y="278"/>
			<point x="194" y="335"/>
			<point x="371" y="364" type="curve"/>
			<point x="370" y="379" type="line"/>
			<point x="347" y="375"/>
			<point x="327" y="373"/>
			<point x="307" y="373" type="curve" smooth="yes"/>
			<point x="190" y="373"/>
			<point x="147" y="420"/>
			<point x="147" y="508" type="curve" smooth="yes"/>
			<point x="147" y="626"/>
			<point x="219" y="699"/>
			<point x="349" y="699" type="curve" smooth="yes"/>
			<point x="445" y="699"/>
			<point x="472" y="644"/>
			<point x="441" y="590" type="curve" smooth="yes"/>
			<point x="424" y="560" type="line"/>
			<point x="439" y="546"/>
			<point x="453" y="539"/>
			<point x="472" y="539" type="curve" smooth="yes"/>
			<point x="500" y="539"/>
			<point x="523" y="561"/>
			<point x="523" y="600" type="curve" smooth="yes"/>
			<point x="523" y="662"/>
			<point x="452" y="715"/>
			<point x="358" y="715" type="curve" smooth="yes"/>
			<point x="198" y="715"/>
			<point x="96" y="618"/>
			<point x="96" y="502" type="curve" smooth="yes"/>
			<point x="96" y="410"/>
			<point x="173" y="364"/>
			<point x="288" y="361" type="curve"/>
			<point x="288" y="358" type="line"/>
			<point x="157" y="330"/>
			<point x="77" y="257"/>
			<point x="77" y="160" type="curve" smooth="yes"/>
			<point x="77" y="35"/>
			<point x="174" y="-14"/>
		</contour>
	</outline>
</glyph>
<glyph name="quotesingle" format="2">
	<unicode hex="0027"/>
	<advance width="225"/>
	<outline>
		<contour>
			<point x="133" y="555" type="line"/>
			<point x="155" y="639" type="line" smooth="yes"/>
			<point x="169" y="693"/>
			<point x="179" y="727"/>
			<point x="179" y="743" type="curve" smooth="yes"/>
			<point x="179" y="763"/>
			<point x="172" y="780"/>
			<point x="147" y="780" type="curve" smooth="yes"/>
			<point x="123" y="780"/>
			<point x="110" y="762"/>
			<point x="109" y="733" type="curve" smooth="yes"/>
			<point x="108" y="717"/>
			<point x="112" y="683"/>
			<point x="117" y="634" type="curve" smooth="yes"/>
			<point x="125" y="555" type="line"/>
		</contour>
	</outline>
</glyph>
<glyph name="parenleft" format="2">
	<unicode hex="0028"/>
	<advance width="281"/>
	<outline>
		<contour>
			<point x="76" y="273" type="curve" smooth="yes"/>
			<point x="76" y="85"/>
			<point x="158" y="-67"/>
			<point x="231" y="-196" type="curve"/>
			<point x="240" y="-191" type="line"/>
			<point x="146" y="-11"/>
			<point x="124" y="101"/>
			<point x="124" y="288" type="curve" smooth="yes"/>
			<point x="124" y="498"/>
			<point x="172" y="630"/>
			<point x="274" y="789" type="curve"/>
			<point x="265" y="795" type="line"/>
			<point x="138" y="626"/>
			<point x="76" y="454"/>
		</contour>
	</outline>
</glyph>
<glyph name="asterisk" format="2">
	<unicode hex="002A"/>
	<advance width="447"/>
	<outline>
		<contour>
			<point x="246" y="609" type="line"/>
			<point x="141" y="703" type="line"/>
			<point x="115" y="700"/>
			<point x="104" y="685"/>
			<point x="104" y="667" type="curve" smooth="yes"/>
			<point x="104" y="651"/>
			<point x="112" y="640"/>
			<point x="136" y="632" type="curve" smooth="yes"/>
			<point x="239" y="600" type="line"/>
			<point x="95" y="548" type="line"/>
			<point x="93" y="543"/>
			<point x="92" y="539"/>
			<point x="92" y="531" type="curve" smooth="yes"/>
			<point x="92" y="492"/>
			<point x="135" y="488"/>
			<point x="155" y="507" type="curve" smooth="yes"/>
			<point x="246" y="591" type="line"/>
			<point x="213" y="442" type="line"/>
			<point x="222" y="427"/>
			<point x="232" y="421"/>
			<point x="246" y="421" type="curve" smooth="yes"/>
			<point x="270" y="421"/>
			<point x="282" y="437"/>
			<point x="277" y="466" type="curve" smooth="yes"/>
			<point x="254" y="591" type="line"/>
			<point x="363" y="484" type="line"/>
			<point x="395" y="485"/>
			<point x="399" y="506"/>
			<point x="399" y="520" type="curve" smooth="yes"/>
			<point x="399" y="534"/>
			<point x="387" y="547"/>
			<point x="372" y="553" type="curve" smooth="yes"/>
			<point x="260" y="600" type="line"/>
			<point x="401" y="648" type="line"/>
			<point x="405" y="658"/>
			<point x="406" y="661"/>
			<point x="406" y="668" type="curve" smooth="yes"/>
			<point x="406" y="701"/>
			<point x="374" y="707"/>
			<point x="354" y="690" type="curve" smooth="yes"/>
			<point x="254" y="609" type="line"/>
			<point x="288" y="764" type="line"/>
			<point x="278" y="773"/>
			<point x="271" y="778"/>
			<point x="258" y="778" type="curve" smooth="yes"/>
			<point x="235" y="778"/>
			<point x="220" y="764"/>
			<point x="227" y="724" type="curve" smooth="yes"/>
		</contour>
	</outline>
</glyph>
<glyph name="plus" format="2">
	<unicode hex="002B"/>
	<advance width="582"/>
	<outline>
		<contour>
			<point x="482" y="313" type="line"/>
			<point x="312" y="313" type="line"/>
			<point x="322" y="505" type="line"/>
			<point x="305" y="505" type="line"/>
			<point x="295" y="313" type="line"/>
			<point x="121" y="313" type="line"/>
			<point x="120" y="296" type="line"/>
			<point x="294" y="296" type="line"/>
			<point x="284" y="98" type="line"/>
			<point x="301" y="98" type="line"/>
			<point x="311" y="296" type="line"/>
			<point x="481" y="296" type="line"/>
		</contour>
	</outline>
</glyph>
<glyph name="comma" format="2">
	<unicode hex="002C"/>
	<advance width="273"/>
	<outline>
		<contour>
			<point x="83" y="-142" type="line"/>
			<point x="163" y="-85"/>
			<point x="188" y="-40"/>
			<point x="188" y="28" type="curve" smooth="yes"/>
			<point x="188" y="67"/>
			<point x="174" y="97"/>
			<point x="135" y="97" type="curve" smooth="yes"/>
			<point x="93" y="97"/>
			<point x="78" y="56"/>
			<point x="98" y="15" type="curve"/>
			<point x="127" y="7" type="line" smooth="yes"/>
			<point x="154" y="0"/>
			<point x="159" y="-11"/>
			<point x="159" y="-29" type="curve" smooth="yes"/>
			<point x="159" y="-61"/>
			<point x="126" y="-96"/>
			<point x="76" y="-132" type="curve"/>
		</contour>
	</outline>
</glyph>
<glyph name="period" format="2">
	<unicode hex="002E"/>
	<advance width="244"/>
	<outline>
		<contour>
			<point x="89" y="41" type="curve" smooth="yes"/>
			<point x="89" y="11"/>
			<point x="106" y="-7"/>
			<point x="130" y="-7" type="curve" smooth="yes"/>
			<point x="156" y="-7"/>
			<point x="172" y="16"/>
			<point x="172" y="44" type="curve" smooth="yes"/>
			<point x="172" y="75"/>
			<point x="157" y="93"/>
			<point x="131" y="93" type="curve" smooth="yes"/>
			<point x="106" y="93"/>
			<point x="89" y="72"/>
		</contour>
	</outline>
</glyph>
<glyph name="zero" format="2">
	<unicode hex="0030"/>
	<advance width="542"/>
	<outline>
		<contour>
			<point x="60" y="340" type="curve" smooth="yes"/>
			<point x="60" y="157"/>
			<point x="138" y="-13"/>
			<point x="279" y="-13" type="curve" smooth="yes"/>
			<point x="428" y="-13"/>
			<point x="512" y="163"/>
			<point x="512" y="398" type="curve" smooth="yes"/>
			<point x="512" y="607"/>
			<point x="431" y="744"/>
			<point x="300" y="744" type="curve" smooth="yes"/>
			<point x="149" y="744"/>
			<point x="60" y="587"/>
		</contour>
		<contour>
			<point x="297" y="725" type="curve" smooth="yes"/>
			<point x="418" y="725"/>
			<point x="460" y="595"/>
			<point x="460" y="400" type="curve" smooth="yes"/>
			<point x="460" y="147"/>
			<point x="401" y="6"/>
			<point x="281" y="6" type="curve" smooth="yes"/>
			<point x="157" y="6"/>
			<point x="113" y="172"/>
			<point x="113" y="352" type="curve" smooth="yes"/>
			<point x="113" y="599"/>
			<point x="179" y="725"/>
		</contour>
	</outline>
</glyph>
<glyph name="one" format="2">
	<unicode hex="0031"/>
	<advance width="345"/>
	<outline>
		<contour>
			<point x="185" y="705" type="line"/>
			<point x="158" y="23" type="line"/>
			<point x="45" y="10" type="line"/>
			<point x="44" y="0" type="line"/>
			<point x="309" y="0" type="line"/>
			<point x="310" y="10" type="line"/>
			<point x="207" y="23" type="line"/>
			<point x="236" y="736" type="line"/>
			<point x="222" y="742" type="line"/>
			<point x="66" y="715" type="line"/>
			<point x="64" y="705" type="line"/>
		</contour>
	</outline>
</glyph>
<glyph name="three" format="2">
	<unicode hex="0033"/>
	<advance width="503"/>
	<outline>
		<contour>
			<point x="449" y="587" type="curve" smooth="yes"/>
			<point x="449" y="680"/>
			<point x="376" y="745"/>
			<point x="263" y="745" type="curve" smooth="yes"/>
			<point x="150" y="745"/>
			<point x="78" y="685"/>
			<point x="78" y="615" type="curve" smooth="yes"/>
			<point x="78" y="585"/>
			<point x="94" y="571"/>
			<point x="118" y="571" type="curve" smooth="yes"/>
			<point x="139" y="571"/>
			<point x="156" y="584"/>
			<point x="160" y="599" type="curve"/>
			<point x="146" y="618" type="line" smooth="yes"/>
			<point x="99" y="681"/>
			<point x="156" y="726"/>
			<point x="252" y="726" type="curve" smooth="yes"/>
			<point x="355" y="726"/>
			<point x="396" y="665"/>
			<point x="396" y="579" type="curve" smooth="yes"/>
			<point x="396" y="480"/>
			<point x="324" y="405"/>
			<point x="177" y="387" type="curve"/>
			<point x="180" y="368" type="line"/>
			<point x="198" y="372"/>
			<point x="227" y="374"/>
			<point x="253" y="374" type="curve" smooth="yes"/>
			<point x="361" y="374"/>
			<point x="417" y="317"/>
			<point x="417" y="217" type="curve" smooth="yes"/>
			<point x="417" y="88"/>
			<point x="347" y="5"/>
			<point x="211" y="5" type="curve" smooth="yes"/>
			<point x="113" y="5"/>
			<point x="87" y="46"/>
			<point x="117" y="101" type="curve" smooth="yes"/>
			<point x="128" y="121" type="line"/>
			<point x="118" y="134"/>
			<point x="105" y="140"/>
			<point x="89" y="140" type="curve" smooth="yes"/>
			<point x="64" y="140"/>
			<point x="45" y="123"/>
			<point x="45" y="90" type="curve" smooth="yes"/>
			<point x="45" y="36"/>
			<point x="101" y="-14"/>
			<point x="204" y="-14" type="curve" smooth="yes"/>
			<point x="362" y="-14"/>
			<point x="467" y="78"/>
			<point x="467" y="220" type="curve" smooth="yes"/>
			<point x="467" y="336"/>
			<point x="376" y="387"/>
			<point x="279" y="394" type="curve"/>
			<point x="279" y="396" type="line"/>
			<point x="350" y="421"/>
			<point x="449" y="482"/>
		</contour>
	</outline>
</glyph>
<glyph name="five" format="2">
	<unicode hex="0035"/>
	<advance width="486"/>
	<outline>
		<contour>
			<point x="401" y="258" type="curve" smooth="yes"/>
			<point x="401" y="134"/>
			<point x="315" y="5"/>
			<point x="189" y="5" type="curve" smooth="yes"/>
			<point x="106" y="5"/>
			<point x="79" y="44"/>
			<point x="110" y="92" type="curve" smooth="yes"/>
			<point x="127" y="118" type="line"/>
			<point x="116" y="132"/>
			<point x="100" y="140"/>
			<point x="85" y="140" type="curve" smooth="yes"/>
			<point x="59" y="140"/>
			<point x="36" y="122"/>
			<point x="36" y="88" type="curve" smooth="yes"/>
			<point x="36" y="27"/>
			<point x="95" y="-14"/>
			<point x="184" y="-14" type="curve" smooth="yes"/>
			<point x="346" y="-14"/>
			<point x="454" y="111"/>
			<point x="454" y="265" type="curve" smooth="yes"/>
			<point x="454" y="386"/>
			<point x="382" y="463"/>
			<point x="264" y="463" type="curve" smooth="yes"/>
			<point x="198" y="463"/>
			<point x="151" y="438"/>
			<point x="120" y="409" type="curve"/>
			<point x="146" y="691" type="line"/>
			<point x="442" y="691" type="line"/>
			<point x="448" y="730" type="line"/>
			<point x="137" y="730" type="line"/>
			<point x="128" y="724" type="line"/>
			<point x="99" y="385" type="line"/>
			<point x="108" y="380" type="line"/>
			<point x="152" y="422"/>
			<point x="205" y="439"/>
			<point x="254" y="439" type="curve" smooth="yes"/>
			<point x="352" y="439"/>
			<point x="401" y="375"/>
		</contour>
	</outline>
</glyph>
<glyph name="seven" format="2">
	<unicode hex="0037"/>
	<advance width="492"/>
	<outline>
		<contour>
			<point x="160" y="0" type="line"/>
			<point x="215" y="0" type="line"/>
			<point x="491" y="702" type="line"/>
			<point x="487" y="730" type="line"/>
			<point x="79" y="730" type="line"/>
			<point x="58" y="584" type="line"/>
			<point x="69" y="584" type="line"/>
			<point x="75" y="603" type="line" smooth="yes"/>
			<point x="98" y="676"/>
			<point x="121" y="688"/>
			<point x="199" y="688" type="curve" smooth="yes"/>
			<point x="470" y="688" type="line"/>
			<point x="154" y="10" type="line"/>
		</contour>
	</outline>
</glyph>
<glyph name="eight" format="2">
	<unicode hex="0038"/>
	<advance width="499"/>
	<outline>
		<contour>
			<point x="56" y="171" type="curve" smooth="yes"/>
			<point x="56" y="61"/>
			<point x="137" y="-14"/>
			<point x="251" y="-14" type="curve" smooth="yes"/>
			<point x="381" y="-14"/>
			<point x="469" y="70"/>
			<point x="469" y="183" type="curve" smooth="yes"/>
			<point x="469" y="288"/>
			<point x="421" y="332"/>
			<point x="312" y="399" type="curve"/>
			<point x="421" y="453"/>
			<point x="460" y="506"/>
			<point x="460" y="586" type="curve" smooth="yes"/>
			<point x="460" y="671"/>
			<point x="405" y="744"/>
			<point x="287" y="744" type="curve" smooth="yes"/>
			<point x="173" y="744"/>
			<point x="97" y="670"/>
			<point x="97" y="570" type="curve" smooth="yes"/>
			<point x="97" y="488"/>
			<point x="141" y="441"/>
			<point x="219" y="392" type="curve"/>
			<point x="114" y="340"/>
			<point x="56" y="260"/>
		</contour>
		<contour>
			<point x="235" y="384" type="curve"/>
			<point x="407" y="300"/>
			<point x="440" y="245"/>
			<point x="440" y="169" type="curve" smooth="yes"/>
			<point x="440" y="71"/>
			<point x="361" y="5"/>
			<point x="259" y="5" type="curve" smooth="yes"/>
			<point x="153" y="5"/>
			<point x="96" y="63"/>
			<point x="96" y="176" type="curve" smooth="yes"/>
			<point x="96" y="256"/>
			<point x="129" y="328"/>
		</contour>
		<contour>
			<point x="131" y="583" type="curve" smooth="yes"/>
			<point x="131" y="664"/>
			<point x="197" y="725"/>
			<point x="282" y="725" type="curve" smooth="yes"/>
			<point x="369" y="725"/>
			<point x="417" y="669"/>
			<point x="417" y="575" type="curve" smooth="yes"/>
			<point x="417" y="499"/>
			<point x="380" y="449"/>
			<point x="298" y="407" type="curve"/>
			<point x="161" y="473"/>
			<point x="131" y="521"/>
		</contour>
	</outline>
</glyph>
<glyph name="nine" format="2">
	<unicode hex="0039"/>
	<advance width="508"/>
	<outline>
		<contour>
			<point x="198" y="-14" type="curve" smooth="yes"/>
			<point x="353" y="-14"/>
			<point x="474" y="173"/>
			<point x="474" y="451" type="curve" smooth="yes"/>
			<point x="474" y="629"/>
			<point x="400" y="744"/>
			<point x="274" y="744" type="curve" smooth="yes"/>
			<point x="147" y="744"/>
			<point x="62" y="622"/>
			<point x="62" y="463" type="curve" smooth="yes"/>
			<point x="62" y="355"/>
			<point x="118" y="278"/>
			<point x="219" y="278" type="curve" smooth="yes"/>
			<point x="300" y="278"/>
			<point x="360" y="330"/>
			<point x="424" y="414" type="curve"/>
			<point x="426" y="413" type="line"/>
			<point x="416" y="180"/>
			<point x="316" y="9"/>
			<point x="195" y="9" type="curve" smooth="yes"/>
			<point x="136" y="9"/>
			<point x="92" y="32"/>
			<point x="51" y="86" type="curve"/>
			<point x="43" y="80" type="line"/>
			<point x="82" y="19"/>
			<point x="133" y="-14"/>
		</contour>
		<contour>
			<point x="226" y="297" type="curve" smooth="yes"/>
			<point x="147" y="297"/>
			<point x="115" y="355"/>
			<point x="115" y="471" type="curve" smooth="yes"/>
			<point x="115" y="629"/>
			<point x="164" y="725"/>
			<point x="276" y="725" type="curve" smooth="yes"/>
			<point x="380" y="725"/>
			<point x="422" y="612"/>
			<point x="424" y="443" type="curve"/>
			<point x="365" y="355"/>
			<point x="297" y="297"/>
		</contour>
	</outline>
</glyph>
<glyph name="less" format="2">
	<unicode hex="003C"/>
	<advance width="574"/>
	<outline>
		<contour>
			<point x="462" y="45" type="line"/>
			<point x="471" y="58" type="line"/>
			<point x="104" y="284" type="line"/>
			<point x="485" y="511" type="line"/>
			<point x="476" y="524" type="line"/>
			<point x="87" y="292" type="line"/>
			<point x="87" y="276" type="line"/>
		</contour>
	</outline>
</glyph>
<glyph name="equal" format="2">
	<unicode hex="003D"/>
	<advance width="582"/>
	<outline>
		<contour>
			<point x="113" y="207" type="line"/>
			<point x="471" y="207" type="line"/>
			<point x="472" y="224" type="line"/>
			<point x="114" y="224" type="line"/>
		</contour>
		<contour>
			<point x="122" y="383" type="line"/>
			<point x="480" y="383" type="line"/>
			<point x="481" y="400" type="line"/>
			<point x="123" y="400" type="line"/>
		</contour>
	</outline>
</glyph>
<glyph name="D" format="2">
	<unicode hex="0044"/>
	<advance width="677"/>
	<outline>
		<contour>
			<point x="51" y="0" type="line"/>
			<point x="234" y="0" type="line" smooth="yes"/>
			<point x="489" y="0"/>
			<point x="634" y="147"/>
			<point x="634" y="407" type="curve" smooth="yes"/>
			<point x="634" y="619"/>
			<point x="519" y="730"/>
			<point x="327" y="730" type="curve" smooth="yes"/>
			<point x="80" y="730" type="line"/>
			<point x="79" y="720" type="line"/>
			<point x="164" y="709" type="line"/>
			<point x="137" y="21" type="line"/>
			<point x="52" y="10" type="line"/>
		</contour>
		<contour>
			<point x="186" y="18" type="line"/>
			<point x="213" y="712" type="line"/>
			<point x="327" y="712" type="line" smooth="yes"/>
			<point x="468" y="712"/>
			<point x="583" y="620"/>
			<point x="583" y="398" type="curve" smooth="yes"/>
			<point x="583" y="147"/>
			<point x="453" y="18"/>
			<point x="225" y="18" type="curve" smooth="yes"/>
		</contour>
	</outline>
	<anchor name="bottom" x="319" y="-30"/>
	<anchor name="top" x="343" y="730"/>
</glyph>
<glyph name="E" format="2">
	<unicode hex="0045"/>
	<advance width="547"/>
	<outline>
		<contour>
			<point x="164" y="709" type="line"/>
			<point x="137" y="21" type="line"/>
			<point x="52" y="10" type="line"/>
			<point x="51" y="0" type="line"/>
			<point x="486" y="0" type="line"/>
			<point x="510" y="165" type="line"/>
			<point x="497" y="165" type="line"/>
			<point x="477" y="98" type="line" smooth="yes"/>
			<point x="457" y="31"/>
			<point x="427" y="18"/>
			<point x="364" y="18" type="curve" smooth="yes"/>
			<point x="186" y="18" type="line"/>
			<point x="201" y="371" type="line"/>
			<point x="443" y="371" type="line"/>
			<point x="445" y="389" type="line"/>
			<point x="202" y="389" type="line"/>
			<point x="213" y="712" type="line"/>
			<point x="369" y="712" type="line" smooth="yes"/>
			<point x="428" y="712"/>
			<point x="451" y="698"/>
			<point x="469" y="637" type="curve" smooth="yes"/>
			<point x="490" y="566" type="line"/>
			<point x="502" y="568" type="line"/>
			<point x="488" y="730" type="line"/>
			<point x="80" y="730" type="line"/>
			<point x="79" y="720" type="line"/>
		</contour>
	</outline>
	<anchor name="bottom" x="286" y="-30"/>
	<anchor name="top" x="310" y="730"/>
</glyph>
<glyph name="F" format="2">
	<unicode hex="0046"/>
	<advance width="517"/>
	<outline>
		<contour>
			<point x="52" y="10" type="line"/>
			<point x="51" y="0" type="line"/>
			<point x="298" y="0" type="line"/>
			<point x="299" y="9" type="line"/>
			<point x="186" y="22" type="line"/>
			<point x="201" y="352" type="line"/>
			<point x="420" y="352" type="line"/>
			<point x="422" y="370" type="line"/>
			<point x="202" y="370" type="line"/>
			<point x="213" y="712" type="line"/>
			<point x="360" y="712" type="line" smooth="yes"/>
			<point x="415" y="712"/>
			<point x="440" y="704"/>
			<point x="460" y="637" type="curve" smooth="yes"/>
			<point x="481" y="566" type="line"/>
			<point x="493" y="568" type="line"/>
			<point x="479" y="730" type="line"/>
			<point x="80" y="730" type="line"/>
			<point x="79" y="720" type="line"/>
			<point x="164" y="709" type="line"/>
			<point x="137" y="21" type="line"/>
		</contour>
	</outline>
</glyph>
<glyph name="I" format="2">
	<unicode hex="0049"/>
	<advance width="316"/>
	<outline>
		<contour>
			<point x="164" y="707" type="line"/>
			<point x="137" y="23" type="line"/>
			<point x="52" y="10" type="line"/>
			<point x="51" y="0" type="line"/>
			<point x="268" y="0" type="line"/>
			<point x="269" y="10" type="line"/>
			<point x="186" y="22" type="line"/>
			<point x="213" y="707" type="line"/>
			<point x="298" y="719" type="line"/>
			<point x="298" y="730" type="line"/>
			<point x="80" y="730" type="line"/>
			<point x="79" y="718" type="line"/>
		</contour>
	</outline>
	<anchor name="bottom" x="158" y="-30"/>
	<anchor name="top" x="189" y="730"/>
</glyph>
<glyph name="K" format="2">
	<unicode hex="004B"/>
	<advance width="619"/>
	<outline>
		<contour>
			<point x="541" y="-14" type="curve" smooth="yes"/>
			<point x="572" y="-14"/>
			<point x="600" y="-3"/>
			<point x="621" y="23" type="curve"/>
			<point x="614" y="30" type="line"/>
			<point x="600" y="15"/>
			<point x="582" y="5"/>
			<point x="561" y="5" type="curve" smooth="yes"/>
			<point x="511" y="5"/>
			<point x="490" y="37"/>
			<point x="437" y="197" type="curve" smooth="yes"/>
			<point x="391" y="335"/>
			<point x="353" y="391"/>
			<point x="253" y="397" type="curve"/>
			<point x="253" y="398" type="line"/>
			<point x="558" y="707" type="line"/>
			<point x="624" y="720" type="line"/>
			<point x="625" y="730" type="line"/>
			<point x="460" y="730" type="line"/>
			<point x="459" y="720" type="line"/>
			<point x="536" y="708" type="line"/>
			<point x="226" y="392" type="line"/>
			<point x="226" y="383" type="line"/>
			<point x="314" y="374"/>
			<point x="335" y="351"/>
			<point x="388" y="182" type="curve" smooth="yes"/>
			<point x="437" y="27"/>
			<point x="473" y="-14"/>
		</contour>
		<contour>
			<point x="51" y="0" type="line"/>
			<point x="278" y="0" type="line"/>
			<point x="279" y="10" type="line"/>
			<point x="186" y="22" type="line"/>
			<point x="213" y="707" type="line"/>
			<point x="305" y="719" type="line"/>
			<point x="305" y="730" type="line"/>
			<point x="80" y="730" type="line"/>
			<point x="79" y="718" type="line"/>
			<point x="164" y="707" type="line"/>
			<point x="137" y="23" type="line"/>
			<point x="52" y="10" type="line"/>
		</contour>
	</outline>
	<anchor name="bottom" x="330" y="-30"/>
	<anchor name="top" x="364" y="730"/>
</glyph>
<glyph name="M" format="2">
	<unicode hex="004D"/>
	<advance width="861"/>
	<outline>
		<contour>
			<point x="681" y="680" type="line"/>
			<point x="700" y="23" type="line"/>
			<point x="616" y="10" type="line"/>
			<point x="615" y="0" type="line"/>
			<point x="837" y="0" type="line"/>
			<point x="838" y="10" type="line"/>
			<point x="749" y="23" type="line"/>
			<point x="726" y="707" type="line"/>
			<point x="814" y="720" type="line"/>
			<point x="815" y="730" type="line"/>
			<point x="677" y="730" type="line"/>
			<point x="428" y="35" type="line"/>
			<point x="222" y="730" type="line"/>
			<point x="94" y="730" type="line"/>
			<point x="93" y="720" type="line"/>
			<point x="173" y="707" type="line"/>
			<point x="125" y="23" type="line"/>
			<point x="40" y="10" type="line"/>
			<point x="39" y="0" type="line"/>
			<point x="228" y="0" type="line"/>
			<point x="229" y="10" type="line"/>
			<point x="144" y="23" type="line"/>
			<point x="190" y="680" type="line"/>
			<point x="394" y="-8" type="line"/>
			<point x="432" y="-3" type="line"/>
		</contour>
	</outline>
	<anchor name="bottom" x="407" y="-30"/>
</glyph>
<glyph name="S" format="2">
	<unicode hex="0053"/>
	<advance width="497"/>
	<outline>
		<contour>
			<point x="448" y="179" type="curve" smooth="yes"/>
			<point x="448" y="294"/>
			<point x="372" y="350"/>
			<point x="268" y="406" type="curve" smooth="yes"/>
			<point x="157" y="466"/>
			<point x="120" y="516"/>
			<point x="120" y="586" type="curve" smooth="yes"/>
			<point x="120" y="657"/>
			<point x="174" y="725"/>
			<point x="289" y="725" type="curve" smooth="yes"/>
			<point x="376" y="725"/>
			<point x="401" y="684"/>
			<point x="377" y="639" type="curve" smooth="yes"/>
			<point x="362" y="611" type="line"/>
			<point x="374" y="599"/>
			<point x="390" y="588"/>
			<point x="411" y="588" type="curve" smooth="yes"/>
			<point x="437" y="588"/>
			<point x="455" y="606"/>
			<point x="455" y="638" type="curve" smooth="yes"/>
			<point x="455" y="699"/>
			<point x="381" y="744"/>
			<point x="290" y="744" type="curve" smooth="yes"/>
			<point x="152" y="744"/>
			<point x="86" y="667"/>
			<point x="86" y="563" type="curve" smooth="yes"/>
			<point x="86" y="490"/>
			<point x="121" y="429"/>
			<point x="254" y="360" type="curve" smooth="yes"/>
			<point x="364" y="303"/>
			<point x="414" y="256"/>
			<point x="414" y="164" type="curve" smooth="yes"/>
			<point x="414" y="71"/>
			<point x="343" y="5"/>
			<point x="231" y="5" type="curve" smooth="yes"/>
			<point x="143" y="5"/>
			<point x="104" y="51"/>
			<point x="132" y="110" type="curve" smooth="yes"/>
			<point x="147" y="141" type="line"/>
			<point x="132" y="153"/>
			<point x="119" y="159"/>
			<point x="101" y="159" type="curve" smooth="yes"/>
			<point x="74" y="159"/>
			<point x="52" y="139"/>
			<point x="52" y="103" type="curve" smooth="yes"/>
			<point x="52" y="39"/>
			<point x="122" y="-14"/>
			<point x="230" y="-14" type="curve" smooth="yes"/>
			<point x="374" y="-14"/>
			<point x="448" y="77"/>
		</contour>
	</outline>
	<anchor name="bottom" x="235" y="-34"/>
	<anchor name="top" x="281" y="730"/>
</glyph>
<glyph name="T" format="2">
	<unicode hex="0054"/>
	<advance width="586"/>
	<outline>
		<contour>
			<point x="179" y="10" type="line"/>
			<point x="178" y="0" type="line"/>
			<point x="395" y="0" type="line"/>
			<point x="396" y="10" type="line"/>
			<point x="313" y="22" type="line"/>
			<point x="340" y="712" type="line"/>
			<point x="436" y="712" type="line" smooth="yes"/>
			<point x="495" y="712"/>
			<point x="518" y="698"/>
			<point x="536" y="637" type="curve" smooth="yes"/>
			<point x="557" y="566" type="line"/>
			<point x="569" y="568" type="line"/>
			<point x="555" y="730" type="line"/>
			<point x="76" y="730" type="line"/>
			<point x="53" y="566" type="line"/>
			<point x="65" y="564" type="line"/>
			<point x="82" y="621" type="line" smooth="yes"/>
			<point x="105" y="699"/>
			<point x="127" y="712"/>
			<point x="188" y="712" type="curve" smooth="yes"/>
			<point x="291" y="712" type="line"/>
			<point x="264" y="23" type="line"/>
		</contour>
	</outline>
	<anchor name="bottom" x="285" y="-30"/>
	<anchor name="top" x="316" y="730"/>
</glyph>
<glyph name="U" format="2">
	<unicode hex="0055"/>
	<advance width="706"/>
	<outline>
		<contour>
			<point x="559" y="22" type="line"/>
			<point x="599" y="707" type="line"/>
			<point x="684" y="720" type="line"/>
			<point x="684" y="730" type="line"/>
			<point x="466" y="730" type="line"/>
			<point x="465" y="720" type="line"/>
			<point x="550" y="707" type="line"/>
			<point x="531" y="491" type="line" smooth="yes"/>
			<point x="510" y="249"/>
			<point x="427" y="5"/>
			<point x="281" y="5" type="curve" smooth="yes"/>
			<point x="201" y="5"/>
			<point x="167" y="55"/>
			<point x="177" y="223" type="curve" smooth="yes"/>
			<point x="205" y="707" type="line"/>
			<point x="290" y="719" type="line"/>
			<point x="290" y="730" type="line"/>
			<point x="72" y="730" type="line"/>
			<point x="71" y="718" type="line"/>
			<point x="156" y="707" type="line"/>
			<point x="125" y="214" type="line" smooth="yes"/>
			<point x="116" y="66"/>
			<point x="166" y="-14"/>
			<point x="266" y="-14" type="curve" smooth="yes"/>
			<point x="387" y="-14"/>
			<point x="469" y="86"/>
			<point x="529" y="350" type="curve"/>
			<point x="532" y="350" type="line"/>
			<point x="510" y="12" type="line"/>
			<point x="517" y="0" type="line"/>
			<point x="643" y="0" type="line"/>
			<point x="644" y="10" type="line"/>
		</contour>
	</outline>
	<anchor name="bottom" x="350" y="-30"/>
	<anchor name="top" x="379" y="730"/>
</glyph>
<glyph name="X" format="2">
	<unicode hex="0058"/>
	<advance width="615"/>
	<outline>
		<contour>
			<point x="1" y="0" type="line"/>
			<point x="179" y="0" type="line"/>
			<point x="180" y="10" type="line"/>
			<point x="94" y="21" type="line"/>
			<point x="316" y="355" type="line"/>
			<point x="497" y="21" type="line"/>
			<point x="412" y="10" type="line"/>
			<point x="411" y="0" type="line"/>
			<point x="625" y="0" type="line"/>
			<point x="626" y="10" type="line"/>
			<point x="546" y="21" type="line"/>
			<point x="347" y="389" type="line"/>
			<point x="568" y="709" type="line"/>
			<point x="641" y="720" type="line"/>
			<point x="642" y="730" type="line"/>
			<point x="458" y="730" type="line"/>
			<point x="456" y="720" type="line"/>
			<point x="549" y="709" type="line"/>
			<point x="339" y="402" type="line"/>
			<point x="171" y="709" type="line"/>
			<point x="256" y="720" type="line"/>
			<point x="257" y="730" type="line"/>
			<point x="43" y="730" type="line"/>
			<point x="42" y="720" type="line"/>
			<point x="122" y="709" type="line"/>
			<point x="306" y="368" type="line"/>
			<point x="75" y="21" type="line"/>
			<point x="2" y="10" type="line"/>
		</contour>
	</outline>
</glyph>
<glyph name="Y" format="2">
	<unicode hex="0059"/>
	<advance width="649"/>
	<outline>
		<contour>
			<point x="354" y="329" type="line"/>
			<point x="158" y="709" type="line"/>
			<point x="241" y="720" type="line"/>
			<point x="242" y="730" type="line"/>
			<point x="28" y="730" type="line"/>
			<point x="27" y="720" type="line"/>
			<point x="106" y="709" type="line"/>
			<point x="315" y="307" type="line"/>
			<point x="304" y="23" type="line"/>
			<point x="219" y="10" type="line"/>
			<point x="218" y="0" type="line"/>
			<point x="435" y="0" type="line"/>
			<point x="436" y="10" type="line"/>
			<point x="353" y="22" type="line"/>
			<point x="364" y="308" type="line"/>
			<point x="596" y="709" type="line"/>
			<point x="669" y="720" type="line"/>
			<point x="671" y="730" type="line"/>
			<point x="486" y="730" type="line"/>
			<point x="484" y="720" type="line"/>
			<point x="576" y="709" type="line"/>
			<point x="355" y="329" type="line"/>
		</contour>
	</outline>
	<anchor name="bottom" x="322" y="-30"/>
	<anchor name="top" x="364" y="730"/>
</glyph>
<glyph name="Z" format="2">
	<unicode hex="005A"/>
	<advance width="554"/>
	<outline>
		<contour>
			<point x="523" y="715" type="line"/>
			<point x="520" y="730" type="line"/>
			<point x="104" y="730" type="line"/>
			<point x="81" y="566" type="line"/>
			<point x="93" y="564" type="line"/>
			<point x="110" y="621" type="line" smooth="yes"/>
			<point x="133" y="699"/>
			<point x="155" y="712"/>
			<point x="216" y="712" type="curve" smooth="yes"/>
			<point x="471" y="712" type="line"/>
			<point x="53" y="10" type="line"/>
			<point x="50" y="0" type="line"/>
			<point x="486" y="0" type="line"/>
			<point x="515" y="165" type="line"/>
			<point x="502" y="165" type="line"/>
			<point x="477" y="98" type="line" smooth="yes"/>
			<point x="452" y="31"/>
			<point x="427" y="18"/>
			<point x="364" y="18" type="curve" smooth="yes"/>
			<point x="105" y="18" type="line"/>
		</contour>
	</outline>
	<anchor name="bottom" x="284" y="-30"/>
	<anchor name="top" x="306" y="730"/>
</glyph>
<glyph name="bracketright" format="2">
	<unicode hex="005D"/>
	<advance width="288"/>
	<outline>
		<contour>
			<point x="165" y="795" type="line"/>
			<point x="131" y="-189" type="line"/>
			<point x="31" y="-197" type="line"/>
			<point x="31" y="-209" type="line"/>
			<point x="170" y="-209" type="line"/>
			<point x="205" y="815" type="line"/>
			<point x="65" y="815" type="line"/>
			<point x="65" y="803" type="line"/>
		</contour>
	</outline>
</glyph>
<glyph name="asciicircum" format="2">
	<unicode hex="005E"/>
	<advance width="573"/>
	<outline>
		<contour>
			<point x="520" y="381" type="line"/>
			<point x="311" y="712" type="line"/>
			<point x="299" y="712" type="line"/>
			<point x="74" y="380" type="line"/>
			<point x="86" y="372" type="line"/>
			<point x="305" y="694" type="line"/>
			<point x="508" y="374" type="line"/>
		</contour>
	</outline>
</glyph>
<glyph name="underscore" format="2">
	<unicode hex="005F"/>
	<advance width="486"/>
	<outline>
		<contour>
			<point x="9" y="-76" type="line"/>
			<point x="468" y="-76" type="line"/>
			<point x="469" y="-46" type="line"/>
			<point x="10" y="-46" type="line"/>
		</contour>
	</outline>
</glyph>
<glyph name="a" format="2">
	<unicode hex="0061"/>
	<advance width="533"/>
	<outline>
		<contour>
			<point x="418" y="59" type="curve" smooth="yes"/>
			<point x="434" y="508" type="line"/>
			<point x="427" y="513" type="line"/>
			<point x="396" y="493" type="line"/>
			<point x="362" y="509"/>
			<point x="324" y="523"/>
			<point x="276" y="523" type="curve" smooth="yes"/>
			<point x="147" y="523"/>
			<point x="44" y="398"/>
			<point x="44" y="206" type="curve" smooth="yes"/>
			<point x="44" y="90"/>
			<point x="85" y="-14"/>
			<point x="191" y="-14" type="curve" smooth="yes"/>
			<point x="282" y="-14"/>
			<point x="323" y="73"/>
			<point x="347" y="174" type="curve" smooth="yes"/>
			<point x="379" y="309" type="line"/>
			<point x="381" y="309" type="line"/>
			<point x="369" y="73" type="line" smooth="yes"/>
			<point x="366" y="16"/>
			<point x="382" y="-14"/>
			<point x="431" y="-14" type="curve" smooth="yes"/>
			<point x="468" y="-14"/>
			<point x="499" y="4"/>
			<point x="524" y="26" type="curve"/>
			<point x="516" y="37" type="line"/>
			<point x="494" y="20"/>
			<point x="469" y="11"/>
			<point x="447" y="11" type="curve" smooth="yes"/>
			<point x="427" y="11"/>
			<point x="417" y="22"/>
		</contour>
		<contour>
			<point x="200" y="24" type="curve" smooth="yes"/>
			<point x="132" y="24"/>
			<point x="97" y="86"/>
			<point x="97" y="216" type="curve" smooth="yes"/>
			<point x="97" y="408"/>
			<point x="173" y="505"/>
			<point x="273" y="505" type="curve" smooth="yes"/>
			<point x="321" y="505"/>
			<point x="350" y="497"/>
			<point x="396" y="472" type="curve"/>
			<point x="355" y="287" type="line" smooth="yes"/>
			<point x="308" y="74"/>
			<point x="272" y="24"/>
		</contour>
	</outline>
	<anchor name="bottom" x="260" y="-30"/>
	<anchor name="top" x="277" y="550"/>
</glyph>
<glyph name="b" format="2">
	<unicode hex="0062"/>
	<advance width="506"/>
	<outline>
		<contour>
			<point x="232" y="-14" type="curve" smooth="yes"/>
			<point x="360" y="-14"/>
			<point x="462" y="111"/>
			<point x="462" y="303" type="curve" smooth="yes"/>
			<point x="462" y="419"/>
			<point x="422" y="523"/>
			<point x="316" y="523" type="curve" smooth="yes"/>
			<point x="231" y="523"/>
			<point x="186" y="446"/>
			<point x="160" y="335" type="curve" smooth="yes"/>
			<point x="128" y="200" type="line"/>
			<point x="126" y="200" type="line"/>
			<point x="143" y="417" type="line"/>
			<point x="158" y="758" type="line"/>
			<point x="150" y="767" type="line"/>
			<point x="27" y="767" type="line"/>
			<point x="26" y="760" type="line"/>
			<point x="110" y="742" type="line"/>
			<point x="77" y="28" type="line"/>
			<point x="121" y="2"/>
			<point x="174" y="-14"/>
		</contour>
		<contour>
			<point x="307" y="485" type="curve" smooth="yes"/>
			<point x="375" y="485"/>
			<point x="409" y="424"/>
			<point x="409" y="293" type="curve" smooth="yes"/>
			<point x="409" y="101"/>
			<point x="334" y="4"/>
			<point x="233" y="4" type="curve" smooth="yes"/>
			<point x="178" y="4"/>
			<point x="136" y="21"/>
			<point x="111" y="37" type="curve"/>
			<point x="152" y="222" type="line" smooth="yes"/>
			<point x="194" y="412"/>
			<point x="226" y="485"/>
		</contour>
	</outline>
</glyph>
<glyph name="c" format="2">
	<unicode hex="0063"/>
	<advance width="428"/>
	<outline>
		<contour>
			<point x="261" y="523" type="curve" smooth="yes"/>
			<point x="125" y="523"/>
			<point x="44" y="401"/>
			<point x="44" y="223" type="curve" smooth="yes"/>
			<point x="44" y="94"/>
			<point x="96" y="-14"/>
			<point x="217" y="-14" type="curve" smooth="yes"/>
			<point x="296" y="-14"/>
			<point x="345" y="25"/>
			<point x="383" y="74" type="curve"/>
			<point x="373" y="82" type="line"/>
			<point x="329" y="28"/>
			<point x="282" y="10"/>
			<point x="233" y="10" type="curve" smooth="yes"/>
			<point x="141" y="10"/>
			<point x="97" y="83"/>
			<point x="97" y="226" type="curve" smooth="yes"/>
			<point x="97" y="417"/>
			<point x="160" y="505"/>
			<point x="258" y="505" type="curve" smooth="yes"/>
			<point x="322" y="505"/>
			<point x="350" y="475"/>
			<point x="324" y="430" type="curve" smooth="yes"/>
			<point x="313" y="411" type="line"/>
			<point x="321" y="398"/>
			<point x="335" y="389"/>
			<point x="352" y="389" type="curve" smooth="yes"/>
			<point x="373" y="389"/>
			<point x="390" y="406"/>
			<point x="390" y="435" type="curve" smooth="yes"/>
			<point x="390" y="476"/>
			<point x="348" y="523"/>
		</contour>
	</outline>
	<anchor name="bottom" x="222" y="-30"/>
	<anchor name="top" x="258" y="550"/>
</glyph>
<glyph name="e" format="2">
	<unicode hex="0065"/>
	<advance width="423"/>
	<outline>
		<contour>
			<point x="259" y="523" type="curve" smooth="yes"/>
			<point x="126" y="523"/>
			<point x="44" y="401"/>
			<point x="44" y="223" type="curve" smooth="yes"/>
			<point x="44" y="94"/>
			<point x="96" y="-14"/>
			<point x="217" y="-14" type="curve" smooth="yes"/>
			<point x="296" y="-14"/>
			<point x="345" y="25"/>
			<point x="383" y="74" type="curve"/>
			<point x="373" y="82" type="line"/>
			<point x="328" y="26"/>
			<point x="283" y="10"/>
			<point x="233" y="10" type="curve" smooth="yes"/>
			<point x="142" y="10"/>
			<point x="95" y="78"/>
			<point x="97" y="238" type="curve"/>
			<point x="220" y="273" type="line" smooth="yes"/>
			<point x="311" y="299"/>
			<point x="382" y="337"/>
			<point x="382" y="414" type="curve" smooth="yes"/>
			<point x="382" y="479"/>
			<point x="342" y="523"/>
		</contour>
		<contour>
			<point x="333" y="414" type="curve" smooth="yes"/>
			<point x="333" y="339"/>
			<point x="288" y="310"/>
			<point x="197" y="283" type="curve" smooth="yes"/>
			<point x="97" y="253" type="line"/>
			<point x="102" y="437"/>
			<point x="173" y="505"/>
			<point x="250" y="505" type="curve" smooth="yes"/>
			<point x="302" y="505"/>
			<point x="333" y="480"/>
		</contour>
	</outline>
	<anchor name="bottom" x="225" y="-30"/>
	<anchor name="top" x="246" y="550"/>
</glyph>
<glyph name="f" format="2">
	<unicode hex="0066"/>
	<advance width="335"/>
	<outline>
		<contour>
			<point x="306" y="764" type="curve" smooth="yes"/>
			<point x="367" y="764"/>
			<point x="383" y="735"/>
			<point x="360" y="696" type="curve" smooth="yes"/>
			<point x="349" y="677" type="line"/>
			<point x="357" y="664"/>
			<point x="371" y="655"/>
			<point x="388" y="655" type="curve" smooth="yes"/>
			<point x="409" y="655"/>
			<point x="426" y="672"/>
			<point x="426" y="701" type="curve" smooth="yes"/>
			<point x="426" y="737"/>
			<point x="395" y="782"/>
			<point x="312" y="782" type="curve" smooth="yes"/>
			<point x="193" y="782"/>
			<point x="141" y="697"/>
			<point x="135" y="559" type="curve" smooth="yes"/>
			<point x="133" y="511" type="line"/>
			<point x="45" y="501" type="line"/>
			<point x="45" y="490" type="line"/>
			<point x="132" y="490" type="line"/>
			<point x="107" y="-5" type="line" smooth="yes"/>
			<point x="104" y="-62"/>
			<point x="103" y="-97"/>
			<point x="96" y="-141" type="curve" smooth="yes"/>
			<point x="88" y="-190"/>
			<point x="59" y="-211"/>
			<point x="8" y="-170" type="curve" smooth="yes"/>
			<point x="-16" y="-151" type="line"/>
			<point x="-28" y="-161"/>
			<point x="-34" y="-173"/>
			<point x="-34" y="-191" type="curve" smooth="yes"/>
			<point x="-34" y="-208"/>
			<point x="-21" y="-229"/>
			<point x="15" y="-229" type="curve" smooth="yes"/>
			<point x="44" y="-229"/>
			<point x="76" y="-217"/>
			<point x="100" y="-184" type="curve" smooth="yes"/>
			<point x="135" y="-137"/>
			<point x="152" y="-45"/>
			<point x="159" y="103" type="curve" smooth="yes"/>
			<point x="179" y="490" type="line"/>
			<point x="336" y="490" type="line"/>
			<point x="337" y="509" type="line"/>
			<point x="180" y="509" type="line"/>
			<point x="185" y="612" type="line" smooth="yes"/>
			<point x="190" y="707"/>
			<point x="226" y="764"/>
		</contour>
	</outline>
</glyph>
<glyph name="i" format="2">
	<unicode hex="0069"/>
	<advance width="266"/>
	<outline>
		<contour>
			<point x="122" y="445" type="curve" smooth="yes"/>
			<point x="94" y="60" type="line" smooth="yes"/>
			<point x="91" y="18"/>
			<point x="103" y="-14"/>
			<point x="150" y="-14" type="curve" smooth="yes"/>
			<point x="186" y="-14"/>
			<point x="215" y="1"/>
			<point x="242" y="22" type="curve"/>
			<point x="236" y="31" type="line"/>
			<point x="211" y="16"/>
			<point x="189" y="12"/>
			<point x="169" y="12" type="curve" smooth="yes"/>
			<point x="150" y="12"/>
			<point x="139" y="21"/>
			<point x="142" y="56" type="curve" smooth="yes"/>
			<point x="171" y="445" type="line" smooth="yes"/>
			<point x="174" y="490"/>
			<point x="166" y="523"/>
			<point x="118" y="523" type="curve" smooth="yes"/>
			<point x="83" y="523"/>
			<point x="58" y="512"/>
			<point x="24" y="491" type="curve"/>
			<point x="29" y="481" type="line"/>
			<point x="58" y="495"/>
			<point x="76" y="501"/>
			<point x="95" y="501" type="curve" smooth="yes"/>
			<point x="119" y="501"/>
			<point x="125" y="485"/>
		</contour>
		<contour>
			<point x="103" y="693" type="curve" smooth="yes"/>
			<point x="103" y="664"/>
			<point x="120" y="646"/>
			<point x="143" y="646" type="curve" smooth="yes"/>
			<point x="168" y="646"/>
			<point x="184" y="668"/>
			<point x="184" y="696" type="curve" smooth="yes"/>
			<point x="184" y="726"/>
			<point x="169" y="743"/>
			<point x="144" y="743" type="curve" smooth="yes"/>
			<point x="120" y="743"/>
			<point x="103" y="723"/>
		</contour>
	</outline>
	<anchor name="bottom" x="152" y="-30"/>
</glyph>
<glyph name="j" format="2">
	<unicode hex="006A"/>
	<advance width="258"/>
	<outline>
		<contour>
			<point x="158" y="121" type="curve" smooth="yes"/>
			<point x="169" y="423" type="line" smooth="yes"/>
			<point x="171" y="481"/>
			<point x="173" y="523"/>
			<point x="121" y="523" type="curve" smooth="yes"/>
			<point x="86" y="523"/>
			<point x="61" y="512"/>
			<point x="27" y="491" type="curve"/>
			<point x="32" y="481" type="line"/>
			<point x="61" y="495"/>
			<point x="79" y="501"/>
			<point x="98" y="501" type="curve" smooth="yes"/>
			<point x="125" y="501"/>
			<point x="126" y="479"/>
			<point x="125" y="446" type="curve" smooth="yes"/>
			<point x="106" y="-31" type="line" smooth="yes"/>
			<point x="104" y="-74"/>
			<point x="101" y="-112"/>
			<point x="98" y="-141" type="curve" smooth="yes"/>
			<point x="94" y="-190"/>
			<point x="61" y="-211"/>
			<point x="10" y="-170" type="curve" smooth="yes"/>
			<point x="-14" y="-151" type="line"/>
			<point x="-26" y="-161"/>
			<point x="-32" y="-173"/>
			<point x="-32" y="-191" type="curve" smooth="yes"/>
			<point x="-32" y="-208"/>
			<point x="-19" y="-229"/>
			<point x="17" y="-229" type="curve" smooth="yes"/>
			<point x="46" y="-229"/>
			<point x="78" y="-217"/>
			<point x="102" y="-184" type="curve" smooth="yes"/>
			<point x="136" y="-138"/>
			<point x="153" y="-23"/>
		</contour>
		<contour>
			<point x="106" y="693" type="curve" smooth="yes"/>
			<point x="106" y="664"/>
			<point x="123" y="646"/>
			<point x="146" y="646" type="curve" smooth="yes"/>
			<point x="171" y="646"/>
			<point x="187" y="668"/>
			<point x="187" y="696" type="curve" smooth="yes"/>
			<point x="187" y="726"/>
			<point x="172" y="743"/>
			<point x="147" y="743" type="curve" smooth="yes"/>
			<point x="123" y="743"/>
			<point x="106" y="723"/>
		</contour>
	</outline>
</glyph>
<glyph name="k" format="2">
	<unicode hex="006B"/>
	<advance width="482"/>
	<outline>
		<contour>
			<point x="119" y="742" type="line"/>
			<point x="85" y="0" type="line"/>
			<point x="134" y="0" type="line"/>
			<point x="145" y="263" type="line"/>
			<point x="169" y="270"/>
			<point x="190" y="277"/>
			<point x="215" y="286" type="curve"/>
			<point x="326" y="64" type="line" smooth="yes"/>
			<point x="355" y="6"/>
			<point x="380" y="-14"/>
			<point x="417" y="-14" type="curve" smooth="yes"/>
			<point x="450" y="-14"/>
			<point x="482" y="5"/>
			<point x="504" y="23" type="curve"/>
			<point x="498" y="31" type="line"/>
			<point x="476" y="18"/>
			<point x="457" y="12"/>
			<point x="441" y="12" type="curve" smooth="yes"/>
			<point x="410" y="12"/>
			<point x="399" y="29"/>
			<point x="367" y="91" type="curve" smooth="yes"/>
			<point x="258" y="303" type="line"/>
			<point x="272" y="309"/>
			<point x="304" y="326"/>
			<point x="334" y="345" type="curve" smooth="yes"/>
			<point x="393" y="382"/>
			<point x="422" y="420"/>
			<point x="422" y="467" type="curve" smooth="yes"/>
			<point x="422" y="497"/>
			<point x="406" y="523"/>
			<point x="374" y="523" type="curve" smooth="yes"/>
			<point x="350" y="523"/>
			<point x="329" y="502"/>
			<point x="325" y="473" type="curve"/>
			<point x="350" y="459" type="line" smooth="yes"/>
			<point x="391" y="436"/>
			<point x="384" y="396"/>
			<point x="317" y="354" type="curve" smooth="yes"/>
			<point x="266" y="322"/>
			<point x="204" y="297"/>
			<point x="146" y="282" type="curve"/>
			<point x="167" y="759" type="line"/>
			<point x="159" y="767" type="line"/>
			<point x="36" y="767" type="line"/>
			<point x="35" y="760" type="line"/>
		</contour>
	</outline>
	<anchor name="bottom" x="239" y="-30"/>
	<anchor name="top" x="106" y="780"/>
</glyph>
<glyph name="l" format="2">
	<unicode hex="006C"/>
	<advance width="254"/>
	<outline>
		<contour>
			<point x="119" y="742" type="line"/>
			<point x="88" y="63" type="line" smooth="yes"/>
			<point x="86" y="14"/>
			<point x="100" y="-14"/>
			<point x="144" y="-14" type="curve" smooth="yes"/>
			<point x="181" y="-14"/>
			<point x="214" y="4"/>
			<point x="236" y="22" type="curve"/>
			<point x="230" y="31" type="line"/>
			<point x="208" y="18"/>
			<point x="187" y="12"/>
			<point x="164" y="12" type="curve" smooth="yes"/>
			<point x="140" y="12"/>
			<point x="135" y="27"/>
			<point x="136" y="57" type="curve" smooth="yes"/>
			<point x="167" y="759" type="line"/>
			<point x="159" y="767" type="line"/>
			<point x="36" y="767" type="line"/>
			<point x="35" y="760" type="line"/>
		</contour>
	</outline>
	<anchor name="bottom" x="152" y="-30"/>
	<anchor name="top" x="108" y="780"/>
</glyph>
<glyph name="r" format="2">
	<unicode hex="0072"/>
	<advance width="406"/>
	<outline>
		<contour>
			<point x="120" y="458" type="curve" smooth="yes"/>
			<point x="102" y="0" type="line"/>
			<point x="133" y="0" type="line"/>
			<point x="142" y="83" type="line" smooth="yes"/>
			<point x="149" y="143"/>
			<point x="178" y="210"/>
			<point x="245" y="397" type="curve" smooth="yes"/>
			<point x="267" y="459"/>
			<point x="283" y="473"/>
			<point x="307" y="473" type="curve" smooth="yes"/>
			<point x="321" y="473"/>
			<point x="334" y="467"/>
			<point x="348" y="455" type="curve" smooth="yes"/>
			<point x="361" y="444" type="line"/>
			<point x="372" y="453"/>
			<point x="381" y="463"/>
			<point x="381" y="481" type="curve" smooth="yes"/>
			<point x="381" y="505"/>
			<point x="359" y="523"/>
			<point x="331" y="523" type="curve" smooth="yes"/>
			<point x="292" y="523"/>
			<point x="260" y="499"/>
			<point x="229" y="409" type="curve" smooth="yes"/>
			<point x="146" y="170" type="line"/>
			<point x="144" y="170" type="line"/>
			<point x="169" y="430" type="line" smooth="yes"/>
			<point x="175" y="493"/>
			<point x="161" y="523"/>
			<point x="115" y="523" type="curve" smooth="yes"/>
			<point x="79" y="523"/>
			<point x="48" y="508"/>
			<point x="21" y="491" type="curve"/>
			<point x="26" y="481" type="line"/>
			<point x="55" y="496"/>
			<point x="76" y="501"/>
			<point x="92" y="501" type="curve" smooth="yes"/>
			<point x="113" y="501"/>
			<point x="121" y="490"/>
		</contour>
	</outline>
	<anchor name="bottom" x="118" y="-30"/>
	<anchor name="top" x="221" y="550"/>
</glyph>
<glyph name="t" format="2">
	<unicode hex="0074"/>
	<advance width="340"/>
	<outline>
		<contour>
			<point x="35" y="502" type="line"/>
			<point x="35" y="490" type="line"/>
			<point x="113" y="490" type="line"/>
			<point x="94" y="132" type="line" smooth="yes"/>
			<point x="89" y="30"/>
			<point x="116" y="-14"/>
			<point x="203" y="-14" type="curve" smooth="yes"/>
			<point x="255" y="-14"/>
			<point x="298" y="14"/>
			<point x="328" y="56" type="curve"/>
			<point x="320" y="63" type="line"/>
			<point x="289" y="30"/>
			<point x="256" y="12"/>
			<point x="212" y="12" type="curve" smooth="yes"/>
			<point x="153" y="12"/>
			<point x="139" y="50"/>
			<point x="142" y="109" type="curve" smooth="yes"/>
			<point x="160" y="490" type="line"/>
			<point x="319" y="490" type="line"/>
			<point x="320" y="509" type="line"/>
			<point x="160" y="509" type="line"/>
			<point x="168" y="653" type="line"/>
			<point x="155" y="653" type="line"/>
			<point x="116" y="511" type="line"/>
		</contour>
	</outline>
	<anchor name="bottom" x="197" y="-30"/>
</glyph>
<glyph name="v" format="2">
	<unicode hex="0076"/>
	<advance width="494"/>
	<outline>
		<contour>
			<point x="374" y="523" type="curve" smooth="yes"/>
			<point x="340" y="523"/>
			<point x="331" y="497"/>
			<point x="332" y="466" type="curve"/>
			<point x="380" y="454" type="line" smooth="yes"/>
			<point x="407" y="447"/>
			<point x="419" y="426"/>
			<point x="419" y="377" type="curve" smooth="yes"/>
			<point x="419" y="224"/>
			<point x="361" y="4"/>
			<point x="218" y="4" type="curve" smooth="yes"/>
			<point x="160" y="4"/>
			<point x="146" y="44"/>
			<point x="150" y="113" type="curve" smooth="yes"/>
			<point x="169" y="446" type="line" smooth="yes"/>
			<point x="172" y="501"/>
			<point x="154" y="523"/>
			<point x="113" y="523" type="curve" smooth="yes"/>
			<point x="78" y="523"/>
			<point x="43" y="504"/>
			<point x="21" y="487" type="curve"/>
			<point x="27" y="478" type="line"/>
			<point x="44" y="486" type="line" smooth="yes"/>
			<point x="85" y="505"/>
			<point x="124" y="506"/>
			<point x="121" y="459" type="curve" smooth="yes"/>
			<point x="103" y="149" type="line" smooth="yes"/>
			<point x="95" y="13"/>
			<point x="147" y="-14"/>
			<point x="208" y="-14" type="curve" smooth="yes"/>
			<point x="396" y="-14"/>
			<point x="439" y="258"/>
			<point x="439" y="396" type="curve" smooth="yes"/>
			<point x="439" y="478"/>
			<point x="416" y="523"/>
		</contour>
	</outline>
	<anchor name="top" x="260" y="550"/>
</glyph>
<glyph name="w" format="2">
	<unicode hex="0077"/>
	<advance width="758"/>
	<outline>
		<contour>
			<point x="428" y="506" type="curve"/>
			<point x="375" y="496" type="line"/>
			<point x="384" y="452"/>
			<point x="389" y="408"/>
			<point x="389" y="356" type="curve" smooth="yes"/>
			<point x="389" y="125"/>
			<point x="323" y="4"/>
			<point x="218" y="4" type="curve" smooth="yes"/>
			<point x="160" y="4"/>
			<point x="146" y="44"/>
			<point x="150" y="113" type="curve" smooth="yes"/>
			<point x="169" y="446" type="line" smooth="yes"/>
			<point x="172" y="501"/>
			<point x="154" y="523"/>
			<point x="113" y="523" type="curve" smooth="yes"/>
			<point x="78" y="523"/>
			<point x="44" y="504"/>
			<point x="21" y="487" type="curve"/>
			<point x="27" y="478" type="line"/>
			<point x="45" y="486" type="line" smooth="yes"/>
			<point x="89" y="505"/>
			<point x="124" y="506"/>
			<point x="121" y="453" type="curve" smooth="yes"/>
			<point x="103" y="149" type="line" smooth="yes"/>
			<point x="96" y="27"/>
			<point x="135" y="-14"/>
			<point x="208" y="-14" type="curve" smooth="yes"/>
			<point x="297" y="-14"/>
			<point x="344" y="48"/>
			<point x="372" y="112" type="curve"/>
			<point x="375" y="34"/>
			<point x="407" y="-14"/>
			<point x="482" y="-14" type="curve" smooth="yes"/>
			<point x="661" y="-14"/>
			<point x="703" y="258"/>
			<point x="703" y="396" type="curve" smooth="yes"/>
			<point x="703" y="478"/>
			<point x="680" y="523"/>
			<point x="638" y="523" type="curve" smooth="yes"/>
			<point x="604" y="523"/>
			<point x="595" y="497"/>
			<point x="596" y="466" type="curve"/>
			<point x="644" y="454" type="line" smooth="yes"/>
			<point x="671" y="447"/>
			<point x="683" y="427"/>
			<point x="683" y="377" type="curve" smooth="yes"/>
			<point x="683" y="224"/>
			<point x="626" y="4"/>
			<point x="492" y="4" type="curve" smooth="yes"/>
			<point x="428" y="4"/>
			<point x="406" y="26"/>
			<point x="421" y="149" type="curve" smooth="yes"/>
			<point x="428" y="209"/>
			<point x="440" y="304"/>
			<point x="440" y="383" type="curve" smooth="yes"/>
			<point x="440" y="425"/>
			<point x="438" y="462"/>
		</contour>
	</outline>
	<anchor name="top" x="399" y="550"/>
</glyph>
<glyph name="x" format="2">
	<unicode hex="0078"/>
	<advance width="502"/>
	<outline>
		<contour>
			<point x="272" y="284" type="line"/>
			<point x="185" y="475" type="line" smooth="yes"/>
			<point x="167" y="514"/>
			<point x="147" y="523"/>
			<point x="115" y="523" type="curve" smooth="yes"/>
			<point x="78" y="523"/>
			<point x="45" y="505"/>
			<point x="23" y="487" type="curve"/>
			<point x="29" y="478" type="line"/>
			<point x="51" y="491"/>
			<point x="72" y="497"/>
			<point x="95" y="497" type="curve" smooth="yes"/>
			<point x="121" y="497"/>
			<point x="132" y="480"/>
			<point x="140" y="462" type="curve" smooth="yes"/>
			<point x="231" y="262" type="line"/>
			<point x="113" y="168" type="line" smooth="yes"/>
			<point x="45" y="114"/>
			<point x="26" y="78"/>
			<point x="26" y="42" type="curve" smooth="yes"/>
			<point x="26" y="9"/>
			<point x="47" y="-14"/>
			<point x="74" y="-14" type="curve" smooth="yes"/>
			<point x="98" y="-14"/>
			<point x="113" y="0"/>
			<point x="122" y="27" type="curve"/>
			<point x="89" y="40" type="line" smooth="yes"/>
			<point x="45" y="57"/>
			<point x="53" y="97"/>
			<point x="103" y="137" type="curve" smooth="yes"/>
			<point x="237" y="245" type="line"/>
			<point x="323" y="59" type="line" smooth="yes"/>
			<point x="350" y="0"/>
			<point x="376" y="-14"/>
			<point x="410" y="-14" type="curve" smooth="yes"/>
			<point x="443" y="-14"/>
			<point x="474" y="5"/>
			<point x="496" y="24" type="curve"/>
			<point x="490" y="33" type="line"/>
			<point x="468" y="20"/>
			<point x="447" y="14"/>
			<point x="430" y="14" type="curve" smooth="yes"/>
			<point x="405" y="14"/>
			<point x="391" y="23"/>
			<point x="376" y="55" type="curve" smooth="yes"/>
			<point x="278" y="267" type="line"/>
			<point x="350" y="323" type="line" smooth="yes"/>
			<point x="460" y="409"/>
			<point x="469" y="440"/>
			<point x="469" y="472" type="curve" smooth="yes"/>
			<point x="469" y="502"/>
			<point x="447" y="523"/>
			<point x="423" y="523" type="curve" smooth="yes"/>
			<point x="400" y="523"/>
			<point x="387" y="506"/>
			<point x="384" y="490" type="curve"/>
			<point x="402" y="475" type="line" smooth="yes"/>
			<point x="440" y="443"/>
			<point x="429" y="409"/>
			<point x="365" y="358" type="curve" smooth="yes"/>
		</contour>
	</outline>
</glyph>
<glyph name="z" format="2">
	<unicode hex="007A"/>
	<advance width="446"/>
	<outline>
		<contour>
			<point x="73" y="507" type="line"/>
			<point x="62" y="496" type="line"/>
			<point x="48" y="365" type="line"/>
			<point x="61" y="365" type="line"/>
			<point x="80" y="442"/>
			<point x="88" y="459"/>
			<point x="137" y="459" type="curve" smooth="yes"/>
			<point x="376" y="459" type="line"/>
			<point x="33" y="33" type="line"/>
			<point x="60" y="-6" type="line"/>
			<point x="79" y="3"/>
			<point x="104" y="9"/>
			<point x="140" y="9" type="curve" smooth="yes"/>
			<point x="217" y="9"/>
			<point x="291" y="-20"/>
			<point x="380" y="0" type="curve"/>
			<point x="408" y="156" type="line"/>
			<point x="397" y="156" type="line"/>
			<point x="369" y="47"/>
			<point x="351" y="41"/>
			<point x="309" y="41" type="curve" smooth="yes"/>
			<point x="271" y="41"/>
			<point x="177" y="58"/>
			<point x="149" y="58" type="curve" smooth="yes"/>
			<point x="113" y="58"/>
			<point x="86" y="53"/>
			<point x="62" y="40" type="curve"/>
			<point x="415" y="481" type="line"/>
			<point x="408" y="507" type="line"/>
		</contour>
	</outline>
	<anchor name="bottom" x="205" y="-30"/>
	<anchor name="top" x="231" y="550"/>
</glyph>
<glyph name="braceleft" format="2">
	<unicode hex="007B"/>
	<advance width="345"/>
	<outline>
		<contour>
			<point x="77" y="315" type="curve"/>
			<point x="76" y="301" type="line"/>
			<point x="147" y="304"/>
			<point x="161" y="280"/>
			<point x="161" y="205" type="curve" smooth="yes"/>
			<point x="161" y="130"/>
			<point x="127" y="-48"/>
			<point x="127" y="-109" type="curve" smooth="yes"/>
			<point x="127" y="-189"/>
			<point x="170" y="-230"/>
			<point x="241" y="-230" type="curve" smooth="yes"/>
			<point x="258" y="-230"/>
			<point x="275" y="-228"/>
			<point x="295" y="-224" type="curve"/>
			<point x="294" y="-213" type="line"/>
			<point x="276" y="-217"/>
			<point x="264" y="-218"/>
			<point x="243" y="-218" type="curve" smooth="yes"/>
			<point x="188" y="-218"/>
			<point x="161" y="-190"/>
			<point x="163" y="-125" type="curve" smooth="yes"/>
			<point x="165" y="-56"/>
			<point x="195" y="122"/>
			<point x="195" y="176" type="curve" smooth="yes"/>
			<point x="195" y="267"/>
			<point x="173" y="294"/>
			<point x="131" y="308" type="curve"/>
			<point x="180" y="320"/>
			<point x="207" y="354"/>
			<point x="207" y="443" type="curve" smooth="yes"/>
			<point x="207" y="516"/>
			<point x="194" y="677"/>
			<point x="194" y="723" type="curve" smooth="yes"/>
			<point x="194" y="798"/>
			<point x="230" y="819"/>
			<point x="267" y="819" type="curve" smooth="yes"/>
			<point x="286" y="819"/>
			<point x="300" y="818"/>
			<point x="322" y="813" type="curve"/>
			<point x="325" y="825" type="line"/>
			<point x="308" y="829"/>
			<point x="289" y="831"/>
			<point x="272" y="831" type="curve" smooth="yes"/>
			<point x="198" y="831"/>
			<point x="157" y="784"/>
			<point x="157" y="709" type="curve" smooth="yes"/>
			<point x="157" y="646"/>
			<point x="173" y="482"/>
			<point x="173" y="413" type="curve" smooth="yes"/>
			<point x="173" y="343"/>
			<point x="164" y="317"/>
		</contour>
	</outline>
</glyph>
<glyph name="cent" format="2">
	<unicode hex="00A2"/>
	<advance width="428"/>
	<outline>
		<contour>
			<point x="161" y="-23" type="line"/>
			<point x="177" y="-23" type="line"/>
			<point x="190" y="44" type="line"/>
			<point x="199" y="43"/>
			<point x="209" y="42"/>
			<point x="219" y="42" type="curve" smooth="yes"/>
			<point x="298" y="42"/>
			<point x="347" y="81"/>
			<point x="385" y="130" type="curve"/>
			<point x="375" y="138" type="line"/>
			<point x="331" y="84"/>
			<point x="284" y="66"/>
			<point x="235" y="66" type="curve" smooth="yes"/>
			<point x="221" y="66"/>
			<point x="208" y="68"/>
			<point x="196" y="71" type="curve"/>
			<point x="292" y="558" type="line"/>
			<point x="333" y="549"/>
			<point x="347" y="523"/>
			<point x="326" y="486" type="curve" smooth="yes"/>
			<point x="315" y="467" type="line"/>
			<point x="323" y="454"/>
			<point x="337" y="445"/>
			<point x="354" y="445" type="curve" smooth="yes"/>
			<point x="375" y="445"/>
			<point x="392" y="462"/>
			<point x="392" y="491" type="curve" smooth="yes"/>
			<point x="392" y="526"/>
			<point x="361" y="566"/>
			<point x="296" y="577" type="curve"/>
			<point x="307" y="634" type="line"/>
			<point x="291" y="634" type="line"/>
			<point x="280" y="578" type="line"/>
			<point x="133" y="590"/>
			<point x="46" y="462"/>
			<point x="46" y="279" type="curve" smooth="yes"/>
			<point x="46" y="167"/>
			<point x="85" y="71"/>
			<point x="175" y="47" type="curve"/>
		</contour>
		<contour>
			<point x="181" y="77" type="line"/>
			<point x="126" y="102"/>
			<point x="99" y="171"/>
			<point x="99" y="282" type="curve" smooth="yes"/>
			<point x="99" y="448"/>
			<point x="149" y="572"/>
			<point x="276" y="560" type="curve"/>
		</contour>
	</outline>
</glyph>
<glyph name="yen" format="2">
	<unicode hex="00A5"/>
	<advance width="649"/>
	<outline>
		<contour>
			<point x="218" y="0" type="line"/>
			<point x="435" y="0" type="line"/>
			<point x="436" y="10" type="line"/>
			<point x="353" y="22" type="line"/>
			<point x="361" y="239" type="line"/>
			<point x="557" y="239" type="line"/>
			<point x="560" y="254" type="line"/>
			<point x="362" y="254" type="line"/>
			<point x="364" y="308" type="line"/>
			<point x="396" y="364" type="line"/>
			<point x="558" y="364" type="line"/>
			<point x="561" y="380" type="line"/>
			<point x="406" y="380" type="line"/>
			<point x="596" y="709" type="line"/>
			<point x="669" y="720" type="line"/>
			<point x="671" y="730" type="line"/>
			<point x="486" y="730" type="line"/>
			<point x="484" y="720" type="line"/>
			<point x="576" y="709" type="line"/>
			<point x="355" y="329" type="line"/>
			<point x="354" y="329" type="line"/>
			<point x="158" y="709" type="line"/>
			<point x="241" y="720" type="line"/>
			<point x="242" y="730" type="line"/>
			<point x="28" y="730" type="line"/>
			<point x="27" y="720" type="line"/>
			<point x="106" y="709" type="line"/>
			<point x="276" y="382" type="line"/>
			<point x="119" y="382" type="line"/>
			<point x="117" y="367" type="line"/>
			<point x="284" y="367" type="line"/>
			<point x="315" y="307" type="line"/>
			<point x="313" y="254" type="line"/>
			<point x="116" y="254" type="line"/>
			<point x="113" y="239" type="line"/>
			<point x="312" y="239" type="line"/>
			<point x="304" y="23" type="line"/>
			<point x="219" y="10" type="line"/>
		</contour>
	</outline>
</glyph>
<glyph name="section" format="2">
	<unicode hex="00A7"/>
	<advance width="567"/>
	<outline>
		<contour>
			<point x="493" y="193" type="curve" smooth="yes"/>
			<point x="493" y="348"/>
			<point x="191" y="400"/>
			<point x="191" y="570" type="curve" smooth="yes"/>
			<point x="191" y="638"/>
			<point x="244" y="696"/>
			<point x="333" y="696" type="curve" smooth="yes"/>
			<point x="418" y="696"/>
			<point x="425" y="654"/>
			<point x="398" y="606" type="curve" smooth="yes"/>
			<point x="383" y="579" type="line"/>
			<point x="393" y="566"/>
			<point x="410" y="556"/>
			<point x="428" y="556" type="curve" smooth="yes"/>
			<point x="459" y="556"/>
			<point x="478" y="575"/>
			<point x="478" y="608" type="curve" smooth="yes"/>
			<point x="478" y="664"/>
			<point x="425" y="715"/>
			<point x="334" y="715" type="curve" smooth="yes"/>
			<point x="229" y="715"/>
			<point x="158" y="638"/>
			<point x="158" y="559" type="curve" smooth="yes"/>
			<point x="158" y="355"/>
			<point x="494" y="322"/>
			<point x="475" y="146" type="curve"/>
			<point x="483" y="145" type="line"/>
			<point x="491" y="159"/>
			<point x="493" y="178"/>
		</contour>
		<contour>
			<point x="109" y="365" type="curve"/>
			<point x="109" y="210"/>
			<point x="411" y="158"/>
			<point x="411" y="-11" type="curve" smooth="yes"/>
			<point x="411" y="-80"/>
			<point x="358" y="-138"/>
			<point x="269" y="-138" type="curve" smooth="yes"/>
			<point x="183" y="-138"/>
			<point x="168" y="-99"/>
			<point x="198" y="-45" type="curve" smooth="yes"/>
			<point x="213" y="-18" type="line"/>
			<point x="203" y="-5"/>
			<point x="186" y="5"/>
			<point x="168" y="5" type="curve" smooth="yes"/>
			<point x="138" y="5"/>
			<point x="118" y="-15"/>
			<point x="118" y="-46" type="curve" smooth="yes"/>
			<point x="118" y="-103"/>
			<point x="169" y="-157"/>
			<point x="268" y="-157" type="curve" smooth="yes"/>
			<point x="373" y="-157"/>
			<point x="444" y="-81"/>
			<point x="444" y="0" type="curve" smooth="yes"/>
			<point x="444" y="203"/>
			<point x="108" y="236"/>
			<point x="127" y="412" type="curve"/>
			<point x="119" y="413" type="line"/>
			<point x="111" y="399"/>
			<point x="109" y="381"/>
		</contour>
	</outline>
</glyph>
<glyph name="dieresis" format="2">
	<unicode hex="00A8"/>
	<advance width="506"/>
	<outline>
		<contour>
			<point x="151" y="682" type="curve" smooth="yes"/>
			<point x="151" y="654"/>
			<point x="167" y="640"/>
			<point x="189" y="640" type="curve" smooth="yes"/>
			<point x="213" y="640"/>
			<point x="228" y="662"/>
			<point x="228" y="688" type="curve" smooth="yes"/>
			<point x="228" y="718"/>
			<point x="213" y="730"/>
			<point x="192" y="730" type="curve" smooth="yes"/>
			<point x="167" y="730"/>
			<point x="151" y="710"/>
		</contour>
		<contour>
			<point x="323" y="682" type="curve" smooth="yes"/>
			<point x="323" y="654"/>
			<point x="339" y="640"/>
			<point x="360" y="640" type="curve" smooth="yes"/>
			<point x="384" y="640"/>
			<point x="400" y="662"/>
			<point x="400" y="688" type="curve" smooth="yes"/>
			<point x="400" y="717"/>
			<point x="385" y="730"/>
			<point x="363" y="730" type="curve" smooth="yes"/>
			<point x="338" y="730"/>
			<point x="323" y="710"/>
		</contour>
	</outline>
	<anchor name="_top" x="271" y="550"/>
</glyph>
<glyph name="copyright" format="2">
	<unicode hex="00A9"/>
	<advance width="746"/>
	<outline>
		<contour>
			<point x="384" y="-12" type="curve" smooth="yes"/>
			<point x="561" y="-12"/>
			<point x="701" y="115"/>
			<point x="701" y="318" type="curve" smooth="yes"/>
			<point x="701" y="500"/>
			<point x="586" y="634"/>
			<point x="385" y="634" type="curve" smooth="yes"/>
			<point x="214" y="634"/>
			<point x="66" y="509"/>
			<point x="66" y="304" type="curve" smooth="yes"/>
			<point x="66" y="126"/>
			<point x="176" y="-12"/>
		</contour>
		<contour>
			<point x="381" y="101" type="curve" smooth="yes"/>
			<point x="455" y="101"/>
			<point x="502" y="141"/>
			<point x="531" y="179" type="curve"/>
			<point x="523" y="185" type="line"/>
			<point x="482" y="134"/>
			<point x="447" y="116"/>
			<point x="392" y="116" type="curve" smooth="yes"/>
			<point x="311" y="116"/>
			<point x="259" y="189"/>
			<point x="259" y="300" type="curve" smooth="yes"/>
			<point x="259" y="416"/>
			<point x="310" y="503"/>
			<point x="402" y="503" type="curve" smooth="yes"/>
			<point x="469" y="503"/>
			<point x="498" y="467"/>
			<point x="471" y="417" type="curve" smooth="yes"/>
			<point x="460" y="398" type="line"/>
			<point x="469" y="390"/>
			<point x="479" y="383"/>
			<point x="495" y="383" type="curve" smooth="yes"/>
			<point x="516" y="383"/>
			<point x="531" y="395"/>
			<point x="531" y="415" type="curve" smooth="yes"/>
			<point x="531" y="470"/>
			<point x="469" y="514"/>
			<point x="399" y="514" type="curve" smooth="yes"/>
			<point x="295" y="514"/>
			<point x="207" y="439"/>
			<point x="207" y="295" type="curve" smooth="yes"/>
			<point x="207" y="215"/>
			<point x="258" y="101"/>
		</contour>
		<contour>
			<point x="384" y="3" type="curve" smooth="yes"/>
			<point x="194" y="3"/>
			<point x="85" y="126"/>
			<point x="85" y="304" type="curve" smooth="yes"/>
			<point x="85" y="476"/>
			<point x="200" y="619"/>
			<point x="386" y="619" type="curve" smooth="yes"/>
			<point x="561" y="619"/>
			<point x="682" y="504"/>
			<point x="682" y="315" type="curve" smooth="yes"/>
			<point x="682" y="127"/>
			<point x="550" y="3"/>
		</contour>
	</outline>
</glyph>
<glyph name="registered" format="2">
	<unicode hex="00AE"/>
	<advance width="426"/>
	<outline>
		<contour>
			<point x="240" y="412" type="curve" smooth="yes"/>
			<point x="340" y="412"/>
			<point x="408" y="482"/>
			<point x="408" y="583" type="curve" smooth="yes"/>
			<point x="408" y="683"/>
			<point x="341" y="746"/>
			<point x="241" y="746" type="curve" smooth="yes"/>
			<point x="137" y="746"/>
			<point x="73" y="669"/>
			<point x="73" y="575" type="curve" smooth="yes"/>
			<point x="73" y="466"/>
			<point x="144" y="412"/>
		</contour>
		<contour>
			<point x="322" y="467" type="curve" smooth="yes"/>
			<point x="299" y="467"/>
			<point x="288" y="479"/>
			<point x="261" y="537" type="curve" smooth="yes"/>
			<point x="244" y="575"/>
			<point x="239" y="581"/>
			<point x="224" y="583" type="curve"/>
			<point x="224" y="587" type="line"/>
			<point x="230" y="588" type="line" smooth="yes"/>
			<point x="269" y="594"/>
			<point x="287" y="606"/>
			<point x="287" y="645" type="curve" smooth="yes"/>
			<point x="287" y="677"/>
			<point x="271" y="695"/>
			<point x="226" y="695" type="curve" smooth="yes"/>
			<point x="209" y="695" type="line"/>
			<point x="201" y="479" type="line"/>
			<point x="231" y="475" type="line"/>
			<point x="231" y="470" type="line"/>
			<point x="147" y="470" type="line"/>
			<point x="147" y="475" type="line"/>
			<point x="177" y="478" type="line"/>
			<point x="185" y="693" type="line"/>
			<point x="161" y="697" type="line"/>
			<point x="161" y="702" type="line"/>
			<point x="228" y="702" type="line" smooth="yes"/>
			<point x="288" y="702"/>
			<point x="313" y="681"/>
			<point x="313" y="644" type="curve" smooth="yes"/>
			<point x="313" y="614"/>
			<point x="295" y="590"/>
			<point x="247" y="585" type="curve"/>
			<point x="247" y="584" type="line"/>
			<point x="267" y="574"/>
			<point x="274" y="562"/>
			<point x="288" y="531" type="curve" smooth="yes"/>
			<point x="312" y="480"/>
			<point x="318" y="475"/>
			<point x="329" y="475" type="curve" smooth="yes"/>
			<point x="333" y="475"/>
			<point x="338" y="478"/>
			<point x="341" y="481" type="curve"/>
			<point x="344" y="477" type="line"/>
			<point x="340" y="472"/>
			<point x="334" y="467"/>
		</contour>
	</outline>
</glyph>
<glyph name="plusminus" format="2">
	<unicode hex="00B1"/>
	<advance width="582"/>
	<outline>
		<contour>
			<point x="286" y="128" type="line"/>
			<point x="303" y="128" type="line"/>
			<point x="312" y="312" type="line"/>
			<point x="482" y="312" type="line"/>
			<point x="483" y="329" type="line"/>
			<point x="313" y="329" type="line"/>
			<point x="322" y="505" type="line"/>
			<point x="305" y="505" type="line"/>
			<point x="296" y="329" type="line"/>
			<point x="127" y="329" type="line"/>
			<point x="126" y="312" type="line"/>
			<point x="295" y="312" type="line"/>
		</contour>
		<contour>
			<point x="113" y="0" type="line"/>
			<point x="471" y="0" type="line"/>
			<point x="472" y="17" type="line"/>
			<point x="114" y="17" type="line"/>
		</contour>
	</outline>
</glyph>
<glyph name="twosuperior" format="2">
	<unicode hex="00B2"/>
	<advance width="356"/>
	<outline>
		<contour>
			<point x="170" y="823" type="curve" smooth="yes"/>
			<point x="230" y="823"/>
			<point x="275" y="798"/>
			<point x="275" y="715" type="curve" smooth="yes"/>
			<point x="275" y="636"/>
			<point x="233" y="565"/>
			<point x="40" y="388" type="curve"/>
			<point x="40" y="374" type="line"/>
			<point x="320" y="374" type="line"/>
			<point x="329" y="488" type="line"/>
			<point x="317" y="488" type="line"/>
			<point x="295" y="414"/>
			<point x="287" y="411"/>
			<point x="234" y="411" type="curve" smooth="yes"/>
			<point x="89" y="411" type="line"/>
			<point x="286" y="589"/>
			<point x="319" y="663"/>
			<point x="319" y="719" type="curve" smooth="yes"/>
			<point x="319" y="796"/>
			<point x="260" y="837"/>
			<point x="179" y="837" type="curve" smooth="yes"/>
			<point x="100" y="837"/>
			<point x="37" y="805"/>
			<point x="37" y="740" type="curve" smooth="yes"/>
			<point x="37" y="710"/>
			<point x="55" y="695"/>
			<point x="75" y="695" type="curve" smooth="yes"/>
			<point x="91" y="695"/>
			<point x="104" y="703"/>
			<point x="111" y="713" type="curve"/>
			<point x="97" y="737" type="line" smooth="yes"/>
			<point x="76" y="772"/>
			<point x="85" y="823"/>
		</contour>
	</outline>
</glyph>
<glyph name="threesuperior" format="2">
	<unicode hex="00B3"/>
	<advance width="356"/>
	<outline>
		<contour>
			<point x="318" y="739" type="curve" smooth="yes"/>
			<point x="318" y="792"/>
			<point x="279" y="839"/>
			<point x="186" y="839" type="curve" smooth="yes"/>
			<point x="112" y="839"/>
			<point x="59" y="798"/>
			<point x="59" y="749" type="curve" smooth="yes"/>
			<point x="59" y="720"/>
			<point x="79" y="709"/>
			<point x="97" y="709" type="curve" smooth="yes"/>
			<point x="112" y="709"/>
			<point x="128" y="717"/>
			<point x="137" y="729" type="curve"/>
			<point x="123" y="751" type="line" smooth="yes"/>
			<point x="100" y="784"/>
			<point x="115" y="825"/>
			<point x="187" y="825" type="curve" smooth="yes"/>
			<point x="243" y="825"/>
			<point x="283" y="802"/>
			<point x="283" y="739" type="curve" smooth="yes"/>
			<point x="283" y="658"/>
			<point x="225" y="624"/>
			<point x="144" y="617" type="curve"/>
			<point x="146" y="603" type="line"/>
			<point x="159" y="605"/>
			<point x="172" y="607"/>
			<point x="189" y="607" type="curve" smooth="yes"/>
			<point x="260" y="607"/>
			<point x="289" y="574"/>
			<point x="289" y="508" type="curve" smooth="yes"/>
			<point x="289" y="423"/>
			<point x="237" y="376"/>
			<point x="169" y="376" type="curve" smooth="yes"/>
			<point x="112" y="376"/>
			<point x="94" y="399"/>
			<point x="109" y="433" type="curve" smooth="yes"/>
			<point x="119" y="456" type="line"/>
			<point x="105" y="469"/>
			<point x="92" y="474"/>
			<point x="76" y="474" type="curve" smooth="yes"/>
			<point x="61" y="474"/>
			<point x="43" y="465"/>
			<point x="43" y="435" type="curve" smooth="yes"/>
			<point x="43" y="400"/>
			<point x="75" y="362"/>
			<point x="159" y="362" type="curve" smooth="yes"/>
			<point x="254" y="362"/>
			<point x="334" y="418"/>
			<point x="334" y="514" type="curve" smooth="yes"/>
			<point x="334" y="571"/>
			<point x="292" y="617"/>
			<point x="223" y="621" type="curve"/>
			<point x="223" y="623" type="line"/>
			<point x="286" y="647"/>
			<point x="318" y="695"/>
		</contour>
	</outline>
</glyph>
<glyph name="paragraph" format="2">
	<unicode hex="00B6"/>
	<advance width="507"/>
	<outline>
		<contour>
			<point x="301" y="-141" type="curve" smooth="yes"/>
			<point x="293" y="-190"/>
			<point x="264" y="-211"/>
			<point x="213" y="-170" type="curve" smooth="yes"/>
			<point x="189" y="-151" type="line"/>
			<point x="173" y="-159"/>
			<point x="171" y="-177"/>
			<point x="171" y="-191" type="curve" smooth="yes"/>
			<point x="171" y="-208"/>
			<point x="184" y="-229"/>
			<point x="220" y="-229" type="curve" smooth="yes"/>
			<point x="249" y="-229"/>
			<point x="281" y="-217"/>
			<point x="305" y="-184" type="curve" smooth="yes"/>
			<point x="339" y="-138"/>
			<point x="358" y="-46"/>
			<point x="365" y="122" type="curve" smooth="yes"/>
			<point x="387" y="677" type="line"/>
			<point x="472" y="689" type="line"/>
			<point x="473" y="700" type="line"/>
			<point x="339" y="700" type="line"/>
			<point x="312" y="-5" type="line" smooth="yes"/>
			<point x="310" y="-62"/>
			<point x="308" y="-97"/>
		</contour>
		<contour>
			<point x="262" y="274" type="line"/>
			<point x="289" y="700" type="line"/>
			<point x="257" y="700" type="line" smooth="yes"/>
			<point x="139" y="700"/>
			<point x="69" y="608"/>
			<point x="69" y="464" type="curve" smooth="yes"/>
			<point x="69" y="340"/>
			<point x="121" y="274"/>
			<point x="227" y="274" type="curve" smooth="yes"/>
		</contour>
	</outline>
</glyph>
<glyph name="periodcentered" format="2">
	<unicode hex="00B7"/>
	<advance width="231"/>
	<outline>
		<contour>
			<point x="80" y="305" type="curve" smooth="yes"/>
			<point x="80" y="275"/>
			<point x="97" y="257"/>
			<point x="121" y="257" type="curve" smooth="yes"/>
			<point x="147" y="257"/>
			<point x="163" y="280"/>
			<point x="163" y="308" type="curve" smooth="yes"/>
			<point x="163" y="339"/>
			<point x="148" y="357"/>
			<point x="122" y="357" type="curve" smooth="yes"/>
			<point x="97" y="357"/>
			<point x="80" y="336"/>
		</contour>
	</outline>
</glyph>
<glyph name="cedilla" format="2">
	<unicode hex="00B8"/>
	<advance width="503"/>
	<outline>
		<contour>
			<point x="259" y="4" type="line"/>
			<point x="243" y="4" type="line"/>
			<point x="209" y="-77" type="line"/>
			<point x="215" y="-84" type="line"/>
			<point x="263" y="-75"/>
			<point x="293" y="-94"/>
			<point x="293" y="-141" type="curve" smooth="yes"/>
			<point x="293" y="-187"/>
			<point x="252" y="-199"/>
			<point x="224" y="-199" type="curve" smooth="yes"/>
			<point x="206" y="-199"/>
			<point x="189" y="-196"/>
			<point x="165" y="-185" type="curve"/>
			<point x="161" y="-192" type="line"/>
			<point x="181" y="-210"/>
			<point x="205" y="-219"/>
			<point x="232" y="-219" type="curve" smooth="yes"/>
			<point x="286" y="-219"/>
			<point x="331" y="-186"/>
			<point x="331" y="-137" type="curve" smooth="yes"/>
			<point x="331" y="-85"/>
			<point x="288" y="-55"/>
			<point x="228" y="-69" type="curve"/>
		</contour>
	</outline>
	<anchor name="_bottom" x="248" y="-30"/>
</glyph>
<glyph name="onesuperior" format="2">
	<unicode hex="00B9"/>
	<advance width="260"/>
	<outline>
		<contour>
			<point x="166" y="396" type="line"/>
			<point x="186" y="830" type="line"/>
			<point x="172" y="836" type="line"/>
			<point x="58" y="811" type="line"/>
			<point x="56" y="801" type="line"/>
			<point x="141" y="801" type="line"/>
			<point x="123" y="396" type="line"/>
			<point x="43" y="384" type="line"/>
			<point x="42" y="374" type="line"/>
			<point x="242" y="374" type="line"/>
			<point x="243" y="384" type="line"/>
		</contour>
	</outline>
</glyph>
<glyph name="Eth" format="2">
	<unicode hex="00D0"/>
	<advance width="677"/>
	<outline>
		<contour>
			<point x="327" y="730" type="curve" smooth="yes"/>
			<point x="80" y="730" type="line"/>
			<point x="79" y="720" type="line"/>
			<point x="164" y="709" type="line"/>
			<point x="151" y="383" type="line"/>
			<point x="55" y="383" type="line"/>
			<point x="53" y="365" type="line"/>
			<point x="151" y="365" type="line"/>
			<point x="137" y="21" type="line"/>
			<point x="52" y="10" type="line"/>
			<point x="51" y="0" type="line"/>
			<point x="234" y="0" type="line" smooth="yes"/>
			<point x="489" y="0"/>
			<point x="634" y="147"/>
			<point x="634" y="407" type="curve" smooth="yes"/>
			<point x="634" y="619"/>
			<point x="519" y="730"/>
		</contour>
		<contour>
			<point x="225" y="18" type="curve" smooth="yes"/>
			<point x="186" y="18" type="line"/>
			<point x="200" y="365" type="line"/>
			<point x="390" y="365" type="line"/>
			<point x="392" y="383" type="line"/>
			<point x="200" y="383" type="line"/>
			<point x="213" y="712" type="line"/>
			<point x="327" y="712" type="line" smooth="yes"/>
			<point x="468" y="712"/>
			<point x="583" y="620"/>
			<point x="583" y="398" type="curve" smooth="yes"/>
			<point x="583" y="147"/>
			<point x="453" y="18"/>
		</contour>
	</outline>
	<anchor name="bottom" x="319" y="-30"/>
	<anchor name="top" x="343" y="730"/>
</glyph>
<glyph name="multiply" format="2">
	<unicode hex="00D7"/>
	<advance width="582"/>
	<outline>
		<contour>
			<point x="443" y="140" type="line"/>
			<point x="455" y="152" type="line"/>
			<point x="305" y="308" type="line"/>
			<point x="460" y="457" type="line"/>
			<point x="449" y="469" type="line"/>
			<point x="294" y="320" type="line"/>
			<point x="142" y="477" type="line"/>
			<point x="130" y="465" type="line"/>
			<point x="281" y="308" type="line"/>
			<point x="120" y="153" type="line"/>
			<point x="131" y="141" type="line"/>
			<point x="293" y="296" type="line"/>
		</contour>
	</outline>
</glyph>
<glyph name="Thorn" format="2">
	<unicode hex="00DE"/>
	<advance width="543"/>
	<outline>
		<contour>
			<point x="51" y="0" type="line"/>
			<point x="292" y="0" type="line"/>
			<point x="293" y="10" type="line"/>
			<point x="186" y="22" type="line"/>
			<point x="192" y="157" type="line"/>
			<point x="273" y="157" type="line" smooth="yes"/>
			<point x="413" y="157"/>
			<point x="502" y="245"/>
			<point x="502" y="372" type="curve" smooth="yes"/>
			<point x="502" y="498"/>
			<point x="434" y="578"/>
			<point x="264" y="578" type="curve" smooth="yes"/>
			<point x="208" y="578" type="line"/>
			<point x="213" y="707" type="line"/>
			<point x="298" y="719" type="line"/>
			<point x="298" y="730" type="line"/>
			<point x="80" y="730" type="line"/>
			<point x="79" y="718" type="line"/>
			<point x="164" y="707" type="line"/>
			<point x="137" y="23" type="line"/>
			<point x="52" y="10" type="line"/>
		</contour>
		<contour>
			<point x="192" y="176" type="line"/>
			<point x="207" y="559" type="line"/>
			<point x="267" y="559" type="line" smooth="yes"/>
			<point x="387" y="559"/>
			<point x="451" y="518"/>
			<point x="451" y="371" type="curve" smooth="yes"/>
			<point x="451" y="230"/>
			<point x="392" y="176"/>
			<point x="273" y="176" type="curve" smooth="yes"/>
		</contour>
	</outline>
</glyph>
<glyph name="ae" format="2">
	<unicode hex="00E6"/>
	<advance width="736"/>
	<outline>
		<contour>
			<point x="572" y="523" type="curve" smooth="yes"/>
			<point x="522" y="523"/>
			<point x="477" y="498"/>
			<point x="447" y="472" type="curve"/>
			<point x="455" y="518" type="line"/>
			<point x="452" y="523" type="line"/>
			<point x="401" y="491" type="line"/>
			<point x="362" y="509"/>
			<point x="324" y="523"/>
			<point x="276" y="523" type="curve" smooth="yes"/>
			<point x="147" y="523"/>
			<point x="44" y="398"/>
			<point x="44" y="206" type="curve" smooth="yes"/>
			<point x="44" y="90"/>
			<point x="85" y="-14"/>
			<point x="191" y="-14" type="curve" smooth="yes"/>
			<point x="276" y="-14"/>
			<point x="326" y="61"/>
			<point x="357" y="216" type="curve"/>
			<point x="359" y="92"/>
			<point x="410" y="-14"/>
			<point x="530" y="-14" type="curve" smooth="yes"/>
			<point x="609" y="-14"/>
			<point x="658" y="25"/>
			<point x="696" y="74" type="curve"/>
			<point x="686" y="82" type="line"/>
			<point x="641" y="26"/>
			<point x="596" y="10"/>
			<point x="546" y="10" type="curve" smooth="yes"/>
			<point x="455" y="10"/>
			<point x="408" y="78"/>
			<point x="410" y="238" type="curve"/>
			<point x="533" y="273" type="line" smooth="yes"/>
			<point x="624" y="299"/>
			<point x="695" y="337"/>
			<point x="695" y="414" type="curve" smooth="yes"/>
			<point x="695" y="479"/>
			<point x="655" y="523"/>
		</contour>
		<contour>
			<point x="200" y="24" type="curve" smooth="yes"/>
			<point x="132" y="24"/>
			<point x="97" y="86"/>
			<point x="97" y="216" type="curve" smooth="yes"/>
			<point x="97" y="408"/>
			<point x="173" y="505"/>
			<point x="273" y="505" type="curve" smooth="yes"/>
			<point x="321" y="505"/>
			<point x="350" y="497"/>
			<point x="396" y="472" type="curve"/>
			<point x="355" y="287" type="line" smooth="yes"/>
			<point x="308" y="74"/>
			<point x="272" y="24"/>
		</contour>
		<contour>
			<point x="646" y="414" type="curve" smooth="yes"/>
			<point x="646" y="340"/>
			<point x="601" y="310"/>
			<point x="510" y="283" type="curve" smooth="yes"/>
			<point x="410" y="253" type="line"/>
			<point x="415" y="437"/>
			<point x="486" y="505"/>
			<point x="563" y="505" type="curve" smooth="yes"/>
			<point x="615" y="505"/>
			<point x="646" y="480"/>
		</contour>
	</outline>
	<anchor name="top" x="446" y="550"/>
</glyph>
<glyph name="ccedilla" format="2">
	<unicode hex="00E7"/>
	<advance width="428"/>
	<outline>
		<contour>
			<point x="206" y="-219" type="curve" smooth="yes"/>
			<point x="260" y="-219"/>
			<point x="305" y="-186"/>
			<point x="305" y="-137" type="curve" smooth="yes"/>
			<point x="305" y="-85"/>
			<point x="262" y="-55"/>
			<point x="202" y="-69" type="curve"/>
			<point x="225" y="-14" type="line"/>
			<point x="300" y="-11"/>
			<point x="346" y="27"/>
			<point x="383" y="74" type="curve"/>
			<point x="373" y="82" type="line"/>
			<point x="329" y="28"/>
			<point x="282" y="10"/>
			<point x="233" y="10" type="curve" smooth="yes"/>
			<point x="141" y="10"/>
			<point x="97" y="83"/>
			<point x="97" y="226" type="curve" smooth="yes"/>
			<point x="97" y="417"/>
			<point x="160" y="505"/>
			<point x="258" y="505" type="curve" smooth="yes"/>
			<point x="322" y="505"/>
			<point x="350" y="475"/>
			<point x="324" y="430" type="curve" smooth="yes"/>
			<point x="313" y="411" type="line"/>
			<point x="321" y="398"/>
			<point x="335" y="389"/>
			<point x="352" y="389" type="curve" smooth="yes"/>
			<point x="373" y="389"/>
			<point x="390" y="406"/>
			<point x="390" y="435" type="curve" smooth="yes"/>
			<point x="390" y="476"/>
			<point x="348" y="523"/>
			<point x="261" y="523" type="curve" smooth="yes"/>
			<point x="125" y="523"/>
			<point x="44" y="401"/>
			<point x="44" y="223" type="curve" smooth="yes"/>
			<point x="44" y="97"/>
			<point x="94" y="-9"/>
			<point x="210" y="-14" type="curve"/>
			<point x="183" y="-77" type="line"/>
			<point x="189" y="-84" type="line"/>
			<point x="237" y="-75"/>
			<point x="267" y="-94"/>
			<point x="267" y="-141" type="curve" smooth="yes"/>
			<point x="267" y="-187"/>
			<point x="226" y="-199"/>
			<point x="198" y="-199" type="curve" smooth="yes"/>
			<point x="180" y="-199"/>
			<point x="163" y="-196"/>
			<point x="139" y="-185" type="curve"/>
			<point x="135" y="-192" type="line"/>
			<point x="155" y="-210"/>
			<point x="179" y="-219"/>
		</contour>
	</outline>
</glyph>
<glyph name="oslash" format="2">
	<unicode hex="00F8"/>
	<advance width="490"/>
	<outline>
		<contour>
			<point x="17" y="-14" type="line"/>
			<point x="36" y="-14" type="line"/>
			<point x="93" y="56" type="line"/>
			<point x="124" y="12"/>
			<point x="170" y="-14"/>
			<point x="228" y="-14" type="curve" smooth="yes"/>
			<point x="381" y="-14"/>
			<point x="445" y="126"/>
			<point x="445" y="279" type="curve" smooth="yes"/>
			<point x="445" y="345"/>
			<point x="430" y="399"/>
			<point x="405" y="440" type="curve"/>
			<point x="472" y="523" type="line"/>
			<point x="451" y="523" type="line"/>
			<point x="395" y="454" type="line"/>
			<point x="362" y="499"/>
			<point x="314" y="523"/>
			<point x="259" y="523" type="curve" smooth="yes"/>
			<point x="105" y="523"/>
			<point x="45" y="392"/>
			<point x="45" y="234" type="curve" smooth="yes"/>
			<point x="45" y="168"/>
			<point x="59" y="112"/>
			<point x="84" y="69" type="curve"/>
		</contour>
		<contour>
			<point x="233" y="4" type="curve" smooth="yes"/>
			<point x="180" y="4"/>
			<point x="142" y="33"/>
			<point x="120" y="89" type="curve"/>
			<point x="377" y="406" type="line"/>
			<point x="387" y="372"/>
			<point x="392" y="329"/>
			<point x="392" y="278" type="curve" smooth="yes"/>
			<point x="392" y="117"/>
			<point x="348" y="4"/>
		</contour>
		<contour>
			<point x="114" y="106" type="line"/>
			<point x="103" y="140"/>
			<point x="98" y="182"/>
			<point x="98" y="232" type="curve" smooth="yes"/>
			<point x="98" y="391"/>
			<point x="138" y="505"/>
			<point x="254" y="505" type="curve" smooth="yes"/>
			<point x="313" y="505"/>
			<point x="350" y="478"/>
			<point x="371" y="424" type="curve"/>
		</contour>
	</outline>
</glyph>
<glyph name="Aogonek" format="2">
	<unicode hex="0104"/>
	<advance width="644"/>
	<outline>
		<contour>
			<point x="475" y="-224" type="curve" smooth="yes"/>
			<point x="505" y="-224"/>
			<point x="545" y="-214"/>
			<point x="579" y="-156" type="curve"/>
			<point x="570" y="-150" type="line"/>
			<point x="543" y="-182"/>
			<point x="521" y="-190"/>
			<point x="495" y="-190" type="curve" smooth="yes"/>
			<point x="470" y="-190"/>
			<point x="456" y="-177"/>
			<point x="456" y="-144" type="curve" smooth="yes"/>
			<point x="456" y="-85"/>
			<point x="498" y="-44"/>
			<point x="547" y="0" type="curve"/>
			<point x="633" y="0" type="line"/>
			<point x="634" y="10" type="line"/>
			<point x="554" y="21" type="line"/>
			<point x="369" y="731" type="line"/>
			<point x="333" y="728" type="line"/>
			<point x="85" y="21" type="line"/>
			<point x="12" y="10" type="line"/>
			<point x="11" y="0" type="line"/>
			<point x="189" y="0" type="line"/>
			<point x="190" y="10" type="line"/>
			<point x="104" y="21" type="line"/>
			<point x="191" y="266" type="line"/>
			<point x="443" y="266" type="line"/>
			<point x="505" y="21" type="line"/>
			<point x="420" y="10" type="line"/>
			<point x="419" y="0" type="line"/>
			<point x="529" y="0" type="line"/>
			<point x="469" y="-39"/>
			<point x="407" y="-93"/>
			<point x="407" y="-153" type="curve" smooth="yes"/>
			<point x="407" y="-196"/>
			<point x="433" y="-224"/>
		</contour>
		<contour>
			<point x="196" y="282" type="line"/>
			<point x="335" y="684" type="line"/>
			<point x="337" y="684" type="line"/>
			<point x="438" y="282" type="line"/>
		</contour>
	</outline>
</glyph>
<glyph name="aogonek" format="2">
	<unicode hex="0105"/>
	<advance width="533"/>
	<outline>
		<contour>
			<point x="191" y="-14" type="curve" smooth="yes"/>
			<point x="276" y="-14"/>
			<point x="321" y="63"/>
			<point x="347" y="174" type="curve" smooth="yes"/>
			<point x="379" y="309" type="line"/>
			<point x="381" y="309" type="line"/>
			<point x="369" y="73" type="line" smooth="yes"/>
			<point x="366" y="9"/>
			<point x="385" y="-16"/>
			<point x="442" y="-14" type="curve"/>
			<point x="383" y="-54"/>
			<point x="331" y="-96"/>
			<point x="331" y="-153" type="curve" smooth="yes"/>
			<point x="331" y="-196"/>
			<point x="357" y="-224"/>
			<point x="399" y="-224" type="curve" smooth="yes"/>
			<point x="429" y="-224"/>
			<point x="469" y="-214"/>
			<point x="503" y="-156" type="curve"/>
			<point x="494" y="-150" type="line"/>
			<point x="467" y="-182"/>
			<point x="445" y="-190"/>
			<point x="419" y="-190" type="curve" smooth="yes"/>
			<point x="394" y="-190"/>
			<point x="380" y="-177"/>
			<point x="380" y="-144" type="curve" smooth="yes"/>
			<point x="380" y="-81"/>
			<point x="434" y="-30"/>
			<point x="524" y="26" type="curve"/>
			<point x="516" y="37" type="line"/>
			<point x="494" y="20"/>
			<point x="469" y="11"/>
			<point x="447" y="11" type="curve" smooth="yes"/>
			<point x="427" y="11"/>
			<point x="417" y="22"/>
			<point x="418" y="59" type="curve" smooth="yes"/>
			<point x="434" y="508" type="line"/>
			<point x="427" y="513" type="line"/>
			<point x="396" y="493" type="line"/>
			<point x="362" y="509"/>
			<point x="324" y="523"/>
			<point x="276" y="523" type="curve" smooth="yes"/>
			<point x="147" y="523"/>
			<point x="44" y="398"/>
			<point x="44" y="206" type="curve" smooth="yes"/>
			<point x="44" y="90"/>
			<point x="85" y="-14"/>
		</contour>
		<contour>
			<point x="200" y="24" type="curve" smooth="yes"/>
			<point x="132" y="24"/>
			<point x="97" y="86"/>
			<point x="97" y="216" type="curve" smooth="yes"/>
			<point x="97" y="408"/>
			<point x="173" y="505"/>
			<point x="273" y="505" type="curve" smooth="yes"/>
			<point x="321" y="505"/>
			<point x="350" y="497"/>
			<point x="396" y="472" type="curve"/>
			<point x="355" y="287" type="line" smooth="yes"/>
			<point x="308" y="74"/>
			<point x="272" y="24"/>
		</contour>
	</outline>
</glyph>
<glyph name="Eogonek" format="2">
	<unicode hex="0118"/>
	<advance width="547"/>
	<outline>
		<contour>
			<point x="51" y="0" type="line"/>
			<point x="460" y="0" type="line"/>
			<point x="349" y="-46"/>
			<point x="297" y="-101"/>
			<point x="297" y="-153" type="curve" smooth="yes"/>
			<point x="297" y="-196"/>
			<point x="323" y="-224"/>
			<point x="365" y="-224" type="curve" smooth="yes"/>
			<point x="395" y="-224"/>
			<point x="435" y="-214"/>
			<point x="469" y="-156" type="curve"/>
			<point x="460" y="-150" type="line"/>
			<point x="433" y="-182"/>
			<point x="411" y="-190"/>
			<point x="385" y="-190" type="curve" smooth="yes"/>
			<point x="361" y="-190"/>
			<point x="346" y="-177"/>
			<point x="346" y="-138" type="curve" smooth="yes"/>
			<point x="346" y="-71"/>
			<point x="399" y="-40"/>
			<point x="486" y="0" type="curve"/>
			<point x="510" y="165" type="line"/>
			<point x="497" y="165" type="line"/>
			<point x="477" y="98" type="line" smooth="yes"/>
			<point x="457" y="31"/>
			<point x="427" y="18"/>
			<point x="364" y="18" type="curve" smooth="yes"/>
			<point x="186" y="18" type="line"/>
			<point x="201" y="371" type="line"/>
			<point x="443" y="371" type="line"/>
			<point x="445" y="389" type="line"/>
			<point x="202" y="389" type="line"/>
			<point x="213" y="712" type="line"/>
			<point x="369" y="712" type="line" smooth="yes"/>
			<point x="423" y="712"/>
			<point x="450" y="703"/>
			<point x="469" y="637" type="curve" smooth="yes"/>
			<point x="490" y="566" type="line"/>
			<point x="502" y="568" type="line"/>
			<point x="488" y="730" type="line"/>
			<point x="80" y="730" type="line"/>
			<point x="79" y="720" type="line"/>
			<point x="164" y="709" type="line"/>
			<point x="137" y="21" type="line"/>
			<point x="52" y="10" type="line"/>
		</contour>
	</outline>
</glyph>
<glyph name="Iogonek" format="2">
	<unicode hex="012E"/>
	<advance width="316"/>
	<outline>
		<contour>
			<point x="51" y="0" type="line"/>
			<point x="175" y="0" type="line"/>
			<point x="115" y="-39"/>
			<point x="53" y="-93"/>
			<point x="53" y="-153" type="curve" smooth="yes"/>
			<point x="53" y="-196"/>
			<point x="79" y="-224"/>
			<point x="121" y="-224" type="curve" smooth="yes"/>
			<point x="151" y="-224"/>
			<point x="191" y="-214"/>
			<point x="225" y="-156" type="curve"/>
			<point x="216" y="-150" type="line"/>
			<point x="189" y="-182"/>
			<point x="167" y="-190"/>
			<point x="141" y="-190" type="curve" smooth="yes"/>
			<point x="116" y="-190"/>
			<point x="102" y="-177"/>
			<point x="102" y="-144" type="curve" smooth="yes"/>
			<point x="102" y="-85"/>
			<point x="144" y="-44"/>
			<point x="193" y="0" type="curve"/>
			<point x="268" y="0" type="line"/>
			<point x="269" y="10" type="line"/>
			<point x="186" y="22" type="line"/>
			<point x="213" y="707" type="line"/>
			<point x="298" y="719" type="line"/>
			<point x="298" y="730" type="line"/>
			<point x="80" y="730" type="line"/>
			<point x="79" y="718" type="line"/>
			<point x="164" y="707" type="line"/>
			<point x="137" y="23" type="line"/>
			<point x="52" y="10" type="line"/>
		</contour>
	</outline>
</glyph>
<glyph name="iogonek" format="2">
	<unicode hex="012F"/>
	<advance width="266"/>
	<outline>
		<contour>
			<point x="94" y="60" type="line" smooth="yes"/>
			<point x="90" y="7"/>
			<point x="112" y="-20"/>
			<point x="165" y="-13" type="curve"/>
			<point x="109" y="-50"/>
			<point x="53" y="-99"/>
			<point x="53" y="-153" type="curve" smooth="yes"/>
			<point x="53" y="-196"/>
			<point x="79" y="-224"/>
			<point x="121" y="-224" type="curve" smooth="yes"/>
			<point x="151" y="-224"/>
			<point x="191" y="-214"/>
			<point x="225" y="-156" type="curve"/>
			<point x="216" y="-150" type="line"/>
			<point x="189" y="-182"/>
			<point x="167" y="-190"/>
			<point x="141" y="-190" type="curve" smooth="yes"/>
			<point x="116" y="-190"/>
			<point x="102" y="-177"/>
			<point x="102" y="-144" type="curve" smooth="yes"/>
			<point x="102" y="-96"/>
			<point x="137" y="-54"/>
			<point x="190" y="-13" type="curve" smooth="yes"/>
			<point x="210" y="2"/>
			<point x="225" y="8"/>
			<point x="242" y="22" type="curve"/>
			<point x="236" y="31" type="line"/>
			<point x="211" y="16"/>
			<point x="189" y="12"/>
			<point x="169" y="12" type="curve" smooth="yes"/>
			<point x="150" y="12"/>
			<point x="139" y="21"/>
			<point x="142" y="56" type="curve" smooth="yes"/>
			<point x="171" y="445" type="line" smooth="yes"/>
			<point x="174" y="490"/>
			<point x="166" y="523"/>
			<point x="118" y="523" type="curve" smooth="yes"/>
			<point x="83" y="523"/>
			<point x="58" y="512"/>
			<point x="24" y="491" type="curve"/>
			<point x="29" y="481" type="line"/>
			<point x="58" y="495"/>
			<point x="76" y="501"/>
			<point x="95" y="501" type="curve" smooth="yes"/>
			<point x="120" y="501"/>
			<point x="125" y="483"/>
			<point x="122" y="445" type="curve" smooth="yes"/>
		</contour>
		<contour>
			<point x="88" y="690" type="curve" smooth="yes"/>
			<point x="88" y="661"/>
			<point x="105" y="643"/>
			<point x="128" y="643" type="curve" smooth="yes"/>
			<point x="153" y="643"/>
			<point x="169" y="665"/>
			<point x="169" y="693" type="curve" smooth="yes"/>
			<point x="169" y="723"/>
			<point x="154" y="740"/>
			<point x="129" y="740" type="curve" smooth="yes"/>
			<point x="105" y="740"/>
			<point x="88" y="720"/>
		</contour>
	</outline>
</glyph>
<glyph name="idotless" format="2">
	<unicode hex="0131"/>
	<advance width="266"/>
	<outline>
		<contour>
			<point x="122" y="445" type="curve" smooth="yes"/>
			<point x="94" y="60" type="line" smooth="yes"/>
			<point x="91" y="18"/>
			<point x="103" y="-14"/>
			<point x="150" y="-14" type="curve" smooth="yes"/>
			<point x="186" y="-14"/>
			<point x="215" y="1"/>
			<point x="242" y="22" type="curve"/>
			<point x="236" y="31" type="line"/>
			<point x="211" y="16"/>
			<point x="189" y="12"/>
			<point x="169" y="12" type="curve" smooth="yes"/>
			<point x="150" y="12"/>
			<point x="139" y="21"/>
			<point x="142" y="56" type="curve" smooth="yes"/>
			<point x="171" y="445" type="line" smooth="yes"/>
			<point x="174" y="490"/>
			<point x="166" y="523"/>
			<point x="118" y="523" type="curve" smooth="yes"/>
			<point x="83" y="523"/>
			<point x="58" y="512"/>
			<point x="24" y="491" type="curve"/>
			<point x="29" y="481" type="line"/>
			<point x="58" y="495"/>
			<point x="76" y="501"/>
			<point x="95" y="501" type="curve" smooth="yes"/>
			<point x="120" y="501"/>
			<point x="125" y="483"/>
		</contour>
	</outline>
	<anchor name="bottom" x="154" y="-30"/>
	<anchor name="top" x="119" y="550"/>
</glyph>
<glyph name="kgreenlandic" format="2">
	<unicode hex="0138"/>
	<advance width="499"/>
	<outline>
		<contour>
			<point x="102" y="0" type="line"/>
			<point x="151" y="0" type="line"/>
			<point x="162" y="263" type="line"/>
			<point x="187" y="270"/>
			<point x="207" y="277"/>
			<point x="232" y="286" type="curve"/>
			<point x="343" y="64" type="line" smooth="yes"/>
			<point x="372" y="6"/>
			<point x="396" y="-14"/>
			<point x="434" y="-14" type="curve" smooth="yes"/>
			<point x="467" y="-14"/>
			<point x="499" y="5"/>
			<point x="521" y="23" type="curve"/>
			<point x="515" y="31" type="line"/>
			<point x="493" y="18"/>
			<point x="474" y="12"/>
			<point x="458" y="12" type="curve" smooth="yes"/>
			<point x="428" y="12"/>
			<point x="416" y="29"/>
			<point x="384" y="91" type="curve" smooth="yes"/>
			<point x="275" y="303" type="line"/>
			<point x="289" y="309"/>
			<point x="321" y="326"/>
			<point x="351" y="345" type="curve" smooth="yes"/>
			<point x="410" y="382"/>
			<point x="439" y="420"/>
			<point x="439" y="467" type="curve" smooth="yes"/>
			<point x="439" y="497"/>
			<point x="423" y="523"/>
			<point x="391" y="523" type="curve" smooth="yes"/>
			<point x="366" y="523"/>
			<point x="346" y="502"/>
			<point x="342" y="473" type="curve"/>
			<point x="367" y="459" type="line" smooth="yes"/>
			<point x="408" y="436"/>
			<point x="402" y="397"/>
			<point x="334" y="354" type="curve" smooth="yes"/>
			<point x="283" y="322"/>
			<point x="221" y="297"/>
			<point x="163" y="282" type="curve"/>
			<point x="169" y="430" type="line" smooth="yes"/>
			<point x="172" y="493"/>
			<point x="161" y="523"/>
			<point x="115" y="523" type="curve" smooth="yes"/>
			<point x="79" y="523"/>
			<point x="48" y="508"/>
			<point x="21" y="491" type="curve"/>
			<point x="26" y="481" type="line"/>
			<point x="55" y="496"/>
			<point x="76" y="501"/>
			<point x="92" y="501" type="curve" smooth="yes"/>
			<point x="112" y="501"/>
			<point x="124" y="490"/>
			<point x="123" y="458" type="curve" smooth="yes"/>
		</contour>
	</outline>
</glyph>
<glyph name="Lslash" format="2">
	<unicode hex="0141"/>
	<advance width="524"/>
	<outline>
		<contour>
			<point x="51" y="0" type="line"/>
			<point x="471" y="0" type="line"/>
			<point x="494" y="155" type="line"/>
			<point x="481" y="155" type="line"/>
			<point x="471" y="121" type="line" smooth="yes"/>
			<point x="446" y="35"/>
			<point x="426" y="18"/>
			<point x="356" y="18" type="curve" smooth="yes"/>
			<point x="186" y="18" type="line"/>
			<point x="199" y="342" type="line"/>
			<point x="392" y="461" type="line"/>
			<point x="394" y="483" type="line"/>
			<point x="200" y="364" type="line"/>
			<point x="213" y="709" type="line"/>
			<point x="307" y="720" type="line"/>
			<point x="308" y="730" type="line"/>
			<point x="80" y="730" type="line"/>
			<point x="79" y="720" type="line"/>
			<point x="164" y="709" type="line"/>
			<point x="150" y="340" type="line"/>
			<point x="39" y="272" type="line"/>
			<point x="37" y="251" type="line"/>
			<point x="149" y="318" type="line"/>
			<point x="137" y="21" type="line"/>
			<point x="52" y="10" type="line"/>
		</contour>
	</outline>
</glyph>
<glyph name="lslash" format="2">
	<unicode hex="0142"/>
	<advance width="254"/>
	<outline>
		<contour>
			<point x="144" y="-14" type="curve" smooth="yes"/>
			<point x="181" y="-14"/>
			<point x="214" y="4"/>
			<point x="236" y="22" type="curve"/>
			<point x="230" y="31" type="line"/>
			<point x="208" y="18"/>
			<point x="187" y="12"/>
			<point x="164" y="12" type="curve" smooth="yes"/>
			<point x="140" y="12"/>
			<point x="135" y="27"/>
			<point x="136" y="57" type="curve" smooth="yes"/>
			<point x="152" y="410" type="line"/>
			<point x="248" y="466" type="line"/>
			<point x="250" y="485" type="line"/>
			<point x="152" y="429" type="line"/>
			<point x="167" y="759" type="line"/>
			<point x="159" y="767" type="line"/>
			<point x="36" y="767" type="line"/>
			<point x="35" y="760" type="line"/>
			<point x="119" y="742" type="line"/>
			<point x="104" y="407" type="line"/>
			<point x="9" y="356" type="line"/>
			<point x="7" y="337" type="line"/>
			<point x="103" y="388" type="line"/>
			<point x="88" y="63" type="line" smooth="yes"/>
			<point x="86" y="14"/>
			<point x="100" y="-14"/>
		</contour>
	</outline>
</glyph>
<glyph name="Scedilla" format="2">
	<unicode hex="015E"/>
	<advance width="497"/>
	<outline>
		<contour>
			<point x="219" y="-223" type="curve" smooth="yes"/>
			<point x="273" y="-223"/>
			<point x="318" y="-190"/>
			<point x="318" y="-141" type="curve" smooth="yes"/>
			<point x="318" y="-89"/>
			<point x="275" y="-59"/>
			<point x="215" y="-73" type="curve"/>
			<point x="240" y="-14" type="line"/>
			<point x="377" y="-10"/>
			<point x="448" y="79"/>
			<point x="448" y="179" type="curve" smooth="yes"/>
			<point x="448" y="294"/>
			<point x="372" y="350"/>
			<point x="268" y="406" type="curve" smooth="yes"/>
			<point x="157" y="466"/>
			<point x="120" y="516"/>
			<point x="120" y="586" type="curve" smooth="yes"/>
			<point x="120" y="657"/>
			<point x="174" y="725"/>
			<point x="289" y="725" type="curve" smooth="yes"/>
			<point x="376" y="725"/>
			<point x="401" y="684"/>
			<point x="377" y="639" type="curve" smooth="yes"/>
			<point x="362" y="611" type="line"/>
			<point x="374" y="599"/>
			<point x="390" y="588"/>
			<point x="411" y="588" type="curve" smooth="yes"/>
			<point x="437" y="588"/>
			<point x="455" y="606"/>
			<point x="455" y="638" type="curve" smooth="yes"/>
			<point x="455" y="699"/>
			<point x="381" y="744"/>
			<point x="290" y="744" type="curve" smooth="yes"/>
			<point x="152" y="744"/>
			<point x="86" y="667"/>
			<point x="86" y="563" type="curve" smooth="yes"/>
			<point x="86" y="490"/>
			<point x="121" y="429"/>
			<point x="254" y="360" type="curve" smooth="yes"/>
			<point x="364" y="303"/>
			<point x="414" y="256"/>
			<point x="414" y="164" type="curve" smooth="yes"/>
			<point x="414" y="71"/>
			<point x="343" y="5"/>
			<point x="231" y="5" type="curve" smooth="yes"/>
			<point x="143" y="5"/>
			<point x="104" y="51"/>
			<point x="132" y="110" type="curve" smooth="yes"/>
			<point x="147" y="141" type="line"/>
			<point x="132" y="153"/>
			<point x="119" y="159"/>
			<point x="101" y="159" type="curve" smooth="yes"/>
			<point x="74" y="159"/>
			<point x="52" y="139"/>
			<point x="52" y="103" type="curve" smooth="yes"/>
			<point x="52" y="40"/>
			<point x="119" y="-12"/>
			<point x="224" y="-14" type="curve"/>
			<point x="196" y="-81" type="line"/>
			<point x="202" y="-88" type="line"/>
			<point x="250" y="-79"/>
			<point x="280" y="-98"/>
			<point x="280" y="-145" type="curve" smooth="yes"/>
			<point x="280" y="-191"/>
			<point x="239" y="-203"/>
			<point x="211" y="-203" type="curve" smooth="yes"/>
			<point x="193" y="-203"/>
			<point x="176" y="-200"/>
			<point x="152" y="-189" type="curve"/>
			<point x="148" y="-196" type="line"/>
			<point x="168" y="-214"/>
			<point x="192" y="-223"/>
		</contour>
	</outline>
</glyph>
<glyph name="Tcedilla" format="2">
	<unicode hex="0162"/>
	<advance width="586"/>
	<outline>
		<contour>
			<point x="269" y="-219" type="curve" smooth="yes"/>
			<point x="323" y="-219"/>
			<point x="368" y="-186"/>
			<point x="368" y="-137" type="curve" smooth="yes"/>
			<point x="368" y="-85"/>
			<point x="325" y="-55"/>
			<point x="265" y="-69" type="curve"/>
			<point x="294" y="0" type="line"/>
			<point x="395" y="0" type="line"/>
			<point x="396" y="10" type="line"/>
			<point x="313" y="22" type="line"/>
			<point x="340" y="712" type="line"/>
			<point x="436" y="712" type="line" smooth="yes"/>
			<point x="495" y="712"/>
			<point x="518" y="698"/>
			<point x="536" y="637" type="curve" smooth="yes"/>
			<point x="557" y="566" type="line"/>
			<point x="569" y="568" type="line"/>
			<point x="555" y="730" type="line"/>
			<point x="76" y="730" type="line"/>
			<point x="53" y="566" type="line"/>
			<point x="65" y="564" type="line"/>
			<point x="82" y="621" type="line" smooth="yes"/>
			<point x="105" y="699"/>
			<point x="127" y="712"/>
			<point x="188" y="712" type="curve" smooth="yes"/>
			<point x="291" y="712" type="line"/>
			<point x="264" y="23" type="line"/>
			<point x="179" y="10" type="line"/>
			<point x="178" y="0" type="line"/>
			<point x="278" y="0" type="line"/>
			<point x="246" y="-77" type="line"/>
			<point x="252" y="-84" type="line"/>
			<point x="300" y="-75"/>
			<point x="330" y="-94"/>
			<point x="330" y="-141" type="curve" smooth="yes"/>
			<point x="330" y="-187"/>
			<point x="289" y="-199"/>
			<point x="261" y="-199" type="curve" smooth="yes"/>
			<point x="243" y="-199"/>
			<point x="226" y="-196"/>
			<point x="202" y="-185" type="curve"/>
			<point x="198" y="-192" type="line"/>
			<point x="218" y="-210"/>
			<point x="242" y="-219"/>
		</contour>
	</outline>
</glyph>
<glyph name="tcedilla" format="2">
	<unicode hex="0163"/>
	<advance width="340"/>
	<outline>
		<contour>
			<point x="181" y="-219" type="curve" smooth="yes"/>
			<point x="235" y="-219"/>
			<point x="280" y="-186"/>
			<point x="280" y="-137" type="curve" smooth="yes"/>
			<point x="280" y="-85"/>
			<point x="237" y="-55"/>
			<point x="177" y="-69" type="curve"/>
			<point x="200" y="-14" type="line"/>
			<point x="249" y="-15"/>
			<point x="296" y="10"/>
			<point x="328" y="56" type="curve"/>
			<point x="320" y="63" type="line"/>
			<point x="289" y="30"/>
			<point x="256" y="12"/>
			<point x="212" y="12" type="curve" smooth="yes"/>
			<point x="153" y="12"/>
			<point x="139" y="50"/>
			<point x="142" y="109" type="curve" smooth="yes"/>
			<point x="160" y="490" type="line"/>
			<point x="319" y="490" type="line"/>
			<point x="320" y="509" type="line"/>
			<point x="160" y="509" type="line"/>
			<point x="168" y="653" type="line"/>
			<point x="155" y="653" type="line"/>
			<point x="116" y="511" type="line"/>
			<point x="35" y="502" type="line"/>
			<point x="35" y="490" type="line"/>
			<point x="113" y="490" type="line"/>
			<point x="94" y="132" type="line" smooth="yes"/>
			<point x="89" y="38"/>
			<point x="112" y="-7"/>
			<point x="185" y="-13" type="curve"/>
			<point x="158" y="-77" type="line"/>
			<point x="164" y="-84" type="line"/>
			<point x="212" y="-75"/>
			<point x="242" y="-94"/>
			<point x="242" y="-141" type="curve" smooth="yes"/>
			<point x="242" y="-187"/>
			<point x="201" y="-199"/>
			<point x="173" y="-199" type="curve" smooth="yes"/>
			<point x="155" y="-199"/>
			<point x="138" y="-196"/>
			<point x="114" y="-185" type="curve"/>
			<point x="110" y="-192" type="line"/>
			<point x="130" y="-210"/>
			<point x="154" y="-219"/>
		</contour>
	</outline>
</glyph>
<glyph name="Uogonek" format="2">
	<unicode hex="0172"/>
	<advance width="706"/>
	<outline>
		<contour>
			<point x="522" y="-224" type="curve" smooth="yes"/>
			<point x="552" y="-224"/>
			<point x="592" y="-214"/>
			<point x="626" y="-156" type="curve"/>
			<point x="617" y="-150" type="line"/>
			<point x="590" y="-182"/>
			<point x="568" y="-190"/>
			<point x="542" y="-190" type="curve" smooth="yes"/>
			<point x="517" y="-190"/>
			<point x="503" y="-177"/>
			<point x="503" y="-144" type="curve" smooth="yes"/>
			<point x="503" y="-85"/>
			<point x="545" y="-44"/>
			<point x="594" y="0" type="curve"/>
			<point x="643" y="0" type="line"/>
			<point x="644" y="10" type="line"/>
			<point x="559" y="22" type="line"/>
			<point x="599" y="707" type="line"/>
			<point x="684" y="720" type="line"/>
			<point x="684" y="730" type="line"/>
			<point x="466" y="730" type="line"/>
			<point x="465" y="720" type="line"/>
			<point x="550" y="707" type="line"/>
			<point x="531" y="491" type="line" smooth="yes"/>
			<point x="510" y="249"/>
			<point x="427" y="5"/>
			<point x="281" y="5" type="curve" smooth="yes"/>
			<point x="201" y="5"/>
			<point x="167" y="55"/>
			<point x="177" y="223" type="curve" smooth="yes"/>
			<point x="205" y="707" type="line"/>
			<point x="290" y="719" type="line"/>
			<point x="290" y="730" type="line"/>
			<point x="72" y="730" type="line"/>
			<point x="71" y="718" type="line"/>
			<point x="156" y="707" type="line"/>
			<point x="125" y="214" type="line" smooth="yes"/>
			<point x="116" y="66"/>
			<point x="166" y="-14"/>
			<point x="266" y="-14" type="curve" smooth="yes"/>
			<point x="387" y="-14"/>
			<point x="469" y="86"/>
			<point x="529" y="350" type="curve"/>
			<point x="532" y="350" type="line"/>
			<point x="510" y="12" type="line"/>
			<point x="517" y="0" type="line"/>
			<point x="576" y="0" type="line"/>
			<point x="516" y="-39"/>
			<point x="454" y="-93"/>
			<point x="454" y="-153" type="curve" smooth="yes"/>
			<point x="454" y="-196"/>
			<point x="480" y="-224"/>
		</contour>
	</outline>
</glyph>
<glyph name="uogonek" format="2">
	<unicode hex="0173"/>
	<advance width="554"/>
	<outline>
		<contour>
			<point x="24" y="487" type="curve"/>
			<point x="30" y="478" type="line"/>
			<point x="52" y="491"/>
			<point x="73" y="497"/>
			<point x="96" y="497" type="curve" smooth="yes"/>
			<point x="119" y="497"/>
			<point x="126" y="483"/>
			<point x="124" y="453" type="curve" smooth="yes"/>
			<point x="99" y="132" type="line" smooth="yes"/>
			<point x="92" y="47"/>
			<point x="112" y="-14"/>
			<point x="194" y="-14" type="curve" smooth="yes"/>
			<point x="260" y="-14"/>
			<point x="296" y="27"/>
			<point x="333" y="143" type="curve" smooth="yes"/>
			<point x="407" y="376" type="line"/>
			<point x="409" y="376" type="line"/>
			<point x="388" y="79" type="line" smooth="yes"/>
			<point x="384" y="13"/>
			<point x="400" y="-21"/>
			<point x="462" y="-13" type="curve"/>
			<point x="409" y="-45"/>
			<point x="349" y="-100"/>
			<point x="349" y="-153" type="curve" smooth="yes"/>
			<point x="349" y="-196"/>
			<point x="375" y="-224"/>
			<point x="417" y="-224" type="curve" smooth="yes"/>
			<point x="447" y="-224"/>
			<point x="487" y="-214"/>
			<point x="521" y="-156" type="curve"/>
			<point x="512" y="-150" type="line"/>
			<point x="485" y="-182"/>
			<point x="463" y="-190"/>
			<point x="437" y="-190" type="curve" smooth="yes"/>
			<point x="412" y="-190"/>
			<point x="398" y="-177"/>
			<point x="398" y="-144" type="curve" smooth="yes"/>
			<point x="398" y="-72"/>
			<point x="456" y="-30"/>
			<point x="536" y="18" type="curve"/>
			<point x="531" y="28" type="line"/>
			<point x="502" y="13"/>
			<point x="481" y="8"/>
			<point x="465" y="8" type="curve" smooth="yes"/>
			<point x="445" y="8"/>
			<point x="436" y="19"/>
			<point x="437" y="51" type="curve" smooth="yes"/>
			<point x="455" y="509" type="line"/>
			<point x="430" y="509" type="line"/>
			<point x="316" y="151" type="line" smooth="yes"/>
			<point x="280" y="37"/>
			<point x="246" y="20"/>
			<point x="205" y="20" type="curve" smooth="yes"/>
			<point x="162" y="20"/>
			<point x="141" y="48"/>
			<point x="147" y="126" type="curve" smooth="yes"/>
			<point x="172" y="446" type="line" smooth="yes"/>
			<point x="176" y="500"/>
			<point x="156" y="523"/>
			<point x="116" y="523" type="curve" smooth="yes"/>
			<point x="79" y="523"/>
			<point x="46" y="505"/>
		</contour>
	</outline>
</glyph>
<glyph name="Ohorn" format="2">
	<unicode hex="01A0"/>
	<advance width="753"/>
	<outline>
		<contour>
			<point x="339" y="-14" type="curve" smooth="yes"/>
			<point x="520" y="-14"/>
			<point x="631" y="134"/>
			<point x="631" y="395" type="curve" smooth="yes"/>
			<point x="631" y="430"/>
			<point x="629" y="462"/>
			<point x="624" y="492" type="curve"/>
			<point x="736" y="530"/>
			<point x="768" y="606"/>
			<point x="768" y="694" type="curve" smooth="yes"/>
			<point x="768" y="733"/>
			<point x="749" y="761"/>
			<point x="715" y="761" type="curve" smooth="yes"/>
			<point x="684" y="761"/>
			<point x="668" y="742"/>
			<point x="668" y="715" type="curve" smooth="yes"/>
			<point x="668" y="703"/>
			<point x="673" y="689"/>
			<point x="679" y="681" type="curve"/>
			<point x="722" y="672" type="line" smooth="yes"/>
			<point x="736" y="669"/>
			<point x="738" y="666"/>
			<point x="738" y="653" type="curve" smooth="yes"/>
			<point x="738" y="606"/>
			<point x="722" y="542"/>
			<point x="621" y="506" type="curve"/>
			<point x="591" y="664"/>
			<point x="494" y="745"/>
			<point x="361" y="745" type="curve" smooth="yes"/>
			<point x="177" y="745"/>
			<point x="60" y="603"/>
			<point x="61" y="344" type="curve" smooth="yes"/>
			<point x="62" y="109"/>
			<point x="173" y="-14"/>
		</contour>
		<contour>
			<point x="345" y="5" type="curve" smooth="yes"/>
			<point x="197" y="5"/>
			<point x="111" y="99"/>
			<point x="112" y="361" type="curve" smooth="yes"/>
			<point x="113" y="627"/>
			<point x="211" y="726"/>
			<point x="359" y="726" type="curve" smooth="yes"/>
			<point x="502" y="726"/>
			<point x="581" y="638"/>
			<point x="580" y="388" type="curve" smooth="yes"/>
			<point x="579" y="106"/>
			<point x="487" y="5"/>
		</contour>
	</outline>
</glyph>
<glyph name="ohorn" format="2">
	<unicode hex="01A1"/>
	<advance width="538"/>
	<outline>
		<contour>
			<point x="228" y="-14" type="curve" smooth="yes"/>
			<point x="381" y="-14"/>
			<point x="445" y="126"/>
			<point x="445" y="279" type="curve" smooth="yes"/>
			<point x="445" y="322"/>
			<point x="439" y="360"/>
			<point x="427" y="393" type="curve"/>
			<point x="521" y="433"/>
			<point x="549" y="505"/>
			<point x="549" y="586" type="curve" smooth="yes"/>
			<point x="549" y="625"/>
			<point x="530" y="653"/>
			<point x="496" y="653" type="curve" smooth="yes"/>
			<point x="465" y="653"/>
			<point x="449" y="634"/>
			<point x="449" y="607" type="curve" smooth="yes"/>
			<point x="449" y="595"/>
			<point x="454" y="581"/>
			<point x="460" y="573" type="curve"/>
			<point x="503" y="564" type="line" smooth="yes"/>
			<point x="517" y="561"/>
			<point x="519" y="558"/>
			<point x="519" y="545" type="curve" smooth="yes"/>
			<point x="519" y="501"/>
			<point x="505" y="443"/>
			<point x="422" y="406" type="curve"/>
			<point x="391" y="481"/>
			<point x="332" y="523"/>
			<point x="259" y="523" type="curve" smooth="yes"/>
			<point x="105" y="523"/>
			<point x="45" y="392"/>
			<point x="45" y="234" type="curve" smooth="yes"/>
			<point x="45" y="87"/>
			<point x="114" y="-14"/>
		</contour>
		<contour>
			<point x="233" y="4" type="curve" smooth="yes"/>
			<point x="146" y="4"/>
			<point x="98" y="82"/>
			<point x="98" y="232" type="curve" smooth="yes"/>
			<point x="98" y="391"/>
			<point x="138" y="505"/>
			<point x="254" y="505" type="curve" smooth="yes"/>
			<point x="353" y="505"/>
			<point x="392" y="427"/>
			<point x="392" y="278" type="curve" smooth="yes"/>
			<point x="392" y="117"/>
			<point x="348" y="4"/>
		</contour>
	</outline>
</glyph>
<glyph name="Uhorn" format="2">
	<unicode hex="01AF"/>
	<advance width="770"/>
	<outline>
		<contour>
			<point x="266" y="-14" type="curve" smooth="yes"/>
			<point x="387" y="-14"/>
			<point x="469" y="86"/>
			<point x="529" y="350" type="curve"/>
			<point x="532" y="350" type="line"/>
			<point x="510" y="12" type="line"/>
			<point x="517" y="0" type="line"/>
			<point x="643" y="0" type="line"/>
			<point x="644" y="10" type="line"/>
			<point x="559" y="22" type="line"/>
			<point x="585" y="477" type="line"/>
			<point x="740" y="515"/>
			<point x="785" y="603"/>
			<point x="785" y="693" type="curve" smooth="yes"/>
			<point x="785" y="732"/>
			<point x="766" y="760"/>
			<point x="732" y="760" type="curve" smooth="yes"/>
			<point x="701" y="760"/>
			<point x="685" y="741"/>
			<point x="685" y="714" type="curve" smooth="yes"/>
			<point x="685" y="702"/>
			<point x="690" y="688"/>
			<point x="696" y="680" type="curve"/>
			<point x="739" y="671" type="line" smooth="yes"/>
			<point x="753" y="668"/>
			<point x="755" y="665"/>
			<point x="755" y="652" type="curve" smooth="yes"/>
			<point x="755" y="604"/>
			<point x="727" y="527"/>
			<point x="586" y="492" type="curve"/>
			<point x="600" y="730" type="line"/>
			<point x="466" y="730" type="line"/>
			<point x="465" y="720" type="line"/>
			<point x="550" y="707" type="line"/>
			<point x="531" y="491" type="line" smooth="yes"/>
			<point x="517" y="334"/>
			<point x="478" y="176"/>
			<point x="411" y="84" type="curve" smooth="yes"/>
			<point x="376" y="35"/>
			<point x="332" y="5"/>
			<point x="281" y="5" type="curve" smooth="yes"/>
			<point x="201" y="5"/>
			<point x="167" y="55"/>
			<point x="177" y="223" type="curve" smooth="yes"/>
			<point x="205" y="707" type="line"/>
			<point x="290" y="719" type="line"/>
			<point x="290" y="730" type="line"/>
			<point x="72" y="730" type="line"/>
			<point x="71" y="718" type="line"/>
			<point x="156" y="707" type="line"/>
			<point x="125" y="214" type="line" smooth="yes"/>
			<point x="116" y="66"/>
			<point x="166" y="-14"/>
		</contour>
	</outline>
	<anchor name="bottom" x="350" y="-30"/>
	<anchor name="top" x="379" y="730"/>
</glyph>
<glyph name="oogonek" format="2">
	<unicode hex="01EB"/>
	<advance width="490"/>
	<outline>
		<contour>
			<point x="241" y="-224" type="curve" smooth="yes"/>
			<point x="271" y="-224"/>
			<point x="311" y="-214"/>
			<point x="345" y="-156" type="curve"/>
			<point x="336" y="-150" type="line"/>
			<point x="309" y="-182"/>
			<point x="287" y="-190"/>
			<point x="261" y="-190" type="curve" smooth="yes"/>
			<point x="236" y="-190"/>
			<point x="222" y="-177"/>
			<point x="222" y="-144" type="curve" smooth="yes"/>
			<point x="222" y="-81"/>
			<point x="269" y="-39"/>
			<point x="322" y="8" type="curve"/>
			<point x="408" y="53"/>
			<point x="445" y="162"/>
			<point x="445" y="279" type="curve" smooth="yes"/>
			<point x="445" y="431"/>
			<point x="366" y="523"/>
			<point x="259" y="523" type="curve" smooth="yes"/>
			<point x="105" y="523"/>
			<point x="45" y="392"/>
			<point x="45" y="234" type="curve" smooth="yes"/>
			<point x="45" y="87"/>
			<point x="114" y="-14"/>
			<point x="228" y="-14" type="curve" smooth="yes"/>
			<point x="248" y="-14"/>
			<point x="267" y="-12"/>
			<point x="284" y="-7" type="curve"/>
			<point x="228" y="-45"/>
			<point x="173" y="-96"/>
			<point x="173" y="-153" type="curve" smooth="yes"/>
			<point x="173" y="-196"/>
			<point x="199" y="-224"/>
		</contour>
		<contour>
			<point x="233" y="4" type="curve" smooth="yes"/>
			<point x="146" y="4"/>
			<point x="98" y="82"/>
			<point x="98" y="232" type="curve" smooth="yes"/>
			<point x="98" y="391"/>
			<point x="138" y="505"/>
			<point x="254" y="505" type="curve" smooth="yes"/>
			<point x="353" y="505"/>
			<point x="392" y="427"/>
			<point x="392" y="278" type="curve" smooth="yes"/>
			<point x="392" y="117"/>
			<point x="348" y="4"/>
		</contour>
	</outline>
</glyph>
<glyph name="schwa" format="2">
	<unicode hex="0259"/>
	<advance width="435"/>
	<outline>
		<contour>
			<point x="175" y="-14" type="curve" smooth="yes"/>
			<point x="308" y="-14"/>
			<point x="390" y="108"/>
			<point x="390" y="286" type="curve" smooth="yes"/>
			<point x="390" y="415"/>
			<point x="338" y="523"/>
			<point x="217" y="523" type="curve" smooth="yes"/>
			<point x="138" y="523"/>
			<point x="89" y="484"/>
			<point x="51" y="435" type="curve"/>
			<point x="61" y="427" type="line"/>
			<point x="106" y="483"/>
			<point x="151" y="499"/>
			<point x="201" y="499" type="curve" smooth="yes"/>
			<point x="292" y="499"/>
			<point x="339" y="431"/>
			<point x="337" y="271" type="curve"/>
			<point x="214" y="236" type="line" smooth="yes"/>
			<point x="123" y="210"/>
			<point x="52" y="172"/>
			<point x="52" y="95" type="curve" smooth="yes"/>
			<point x="52" y="30"/>
			<point x="92" y="-14"/>
		</contour>
		<contour>
			<point x="184" y="4" type="curve" smooth="yes"/>
			<point x="132" y="4"/>
			<point x="101" y="29"/>
			<point x="101" y="95" type="curve" smooth="yes"/>
			<point x="101" y="166"/>
			<point x="140" y="197"/>
			<point x="237" y="226" type="curve" smooth="yes"/>
			<point x="337" y="256" type="line"/>
			<point x="332" y="72"/>
			<point x="261" y="4"/>
		</contour>
	</outline>
</glyph>
<glyph name="commaturnedmod" format="2">
	<unicode hex="02BB"/>
	<outline>
		<contour>
			<point x="46" y="791" type="line"/>
			<point x="-22" y="744"/>
			<point x="-35" y="695"/>
			<point x="-35" y="652" type="curve" smooth="yes"/>
			<point x="-35" y="615"/>
			<point x="-17" y="590"/>
			<point x="12" y="590" type="curve" smooth="yes"/>
			<point x="48" y="590"/>
			<point x="61" y="627"/>
			<point x="43" y="659" type="curve"/>
			<point x="15" y="669" type="line" smooth="yes"/>
			<point x="4" y="673"/>
			<point x="1" y="678"/>
			<point x="1" y="686" type="curve" smooth="yes"/>
			<point x="1" y="712"/>
			<point x="10" y="747"/>
			<point x="54" y="780" type="curve"/>
		</contour>
	</outline>
	<anchor name="_top" x="10" y="550"/>
</glyph>
<glyph name="ringhalfright" format="2">
	<unicode hex="02BE"/>
	<advance width="501"/>
	<outline>
		<contour>
			<point x="264" y="777" type="curve" smooth="yes"/>
			<point x="253" y="777" type="line"/>
			<point x="252" y="761" type="line"/>
			<point x="263" y="761" type="line" smooth="yes"/>
			<point x="300" y="761"/>
			<point x="312" y="742"/>
			<point x="312" y="681" type="curve" smooth="yes"/>
			<point x="312" y="624"/>
			<point x="295" y="601"/>
			<point x="257" y="601" type="curve" smooth="yes"/>
			<point x="247" y="601" type="line"/>
			<point x="246" y="585" type="line"/>
			<point x="256" y="585" type="line" smooth="yes"/>
			<point x="321" y="585"/>
			<point x="352" y="630"/>
			<point x="352" y="688" type="curve" smooth="yes"/>
			<point x="352" y="754"/>
			<point x="321" y="777"/>
		</contour>
	</outline>
	<anchor name="_top" x="276" y="550"/>
</glyph>
<glyph name="ringhalfleft" format="2">
	<unicode hex="02BF"/>
	<advance width="500"/>
	<outline>
		<contour>
			<point x="287" y="585" type="curve" smooth="yes"/>
			<point x="298" y="585" type="line"/>
			<point x="299" y="601" type="line"/>
			<point x="288" y="601" type="line" smooth="yes"/>
			<point x="251" y="601"/>
			<point x="239" y="620"/>
			<point x="239" y="681" type="curve" smooth="yes"/>
			<point x="239" y="738"/>
			<point x="256" y="761"/>
			<point x="294" y="761" type="curve" smooth="yes"/>
			<point x="304" y="761" type="line"/>
			<point x="305" y="777" type="line"/>
			<point x="295" y="777" type="line" smooth="yes"/>
			<point x="230" y="777"/>
			<point x="199" y="732"/>
			<point x="199" y="674" type="curve" smooth="yes"/>
			<point x="199" y="608"/>
			<point x="230" y="585"/>
		</contour>
	</outline>
	<anchor name="_top" x="265" y="550"/>
</glyph>
<glyph name="verticallinemod" format="2">
	<unicode hex="02C8"/>
	<advance width="506"/>
	<outline>
		<contour>
			<point x="260" y="755" type="line"/>
			<point x="255" y="582" type="line"/>
			<point x="289" y="582" type="line"/>
			<point x="294" y="755" type="line"/>
		</contour>
	</outline>
	<anchor name="_top" x="271" y="550"/>
</glyph>
<glyph name="breve" format="2">
	<unicode hex="02D8"/>
	<advance width="501"/>
	<outline>
		<contour>
			<point x="266" y="594" type="curve" smooth="yes"/>
			<point x="352" y="594"/>
			<point x="391" y="667"/>
			<point x="403" y="746" type="curve"/>
			<point x="393" y="748" type="line"/>
			<point x="376" y="692"/>
			<point x="341" y="644"/>
			<point x="272" y="644" type="curve" smooth="yes"/>
			<point x="204" y="644"/>
			<point x="176" y="676"/>
			<point x="157" y="748" type="curve"/>
			<point x="147" y="746" type="line"/>
			<point x="152" y="657"/>
			<point x="182" y="594"/>
		</contour>
	</outline>
	<anchor name="_top" x="268" y="550"/>
</glyph>
<glyph name="dotaccent" format="2">
	<unicode hex="02D9"/>
	<advance width="503"/>
	<outline>
		<contour>
			<point x="235" y="693" type="curve" smooth="yes"/>
			<point x="235" y="664"/>
			<point x="252" y="646"/>
			<point x="275" y="646" type="curve" smooth="yes"/>
			<point x="300" y="646"/>
			<point x="316" y="668"/>
			<point x="316" y="696" type="curve" smooth="yes"/>
			<point x="316" y="726"/>
			<point x="301" y="743"/>
			<point x="276" y="743" type="curve" smooth="yes"/>
			<point x="252" y="743"/>
			<point x="235" y="723"/>
		</contour>
	</outline>
	<anchor name="_top" x="269" y="550"/>
</glyph>
<glyph name="ogonek" format="2">
	<unicode hex="02DB"/>
	<advance width="503"/>
	<outline>
		<contour>
			<point x="311" y="8" type="curve"/>
			<point x="298" y="9" type="line"/>
			<point x="234" y="-30"/>
			<point x="162" y="-88"/>
			<point x="162" y="-153" type="curve" smooth="yes"/>
			<point x="162" y="-196"/>
			<point x="188" y="-224"/>
			<point x="230" y="-224" type="curve" smooth="yes"/>
			<point x="260" y="-224"/>
			<point x="300" y="-214"/>
			<point x="334" y="-156" type="curve"/>
			<point x="325" y="-150" type="line"/>
			<point x="298" y="-182"/>
			<point x="276" y="-190"/>
			<point x="250" y="-190" type="curve" smooth="yes"/>
			<point x="225" y="-190"/>
			<point x="211" y="-177"/>
			<point x="211" y="-144" type="curve" smooth="yes"/>
			<point x="211" y="-81"/>
			<point x="258" y="-39"/>
		</contour>
	</outline>
	<anchor name="_bottom" x="250" y="-30"/>
</glyph>
<glyph name="tilde" format="2">
	<unicode hex="02DC"/>
	<advance width="502"/>
	<outline>
		<contour>
			<point x="344" y="627" type="curve" smooth="yes"/>
			<point x="372" y="627"/>
			<point x="392" y="642"/>
			<point x="409" y="697" type="curve"/>
			<point x="401" y="700" type="line"/>
			<point x="384" y="668"/>
			<point x="372" y="663"/>
			<point x="359" y="663" type="curve" smooth="yes"/>
			<point x="346" y="663"/>
			<point x="327" y="669"/>
			<point x="286" y="690" type="curve" smooth="yes"/>
			<point x="251" y="708"/>
			<point x="229" y="713"/>
			<point x="211" y="713" type="curve" smooth="yes"/>
			<point x="183" y="713"/>
			<point x="157" y="699"/>
			<point x="143" y="643" type="curve"/>
			<point x="150" y="639" type="line"/>
			<point x="165" y="669"/>
			<point x="178" y="675"/>
			<point x="197" y="675" type="curve" smooth="yes"/>
			<point x="213" y="675"/>
			<point x="236" y="670"/>
			<point x="264" y="655" type="curve" smooth="yes"/>
			<point x="306" y="632"/>
			<point x="325" y="627"/>
		</contour>
	</outline>
	<anchor name="_top" x="269" y="550"/>
</glyph>
<glyph name="dblgravecomb" format="2">
	<unicode hex="030F"/>
	<outline>
		<contour>
			<point x="-23" y="694" type="curve" smooth="yes"/>
			<point x="85" y="587" type="line"/>
			<point x="92" y="593" type="line"/>
			<point x="3" y="750" type="line"/>
			<point x="-20" y="759"/>
			<point x="-42" y="752"/>
			<point x="-42" y="729" type="curve" smooth="yes"/>
			<point x="-42" y="715"/>
			<point x="-37" y="707"/>
		</contour>
		<contour>
			<point x="-162" y="684" type="curve" smooth="yes"/>
			<point x="-43" y="587" type="line"/>
			<point x="-36" y="593" type="line"/>
			<point x="-143" y="747" type="line"/>
			<point x="-163" y="755"/>
			<point x="-188" y="748"/>
			<point x="-188" y="726" type="curve" smooth="yes"/>
			<point x="-188" y="711"/>
			<point x="-180" y="699"/>
		</contour>
	</outline>
	<anchor name="_top" x="16" y="550"/>
</glyph>
<glyph name="commaaccentcomb" format="2">
	<unicode hex="0326"/>
	<outline>
		<contour>
			<point x="-45" y="-261" type="line"/>
			<point x="23" y="-214"/>
			<point x="36" y="-165"/>
			<point x="36" y="-122" type="curve" smooth="yes"/>
			<point x="36" y="-85"/>
			<point x="18" y="-60"/>
			<point x="-11" y="-60" type="curve" smooth="yes"/>
			<point x="-47" y="-60"/>
			<point x="-60" y="-97"/>
			<point x="-42" y="-129" type="curve"/>
			<point x="-14" y="-139" type="line" smooth="yes"/>
			<point x="-3" y="-143"/>
			<point x="0" y="-148"/>
			<point x="0" y="-156" type="curve" smooth="yes"/>
			<point x="0" y="-182"/>
			<point x="-9" y="-217"/>
			<point x="-53" y="-250" type="curve"/>
		</contour>
	</outline>
	<anchor name="_bottom" x="-10" y="-30"/>
</glyph>
<glyph name="numeral-greek" format="2">
	<unicode hex="0374"/>
	<advance width="340"/>
	<outline>
		<contour>
			<point x="101" y="537" type="line"/>
			<point x="237" y="736" type="line"/>
			<point x="238" y="741" type="line"/>
			<point x="226" y="758"/>
			<point x="216" y="768"/>
			<point x="202" y="768" type="curve" smooth="yes"/>
			<point x="182" y="768"/>
			<point x="178" y="757"/>
			<point x="168" y="732" type="curve" smooth="yes"/>
			<point x="92" y="542" type="line"/>
		</contour>
	</outline>
</glyph>
<glyph name="ypogegrammeni" format="2">
	<unicode hex="037A"/>
	<advance width="228"/>
	<outline>
		<contour>
			<point x="105" y="-226" type="curve" smooth="yes"/>
			<point x="148" y="-226"/>
			<point x="175" y="-196"/>
			<point x="187" y="-175" type="curve"/>
			<point x="183" y="-171" type="line"/>
			<point x="166" y="-185"/>
			<point x="144" y="-196"/>
			<point x="122" y="-196" type="curve" smooth="yes"/>
			<point x="88" y="-196"/>
			<point x="76" y="-174"/>
			<point x="78" y="-133" type="curve" smooth="yes"/>
			<point x="80" y="-107"/>
			<point x="85" y="-62"/>
			<point x="87" y="-53" type="curve"/>
			<point x="83" y="-46" type="line"/>
			<point x="39" y="-51" type="line"/>
			<point x="35" y="-141" type="line" smooth="yes"/>
			<point x="32" y="-199"/>
			<point x="56" y="-226"/>
		</contour>
	</outline>
	<anchor name="_bottom" x="67" y="-30"/>
</glyph>
<glyph name="tonos" format="2">
	<unicode hex="0384"/>
	<advance width="473"/>
	<outline>
		<contour>
			<point x="222" y="571" type="line"/>
			<point x="351" y="736" type="line"/>
			<point x="351" y="741" type="line"/>
			<point x="339" y="758"/>
			<point x="329" y="768"/>
			<point x="315" y="768" type="curve" smooth="yes"/>
			<point x="295" y="768"/>
			<point x="293" y="757"/>
			<point x="281" y="732" type="curve" smooth="yes"/>
			<point x="213" y="576" type="line"/>
		</contour>
	</outline>
	<anchor name="_top" x="220" y="550"/>
</glyph>
<glyph name="Theta" format="2">
	<unicode hex="0398"/>
	<advance width="675"/>
	<outline>
		<contour>
			<point x="339" y="-14" type="curve" smooth="yes"/>
			<point x="520" y="-14"/>
			<point x="631" y="134"/>
			<point x="631" y="395" type="curve" smooth="yes"/>
			<point x="631" y="625"/>
			<point x="523" y="745"/>
			<point x="361" y="745" type="curve" smooth="yes"/>
			<point x="177" y="745"/>
			<point x="60" y="603"/>
			<point x="61" y="344" type="curve" smooth="yes"/>
			<point x="62" y="109"/>
			<point x="173" y="-14"/>
		</contour>
		<contour>
			<point x="344" y="5" type="curve" smooth="yes"/>
			<point x="196" y="5"/>
			<point x="110" y="99"/>
			<point x="111" y="361" type="curve" smooth="yes"/>
			<point x="112" y="627"/>
			<point x="210" y="726"/>
			<point x="358" y="726" type="curve" smooth="yes"/>
			<point x="501" y="726"/>
			<point x="580" y="638"/>
			<point x="579" y="388" type="curve" smooth="yes"/>
			<point x="578" y="106"/>
			<point x="486" y="5"/>
		</contour>
		<contour>
			<point x="208" y="355" type="line"/>
			<point x="481" y="355" type="line"/>
			<point x="483" y="373" type="line"/>
			<point x="210" y="373" type="line"/>
		</contour>
	</outline>
</glyph>
<glyph name="Pi" format="2">
	<unicode hex="03A0"/>
	<advance width="699"/>
	<outline>
		<contour>
			<point x="51" y="0" type="line"/>
			<point x="270" y="0" type="line"/>
			<point x="271" y="10" type="line"/>
			<point x="186" y="22" type="line"/>
			<point x="213" y="718" type="line"/>
			<point x="548" y="718" type="line"/>
			<point x="518" y="23" type="line"/>
			<point x="433" y="10" type="line"/>
			<point x="432" y="0" type="line"/>
			<point x="651" y="0" type="line"/>
			<point x="652" y="10" type="line"/>
			<point x="567" y="22" type="line"/>
			<point x="596" y="707" type="line"/>
			<point x="681" y="720" type="line"/>
			<point x="681" y="730" type="line"/>
			<point x="80" y="730" type="line"/>
			<point x="79" y="718" type="line"/>
			<point x="164" y="707" type="line"/>
			<point x="137" y="23" type="line"/>
			<point x="52" y="10" type="line"/>
		</contour>
	</outline>
</glyph>
<glyph name="gamma" format="2">
	<unicode hex="03B3"/>
	<advance width="500"/>
	<outline>
		<contour>
			<point x="185" y="-185" type="curve" smooth="yes"/>
			<point x="189" y="-185"/>
			<point x="197" y="-185"/>
			<point x="211" y="-181" type="curve"/>
			<point x="217" y="-157"/>
			<point x="218" y="-128"/>
			<point x="218" y="-86" type="curve" smooth="yes"/>
			<point x="218" y="-70"/>
			<point x="216" y="-45"/>
			<point x="215" y="-11" type="curve"/>
			<point x="355" y="113"/>
			<point x="449" y="299"/>
			<point x="449" y="399" type="curve" smooth="yes"/>
			<point x="449" y="487"/>
			<point x="421" y="523"/>
			<point x="383" y="523" type="curve" smooth="yes"/>
			<point x="356" y="523"/>
			<point x="341" y="506"/>
			<point x="342" y="466" type="curve"/>
			<point x="386" y="455" type="line" smooth="yes"/>
			<point x="414" y="448"/>
			<point x="428" y="431"/>
			<point x="428" y="391" type="curve" smooth="yes"/>
			<point x="428" y="301"/>
			<point x="345" y="153"/>
			<point x="215" y="13" type="curve"/>
			<point x="216" y="92"/>
			<point x="209" y="228"/>
			<point x="198" y="332" type="curve" smooth="yes"/>
			<point x="182" y="491"/>
			<point x="171" y="523"/>
			<point x="110" y="523" type="curve" smooth="yes"/>
			<point x="76" y="523"/>
			<point x="36" y="500"/>
			<point x="21" y="487" type="curve"/>
			<point x="27" y="478" type="line"/>
			<point x="46" y="488"/>
			<point x="66" y="498"/>
			<point x="91" y="498" type="curve" smooth="yes"/>
			<point x="123" y="498"/>
			<point x="137" y="471"/>
			<point x="152" y="325" type="curve" smooth="yes"/>
			<point x="165" y="197"/>
			<point x="172" y="65"/>
			<point x="172" y="-16" type="curve"/>
			<point x="160" y="-38"/>
			<point x="150" y="-75"/>
			<point x="150" y="-107" type="curve" smooth="yes"/>
			<point x="150" y="-149"/>
			<point x="158" y="-185"/>
		</contour>
	</outline>
</glyph>
<glyph name="delta" format="2">
	<unicode hex="03B4"/>
	<advance width="476"/>
	<outline>
		<contour>
			<point x="217" y="-14" type="curve" smooth="yes"/>
			<point x="352" y="-14"/>
			<point x="427" y="116"/>
			<point x="427" y="228" type="curve" smooth="yes"/>
			<point x="427" y="350"/>
			<point x="379" y="405"/>
			<point x="272" y="505" type="curve" smooth="yes"/>
			<point x="172" y="598"/>
			<point x="154" y="624"/>
			<point x="154" y="671" type="curve" smooth="yes"/>
			<point x="154" y="712"/>
			<point x="184" y="764"/>
			<point x="286" y="764" type="curve" smooth="yes"/>
			<point x="354" y="764"/>
			<point x="383" y="741"/>
			<point x="383" y="703" type="curve" smooth="yes"/>
			<point x="383" y="691"/>
			<point x="375" y="681"/>
			<point x="349" y="650" type="curve"/>
			<point x="360" y="633"/>
			<point x="379" y="619"/>
			<point x="401" y="619" type="curve" smooth="yes"/>
			<point x="429" y="619"/>
			<point x="449" y="640"/>
			<point x="449" y="668" type="curve" smooth="yes"/>
			<point x="449" y="750"/>
			<point x="372" y="781"/>
			<point x="293" y="781" type="curve" smooth="yes"/>
			<point x="219" y="781"/>
			<point x="125" y="745"/>
			<point x="125" y="639" type="curve" smooth="yes"/>
			<point x="125" y="592"/>
			<point x="141" y="552"/>
			<point x="246" y="456" type="curve"/>
			<point x="124" y="434"/>
			<point x="33" y="325"/>
			<point x="33" y="194" type="curve" smooth="yes"/>
			<point x="33" y="78"/>
			<point x="99" y="-14"/>
		</contour>
		<contour>
			<point x="222" y="4" type="curve" smooth="yes"/>
			<point x="124" y="4"/>
			<point x="85" y="97"/>
			<point x="85" y="185" type="curve" smooth="yes"/>
			<point x="85" y="347"/>
			<point x="186" y="423"/>
			<point x="263" y="445" type="curve"/>
			<point x="316" y="398"/>
			<point x="374" y="342"/>
			<point x="374" y="219" type="curve" smooth="yes"/>
			<point x="374" y="99"/>
			<point x="303" y="4"/>
		</contour>
	</outline>
</glyph>
<glyph name="eta" format="2">
	<unicode hex="03B7"/>
	<advance width="502"/>
	<outline>
		<contour>
			<point x="392" y="-230" type="line"/>
			<point x="400" y="-228" type="line"/>
			<point x="429" y="-62"/>
			<point x="457" y="254"/>
			<point x="457" y="380" type="curve" smooth="yes"/>
			<point x="457" y="477"/>
			<point x="426" y="522"/>
			<point x="357" y="522" type="curve" smooth="yes"/>
			<point x="287" y="522"/>
			<point x="215" y="443"/>
			<point x="160" y="261" type="curve"/>
			<point x="158" y="263" type="line"/>
			<point x="166" y="333"/>
			<point x="173" y="419"/>
			<point x="173" y="458" type="curve" smooth="yes"/>
			<point x="173" y="503"/>
			<point x="157" y="523"/>
			<point x="115" y="523" type="curve" smooth="yes"/>
			<point x="82" y="523"/>
			<point x="48" y="506"/>
			<point x="24" y="487" type="curve"/>
			<point x="30" y="478" type="line"/>
			<point x="49" y="488"/>
			<point x="69" y="498"/>
			<point x="95" y="498" type="curve" smooth="yes"/>
			<point x="115" y="498"/>
			<point x="130" y="484"/>
			<point x="130" y="415" type="curve" smooth="yes"/>
			<point x="130" y="363"/>
			<point x="125" y="233"/>
			<point x="119" y="181" type="curve"/>
			<point x="97" y="131"/>
			<point x="70" y="42"/>
			<point x="70" y="-3" type="curve"/>
			<point x="73" y="-8"/>
			<point x="88" y="-12"/>
			<point x="95" y="-12" type="curve" smooth="yes"/>
			<point x="136" y="-12"/>
			<point x="156" y="0"/>
			<point x="152" y="182" type="curve"/>
			<point x="189" y="315"/>
			<point x="261" y="488"/>
			<point x="348" y="488" type="curve" smooth="yes"/>
			<point x="388" y="488"/>
			<point x="408" y="458"/>
			<point x="408" y="373" type="curve" smooth="yes"/>
			<point x="408" y="286"/>
			<point x="372" y="-71"/>
			<point x="338" y="-214" type="curve"/>
		</contour>
	</outline>
	<anchor name="bottom" x="94" y="-30"/>
	<anchor name="top" x="263" y="550"/>
</glyph>
<glyph name="theta" format="2">
	<unicode hex="03B8"/>
	<advance width="560"/>
	<outline>
		<contour>
			<point x="264" y="-14" type="curve" smooth="yes"/>
			<point x="408" y="-14"/>
			<point x="511" y="155"/>
			<point x="511" y="471" type="curve" smooth="yes"/>
			<point x="511" y="648"/>
			<point x="443" y="782"/>
			<point x="295" y="782" type="curve" smooth="yes"/>
			<point x="177" y="782"/>
			<point x="132" y="677"/>
			<point x="132" y="595" type="curve" smooth="yes"/>
			<point x="132" y="465"/>
			<point x="213" y="370"/>
			<point x="455" y="342" type="curve"/>
			<point x="446" y="176"/>
			<point x="364" y="4"/>
			<point x="263" y="4" type="curve" smooth="yes"/>
			<point x="200" y="4"/>
			<point x="180" y="38"/>
			<point x="180" y="98" type="curve" smooth="yes"/>
			<point x="180" y="161"/>
			<point x="208" y="245"/>
			<point x="208" y="289" type="curve" smooth="yes"/>
			<point x="208" y="325"/>
			<point x="186" y="348"/>
			<point x="148" y="348" type="curve" smooth="yes"/>
			<point x="123" y="348"/>
			<point x="92" y="338"/>
			<point x="57" y="312" type="curve"/>
			<point x="63" y="303" type="line"/>
			<point x="77" y="311"/>
			<point x="102" y="323"/>
			<point x="124" y="323" type="curve" smooth="yes"/>
			<point x="142" y="323"/>
			<point x="157" y="318"/>
			<point x="157" y="286" type="curve" smooth="yes"/>
			<point x="157" y="252"/>
			<point x="127" y="155"/>
			<point x="127" y="103" type="curve" smooth="yes"/>
			<point x="127" y="40"/>
			<point x="165" y="-14"/>
		</contour>
		<contour>
			<point x="455" y="360" type="curve"/>
			<point x="276" y="381"/>
			<point x="185" y="461"/>
			<point x="185" y="601" type="curve" smooth="yes"/>
			<point x="185" y="693"/>
			<point x="220" y="764"/>
			<point x="301" y="764" type="curve" smooth="yes"/>
			<point x="395" y="764"/>
			<point x="458" y="675"/>
			<point x="458" y="457" type="curve" smooth="yes"/>
			<point x="458" y="432"/>
			<point x="457" y="389"/>
		</contour>
	</outline>
</glyph>
<glyph name="kappa" format="2">
	<unicode hex="03BA"/>
	<advance width="569"/>
	<outline>
		<contour>
			<point x="421" y="-14" type="curve" smooth="yes"/>
			<point x="456" y="-14"/>
			<point x="491" y="3"/>
			<point x="517" y="26" type="curve"/>
			<point x="509" y="37" type="line"/>
			<point x="491" y="24"/>
			<point x="470" y="11"/>
			<point x="432" y="11" type="curve" smooth="yes"/>
			<point x="382" y="11"/>
			<point x="339" y="57"/>
			<point x="339" y="141" type="curve" smooth="yes"/>
			<point x="339" y="264"/>
			<point x="382" y="363"/>
			<point x="436" y="447" type="curve"/>
			<point x="467" y="459"/>
			<point x="501" y="466"/>
			<point x="537" y="465" type="curve"/>
			<point x="542" y="475" type="line"/>
			<point x="525" y="518" type="line"/>
			<point x="356" y="507"/>
			<point x="231" y="401"/>
			<point x="155" y="157" type="curve"/>
			<point x="153" y="158" type="line"/>
			<point x="194" y="350"/>
			<point x="210" y="430"/>
			<point x="210" y="462" type="curve" smooth="yes"/>
			<point x="210" y="509"/>
			<point x="186" y="523"/>
			<point x="154" y="523" type="curve" smooth="yes"/>
			<point x="119" y="523"/>
			<point x="85" y="505"/>
			<point x="62" y="487" type="curve"/>
			<point x="68" y="478" type="line"/>
			<point x="85" y="486"/>
			<point x="107" y="498"/>
			<point x="127" y="498" type="curve" smooth="yes"/>
			<point x="145" y="498"/>
			<point x="162" y="495"/>
			<point x="162" y="464" type="curve" smooth="yes"/>
			<point x="162" y="421"/>
			<point x="104" y="126"/>
			<point x="80" y="0" type="curve"/>
			<point x="130" y="0" type="line"/>
			<point x="188" y="167"/>
			<point x="263" y="337"/>
			<point x="380" y="417" type="curve"/>
			<point x="319" y="326"/>
			<point x="297" y="222"/>
			<point x="297" y="141" type="curve" smooth="yes"/>
			<point x="297" y="27"/>
			<point x="349" y="-14"/>
		</contour>
	</outline>
</glyph>
<glyph name="xi" format="2">
	<unicode hex="03BE"/>
	<advance width="391"/>
	<outline>
		<contour>
			<point x="266" y="-234" type="line"/>
			<point x="309" y="-189"/>
			<point x="341" y="-138"/>
			<point x="341" y="-83" type="curve" smooth="yes"/>
			<point x="341" y="-20"/>
			<point x="312" y="11"/>
			<point x="207" y="56" type="curve" smooth="yes"/>
			<point x="85" y="108"/>
			<point x="69" y="158"/>
			<point x="69" y="193" type="curve" smooth="yes"/>
			<point x="69" y="274"/>
			<point x="138" y="329"/>
			<point x="182" y="344" type="curve"/>
			<point x="217" y="324"/>
			<point x="230" y="316"/>
			<point x="250" y="316" type="curve" smooth="yes"/>
			<point x="272" y="316"/>
			<point x="299" y="327"/>
			<point x="299" y="357" type="curve" smooth="yes"/>
			<point x="299" y="385"/>
			<point x="274" y="395"/>
			<point x="254" y="395" type="curve" smooth="yes"/>
			<point x="232" y="395"/>
			<point x="209" y="385"/>
			<point x="182" y="362" type="curve"/>
			<point x="122" y="385"/>
			<point x="94" y="424"/>
			<point x="94" y="468" type="curve" smooth="yes"/>
			<point x="94" y="548"/>
			<point x="160" y="613"/>
			<point x="361" y="673" type="curve" smooth="yes"/>
			<point x="370" y="676"/>
			<point x="378" y="688"/>
			<point x="378" y="701" type="curve" smooth="yes"/>
			<point x="378" y="721"/>
			<point x="356" y="739"/>
			<point x="323" y="725" type="curve" smooth="yes"/>
			<point x="263" y="701"/>
			<point x="211" y="675"/>
			<point x="169" y="647" type="curve"/>
			<point x="126" y="661"/>
			<point x="104" y="680"/>
			<point x="104" y="718" type="curve" smooth="yes"/>
			<point x="104" y="724"/>
			<point x="104" y="734"/>
			<point x="111" y="748" type="curve"/>
			<point x="102" y="754"/>
			<point x="89" y="759"/>
			<point x="76" y="759" type="curve" smooth="yes"/>
			<point x="46" y="759"/>
			<point x="31" y="739"/>
			<point x="31" y="712" type="curve" smooth="yes"/>
			<point x="31" y="680"/>
			<point x="56" y="638"/>
			<point x="143" y="628" type="curve"/>
			<point x="86" y="584"/>
			<point x="54" y="534"/>
			<point x="54" y="475" type="curve" smooth="yes"/>
			<point x="54" y="421"/>
			<point x="86" y="377"/>
			<point x="148" y="352" type="curve"/>
			<point x="148" y="350" type="line"/>
			<point x="61" y="308"/>
			<point x="17" y="231"/>
			<point x="17" y="170" type="curve" smooth="yes"/>
			<point x="17" y="90"/>
			<point x="66" y="51"/>
			<point x="176" y="3" type="curve" smooth="yes"/>
			<point x="276" y="-41"/>
			<point x="312" y="-65"/>
			<point x="312" y="-109" type="curve" smooth="yes"/>
			<point x="312" y="-137"/>
			<point x="303" y="-173"/>
			<point x="253" y="-224" type="curve"/>
		</contour>
	</outline>
</glyph>
<glyph name="omega" format="2">
	<unicode hex="03C9"/>
	<advance width="692"/>
	<outline>
		<contour>
			<point x="200" y="-14" type="curve" smooth="yes"/>
			<point x="274" y="-14"/>
			<point x="319" y="65"/>
			<point x="338" y="134" type="curve"/>
			<point x="341" y="134" type="line"/>
			<point x="356" y="51"/>
			<point x="387" y="-14"/>
			<point x="481" y="-14" type="curve" smooth="yes"/>
			<point x="553" y="-14"/>
			<point x="641" y="69"/>
			<point x="641" y="257" type="curve" smooth="yes"/>
			<point x="641" y="367"/>
			<point x="609" y="466"/>
			<point x="563" y="519" type="curve"/>
			<point x="554" y="523" type="line"/>
			<point x="502" y="509" type="line"/>
			<point x="547" y="446"/>
			<point x="588" y="347"/>
			<point x="588" y="246" type="curve" smooth="yes"/>
			<point x="588" y="78"/>
			<point x="523" y="2"/>
			<point x="462" y="2" type="curve" smooth="yes"/>
			<point x="399" y="2"/>
			<point x="371" y="69"/>
			<point x="358" y="156" type="curve"/>
			<point x="387" y="190"/>
			<point x="395" y="230"/>
			<point x="395" y="257" type="curve" smooth="yes"/>
			<point x="395" y="303"/>
			<point x="374" y="321"/>
			<point x="353" y="321" type="curve" smooth="yes"/>
			<point x="327" y="321"/>
			<point x="300" y="299"/>
			<point x="300" y="241" type="curve" smooth="yes"/>
			<point x="300" y="224"/>
			<point x="304" y="198"/>
			<point x="322" y="156" type="curve"/>
			<point x="304" y="95"/>
			<point x="278" y="2"/>
			<point x="201" y="2" type="curve" smooth="yes"/>
			<point x="141" y="2"/>
			<point x="101" y="54"/>
			<point x="101" y="187" type="curve" smooth="yes"/>
			<point x="101" y="333"/>
			<point x="147" y="433"/>
			<point x="235" y="513" type="curve"/>
			<point x="229" y="522" type="line"/>
			<point x="141" y="483"/>
			<point x="48" y="362"/>
			<point x="48" y="187" type="curve" smooth="yes"/>
			<point x="48" y="61"/>
			<point x="99" y="-14"/>
		</contour>
	</outline>
	<anchor name="bottom" x="342" y="-30"/>
	<anchor name="top" x="380" y="550"/>
</glyph>
<glyph name="kaiSymbol" format="2">
	<unicode hex="03D7"/>
	<advance width="576"/>
	<outline>
		<contour>
			<point x="324" y="-228" type="curve" smooth="yes"/>
			<point x="482" y="-228"/>
			<point x="530" y="-134"/>
			<point x="530" y="-55" type="curve" smooth="yes"/>
			<point x="530" y="-12"/>
			<point x="522" y="19"/>
			<point x="446" y="140" type="curve" smooth="yes"/>
			<point x="399" y="215"/>
			<point x="383" y="272"/>
			<point x="383" y="316" type="curve" smooth="yes"/>
			<point x="383" y="361"/>
			<point x="396" y="408"/>
			<point x="419" y="440" type="curve"/>
			<point x="455" y="457"/>
			<point x="494" y="466"/>
			<point x="537" y="465" type="curve"/>
			<point x="542" y="475" type="line"/>
			<point x="525" y="518" type="line"/>
			<point x="356" y="507"/>
			<point x="231" y="401"/>
			<point x="155" y="157" type="curve"/>
			<point x="153" y="158" type="line"/>
			<point x="194" y="350"/>
			<point x="210" y="430"/>
			<point x="210" y="462" type="curve" smooth="yes"/>
			<point x="210" y="509"/>
			<point x="186" y="523"/>
			<point x="154" y="523" type="curve" smooth="yes"/>
			<point x="119" y="523"/>
			<point x="85" y="505"/>
			<point x="62" y="487" type="curve"/>
			<point x="68" y="478" type="line"/>
			<point x="85" y="486"/>
			<point x="107" y="498"/>
			<point x="127" y="498" type="curve" smooth="yes"/>
			<point x="145" y="498"/>
			<point x="162" y="495"/>
			<point x="162" y="464" type="curve" smooth="yes"/>
			<point x="162" y="421"/>
			<point x="104" y="126"/>
			<point x="80" y="0" type="curve"/>
			<point x="130" y="0" type="line"/>
			<point x="187" y="164"/>
			<point x="262" y="330"/>
			<point x="373" y="412" type="curve"/>
			<point x="342" y="358"/>
			<point x="338" y="296"/>
			<point x="338" y="272" type="curve" smooth="yes"/>
			<point x="338" y="216"/>
			<point x="366" y="155"/>
			<point x="406" y="96" type="curve" smooth="yes"/>
			<point x="485" y="-21"/>
			<point x="499" y="-52"/>
			<point x="499" y="-96" type="curve" smooth="yes"/>
			<point x="499" y="-173"/>
			<point x="425" y="-216"/>
			<point x="297" y="-216" type="curve"/>
			<point x="295" y="-226" type="line"/>
			<point x="302" y="-227"/>
			<point x="307" y="-228"/>
		</contour>
	</outline>
</glyph>
<glyph name="Stigma" format="2">
	<unicode hex="03DA"/>
	<advance width="571"/>
	<outline>
		<contour>
			<point x="416" y="-209" type="line"/>
			<point x="467" y="-161"/>
			<point x="488" y="-120"/>
			<point x="488" y="-70" type="curve" smooth="yes"/>
			<point x="488" y="14"/>
			<point x="440" y="50"/>
			<point x="331" y="81" type="curve" smooth="yes"/>
			<point x="152" y="132"/>
			<point x="114" y="225"/>
			<point x="114" y="387" type="curve" smooth="yes"/>
			<point x="114" y="600"/>
			<point x="217" y="725"/>
			<point x="359" y="725" type="curve" smooth="yes"/>
			<point x="434" y="725"/>
			<point x="498" y="701"/>
			<point x="498" y="649" type="curve" smooth="yes"/>
			<point x="498" y="638"/>
			<point x="496" y="627"/>
			<point x="490" y="614" type="curve" smooth="yes"/>
			<point x="478" y="587" type="line"/>
			<point x="489" y="577"/>
			<point x="502" y="567"/>
			<point x="522" y="567" type="curve" smooth="yes"/>
			<point x="543" y="567"/>
			<point x="560" y="587"/>
			<point x="560" y="617" type="curve" smooth="yes"/>
			<point x="560" y="696"/>
			<point x="459" y="744"/>
			<point x="360" y="744" type="curve" smooth="yes"/>
			<point x="166" y="744"/>
			<point x="61" y="571"/>
			<point x="61" y="373" type="curve" smooth="yes"/>
			<point x="61" y="178"/>
			<point x="132" y="82"/>
			<point x="313" y="33" type="curve" smooth="yes"/>
			<point x="434" y="0"/>
			<point x="461" y="-42"/>
			<point x="461" y="-89" type="curve" smooth="yes"/>
			<point x="461" y="-132"/>
			<point x="441" y="-175"/>
			<point x="410" y="-202" type="curve"/>
		</contour>
	</outline>
</glyph>
<glyph name="koppa" format="2">
	<unicode hex="03DF"/>
	<advance width="416"/>
	<outline>
		<contour>
			<point x="184" y="-52" type="curve" smooth="yes"/>
			<point x="215" y="-52"/>
			<point x="241" y="-38"/>
			<point x="266" y="-8" type="curve"/>
			<point x="261" y="-1" type="line"/>
			<point x="244" y="-13"/>
			<point x="227" y="-21"/>
			<point x="207" y="-21" type="curve" smooth="yes"/>
			<point x="177" y="-21"/>
			<point x="164" y="-2"/>
			<point x="164" y="18" type="curve" smooth="yes"/>
			<point x="164" y="47"/>
			<point x="177" y="71"/>
			<point x="254" y="141" type="curve" smooth="yes"/>
			<point x="381" y="255" type="line"/>
			<point x="381" y="261" type="line"/>
			<point x="111" y="261" type="line"/>
			<point x="220" y="361" type="line" smooth="yes"/>
			<point x="300" y="435"/>
			<point x="322" y="459"/>
			<point x="322" y="498" type="curve" smooth="yes"/>
			<point x="322" y="540"/>
			<point x="289" y="560"/>
			<point x="259" y="560" type="curve" smooth="yes"/>
			<point x="228" y="560"/>
			<point x="202" y="546"/>
			<point x="177" y="516" type="curve"/>
			<point x="182" y="509" type="line"/>
			<point x="199" y="521"/>
			<point x="216" y="529"/>
			<point x="236" y="529" type="curve" smooth="yes"/>
			<point x="266" y="529"/>
			<point x="279" y="510"/>
			<point x="279" y="490" type="curve" smooth="yes"/>
			<point x="279" y="461"/>
			<point x="264" y="439"/>
			<point x="189" y="367" type="curve" smooth="yes"/>
			<point x="40" y="223" type="line"/>
			<point x="40" y="217" type="line"/>
			<point x="310" y="217" type="line"/>
			<point x="223" y="147" type="line" smooth="yes"/>
			<point x="139" y="79"/>
			<point x="121" y="49"/>
			<point x="121" y="10" type="curve" smooth="yes"/>
			<point x="121" y="-32"/>
			<point x="154" y="-52"/>
		</contour>
	</outline>
</glyph>
<glyph name="Dje-cy" format="2">
	<unicode hex="0402"/>
	<advance width="726"/>
	<outline>
		<contour>
			<point x="177" y="10" type="line"/>
			<point x="177" y="0" type="line"/>
			<point x="395" y="0" type="line"/>
			<point x="396" y="10" type="line"/>
			<point x="311" y="23" type="line"/>
			<point x="324" y="334" type="line"/>
			<point x="391" y="375"/>
			<point x="442" y="393"/>
			<point x="509" y="393" type="curve" smooth="yes"/>
			<point x="611" y="393"/>
			<point x="670" y="331"/>
			<point x="670" y="223" type="curve" smooth="yes"/>
			<point x="670" y="81"/>
			<point x="617" y="-22"/>
			<point x="527" y="-99" type="curve"/>
			<point x="530" y="-105" type="line"/>
			<point x="622" y="-46"/>
			<point x="716" y="81"/>
			<point x="716" y="231" type="curve" smooth="yes"/>
			<point x="716" y="354"/>
			<point x="627" y="413"/>
			<point x="519" y="413" type="curve" smooth="yes"/>
			<point x="443" y="413"/>
			<point x="384" y="391"/>
			<point x="325" y="355" type="curve"/>
			<point x="340" y="712" type="line"/>
			<point x="479" y="712" type="line" smooth="yes"/>
			<point x="533" y="712"/>
			<point x="560" y="703"/>
			<point x="579" y="637" type="curve" smooth="yes"/>
			<point x="600" y="566" type="line"/>
			<point x="612" y="568" type="line"/>
			<point x="598" y="730" type="line"/>
			<point x="76" y="730" type="line"/>
			<point x="53" y="566" type="line"/>
			<point x="65" y="564" type="line"/>
			<point x="82" y="621" type="line" smooth="yes"/>
			<point x="105" y="699"/>
			<point x="126" y="712"/>
			<point x="188" y="712" type="curve" smooth="yes"/>
			<point x="291" y="712" type="line"/>
			<point x="262" y="23" type="line"/>
		</contour>
	</outline>
</glyph>
<glyph name="Lje-cy" format="2">
	<unicode hex="0409"/>
	<advance width="903"/>
	<outline>
		<contour>
			<point x="502" y="712" type="line"/>
			<point x="475" y="23" type="line"/>
			<point x="390" y="10" type="line"/>
			<point x="389" y="0" type="line"/>
			<point x="606" y="0" type="line" smooth="yes"/>
			<point x="772" y="0"/>
			<point x="877" y="86"/>
			<point x="877" y="224" type="curve" smooth="yes"/>
			<point x="877" y="359"/>
			<point x="770" y="405"/>
			<point x="656" y="405" type="curve" smooth="yes"/>
			<point x="626" y="405"/>
			<point x="593" y="401"/>
			<point x="568" y="396" type="curve"/>
			<point x="566" y="378" type="line"/>
			<point x="596" y="384"/>
			<point x="624" y="387"/>
			<point x="658" y="387" type="curve" smooth="yes"/>
			<point x="749" y="387"/>
			<point x="826" y="344"/>
			<point x="826" y="226" type="curve" smooth="yes"/>
			<point x="826" y="71"/>
			<point x="732" y="18"/>
			<point x="594" y="18" type="curve" smooth="yes"/>
			<point x="523" y="18" type="line"/>
			<point x="551" y="706" type="line"/>
			<point x="639" y="720" type="line"/>
			<point x="639" y="730" type="line"/>
			<point x="168" y="730" type="line"/>
			<point x="167" y="718" type="line"/>
			<point x="257" y="707" type="line"/>
			<point x="240" y="400"/>
			<point x="194" y="148"/>
			<point x="113" y="37" type="curve"/>
			<point x="71" y="91" type="line"/>
			<point x="44" y="78"/>
			<point x="27" y="59"/>
			<point x="27" y="35" type="curve" smooth="yes"/>
			<point x="27" y="6"/>
			<point x="48" y="-10"/>
			<point x="71" y="-10" type="curve" smooth="yes"/>
			<point x="176" y="-10"/>
			<point x="258" y="315"/>
			<point x="279" y="712" type="curve"/>
		</contour>
	</outline>
</glyph>
<glyph name="Nje-cy" format="2">
	<unicode hex="040A"/>
	<advance width="956"/>
	<outline>
		<contour>
			<point x="545" y="366" type="line"/>
			<point x="531" y="23" type="line"/>
			<point x="446" y="10" type="line"/>
			<point x="445" y="0" type="line"/>
			<point x="662" y="0" type="line" smooth="yes"/>
			<point x="828" y="0"/>
			<point x="930" y="86"/>
			<point x="930" y="224" type="curve" smooth="yes"/>
			<point x="930" y="359"/>
			<point x="826" y="405"/>
			<point x="712" y="405" type="curve" smooth="yes"/>
			<point x="682" y="405"/>
			<point x="649" y="401"/>
			<point x="624" y="396" type="curve"/>
			<point x="622" y="378" type="line"/>
			<point x="652" y="384"/>
			<point x="680" y="387"/>
			<point x="714" y="387" type="curve" smooth="yes"/>
			<point x="805" y="387"/>
			<point x="879" y="344"/>
			<point x="879" y="226" type="curve" smooth="yes"/>
			<point x="879" y="71"/>
			<point x="788" y="18"/>
			<point x="650" y="18" type="curve" smooth="yes"/>
			<point x="579" y="18" type="line"/>
			<point x="607" y="707" type="line"/>
			<point x="692" y="719" type="line"/>
			<point x="692" y="730" type="line"/>
			<point x="474" y="730" type="line"/>
			<point x="473" y="718" type="line"/>
			<point x="558" y="707" type="line"/>
			<point x="545" y="384" type="line"/>
			<point x="201" y="384" type="line"/>
			<point x="213" y="707" type="line"/>
			<point x="298" y="719" type="line"/>
			<point x="298" y="730" type="line"/>
			<point x="80" y="730" type="line"/>
			<point x="79" y="718" type="line"/>
			<point x="164" y="707" type="line"/>
			<point x="137" y="23" type="line"/>
			<point x="52" y="10" type="line"/>
			<point x="51" y="0" type="line"/>
			<point x="270" y="0" type="line"/>
			<point x="271" y="10" type="line"/>
			<point x="186" y="22" type="line"/>
			<point x="201" y="366" type="line"/>
		</contour>
	</outline>
</glyph>
<glyph name="Tshe-cy" format="2">
	<unicode hex="040B"/>
	<advance width="809"/>
	<outline>
		<contour>
			<point x="325" y="355" type="curve"/>
			<point x="340" y="712" type="line"/>
			<point x="479" y="712" type="line" smooth="yes"/>
			<point x="533" y="712"/>
			<point x="560" y="703"/>
			<point x="579" y="637" type="curve" smooth="yes"/>
			<point x="600" y="566" type="line"/>
			<point x="612" y="568" type="line"/>
			<point x="598" y="730" type="line"/>
			<point x="76" y="730" type="line"/>
			<point x="53" y="566" type="line"/>
			<point x="65" y="564" type="line"/>
			<point x="82" y="621" type="line" smooth="yes"/>
			<point x="105" y="699"/>
			<point x="126" y="712"/>
			<point x="188" y="712" type="curve" smooth="yes"/>
			<point x="291" y="712" type="line"/>
			<point x="262" y="23" type="line"/>
			<point x="177" y="10" type="line"/>
			<point x="177" y="0" type="line"/>
			<point x="395" y="0" type="line"/>
			<point x="396" y="10" type="line"/>
			<point x="311" y="23" type="line"/>
			<point x="324" y="333" type="line"/>
			<point x="391" y="388"/>
			<point x="460" y="416"/>
			<point x="530" y="416" type="curve" smooth="yes"/>
			<point x="614" y="416"/>
			<point x="668" y="379"/>
			<point x="668" y="286" type="curve" smooth="yes"/>
			<point x="668" y="201"/>
			<point x="664" y="114"/>
			<point x="657" y="23" type="curve"/>
			<point x="572" y="11" type="line"/>
			<point x="572" y="0" type="line"/>
			<point x="790" y="0" type="line"/>
			<point x="791" y="12" type="line"/>
			<point x="706" y="23" type="line"/>
			<point x="711" y="104"/>
			<point x="716" y="186"/>
			<point x="716" y="265" type="curve" smooth="yes"/>
			<point x="716" y="386"/>
			<point x="642" y="436"/>
			<point x="537" y="436" type="curve" smooth="yes"/>
			<point x="456" y="436"/>
			<point x="385" y="401"/>
		</contour>
	</outline>
</glyph>
<glyph name="Dzhe-cy" format="2">
	<unicode hex="040F"/>
	<advance width="709"/>
	<outline>
		<contour>
			<point x="346" y="-164" type="line"/>
			<point x="355" y="-164" type="line"/>
			<point x="375" y="0" type="line"/>
			<point x="661" y="0" type="line"/>
			<point x="662" y="10" type="line"/>
			<point x="577" y="22" type="line"/>
			<point x="606" y="707" type="line"/>
			<point x="691" y="720" type="line"/>
			<point x="691" y="730" type="line"/>
			<point x="473" y="730" type="line"/>
			<point x="472" y="720" type="line"/>
			<point x="557" y="707" type="line"/>
			<point x="529" y="18" type="line"/>
			<point x="186" y="18" type="line"/>
			<point x="213" y="707" type="line"/>
			<point x="298" y="719" type="line"/>
			<point x="298" y="730" type="line"/>
			<point x="80" y="730" type="line"/>
			<point x="79" y="718" type="line"/>
			<point x="164" y="707" type="line"/>
			<point x="137" y="23" type="line"/>
			<point x="52" y="10" type="line"/>
			<point x="51" y="0" type="line"/>
			<point x="340" y="0" type="line"/>
		</contour>
	</outline>
</glyph>
<glyph name="Ge-cy" format="2">
	<unicode hex="0413"/>
	<advance width="508"/>
	<outline>
		<contour>
			<point x="52" y="10" type="line"/>
			<point x="51" y="0" type="line"/>
			<point x="298" y="0" type="line"/>
			<point x="299" y="9" type="line"/>
			<point x="186" y="22" type="line"/>
			<point x="213" y="712" type="line"/>
			<point x="376" y="712" type="line" smooth="yes"/>
			<point x="430" y="712"/>
			<point x="457" y="704"/>
			<point x="476" y="637" type="curve" smooth="yes"/>
			<point x="497" y="564" type="line"/>
			<point x="509" y="566" type="line"/>
			<point x="495" y="730" type="line"/>
			<point x="80" y="730" type="line"/>
			<point x="79" y="720" type="line"/>
			<point x="164" y="709" type="line"/>
			<point x="137" y="21" type="line"/>
		</contour>
	</outline>
	<anchor name="top" x="312" y="730"/>
</glyph>
<glyph name="De-cy" format="2">
	<unicode hex="0414"/>
	<advance width="656"/>
	<outline>
		<contour>
			<point x="-4" y="-166" type="line"/>
			<point x="9" y="-166" type="line"/>
			<point x="19" y="-38"/>
			<point x="35" y="0"/>
			<point x="106" y="0" type="curve" smooth="yes"/>
			<point x="502" y="0" type="line" smooth="yes"/>
			<point x="577" y="0"/>
			<point x="590" y="-21"/>
			<point x="578" y="-165" type="curve"/>
			<point x="591" y="-166" type="line"/>
			<point x="618" y="18" type="line"/>
			<point x="513" y="18" type="line"/>
			<point x="541" y="707" type="line"/>
			<point x="626" y="720" type="line"/>
			<point x="626" y="730" type="line"/>
			<point x="155" y="730" type="line"/>
			<point x="154" y="718" type="line"/>
			<point x="244" y="707" type="line"/>
			<point x="227" y="403"/>
			<point x="180" y="145"/>
			<point x="89" y="18" type="curve"/>
			<point x="2" y="18" type="line"/>
		</contour>
		<contour>
			<point x="114" y="18" type="line"/>
			<point x="190" y="142"/>
			<point x="240" y="335"/>
			<point x="266" y="712" type="curve"/>
			<point x="492" y="712" type="line"/>
			<point x="464" y="18" type="line"/>
		</contour>
	</outline>
	<guideline x="9" y="-166" angle="0"/>
</glyph>
<glyph name="Zhe-cy" format="2">
	<unicode hex="0416"/>
	<advance width="980"/>
	<outline>
		<contour>
			<point x="482" y="380" type="curve"/>
			<point x="468" y="23" type="line"/>
			<point x="383" y="10" type="line"/>
			<point x="382" y="0" type="line"/>
			<point x="601" y="0" type="line"/>
			<point x="602" y="10" type="line"/>
			<point x="517" y="22" type="line"/>
			<point x="531" y="380" type="line"/>
			<point x="563" y="380"/>
			<point x="586" y="378"/>
			<point x="614" y="366" type="curve" smooth="yes"/>
			<point x="648" y="352"/>
			<point x="676" y="316"/>
			<point x="691" y="276" type="curve" smooth="yes"/>
			<point x="713" y="219"/>
			<point x="719" y="201"/>
			<point x="738" y="144" type="curve" smooth="yes"/>
			<point x="779" y="22"/>
			<point x="823" y="-14"/>
			<point x="883" y="-14" type="curve" smooth="yes"/>
			<point x="916" y="-14"/>
			<point x="944" y="-2"/>
			<point x="967" y="21" type="curve"/>
			<point x="961" y="29" type="line"/>
			<point x="942" y="14"/>
			<point x="925" y="8"/>
			<point x="906" y="8" type="curve" smooth="yes"/>
			<point x="860" y="8"/>
			<point x="827" y="46"/>
			<point x="789" y="152" type="curve" smooth="yes"/>
			<point x="772" y="200"/>
			<point x="768" y="211"/>
			<point x="750" y="255" type="curve" smooth="yes"/>
			<point x="717" y="336"/>
			<point x="653" y="382"/>
			<point x="575" y="390" type="curve"/>
			<point x="575" y="392" type="line"/>
			<point x="664" y="414"/>
			<point x="707" y="465"/>
			<point x="759" y="569" type="curve" smooth="yes"/>
			<point x="791" y="633"/>
			<point x="816" y="680"/>
			<point x="831" y="680" type="curve" smooth="yes"/>
			<point x="839" y="680"/>
			<point x="844" y="677"/>
			<point x="853" y="668" type="curve" smooth="yes"/>
			<point x="874" y="646" type="line"/>
			<point x="892" y="660"/>
			<point x="908" y="678"/>
			<point x="908" y="702" type="curve" smooth="yes"/>
			<point x="908" y="723"/>
			<point x="892" y="739"/>
			<point x="868" y="739" type="curve" smooth="yes"/>
			<point x="820" y="739"/>
			<point x="791" y="679"/>
			<point x="745" y="585" type="curve" smooth="yes"/>
			<point x="701" y="495"/>
			<point x="656" y="436"/>
			<point x="589" y="411" type="curve" smooth="yes"/>
			<point x="571" y="404"/>
			<point x="552" y="400"/>
			<point x="532" y="399" type="curve"/>
			<point x="544" y="707" type="line"/>
			<point x="629" y="719" type="line"/>
			<point x="629" y="730" type="line"/>
			<point x="411" y="730" type="line"/>
			<point x="410" y="718" type="line"/>
			<point x="495" y="707" type="line"/>
			<point x="483" y="400" type="line"/>
			<point x="460" y="401"/>
			<point x="449" y="402"/>
			<point x="423" y="413" type="curve" smooth="yes"/>
			<point x="367" y="437"/>
			<point x="335" y="492"/>
			<point x="299" y="585" type="curve" smooth="yes"/>
			<point x="262" y="681"/>
			<point x="237" y="739"/>
			<point x="193" y="739" type="curve" smooth="yes"/>
			<point x="169" y="739"/>
			<point x="149" y="721"/>
			<point x="149" y="697" type="curve" smooth="yes"/>
			<point x="149" y="676"/>
			<point x="160" y="660"/>
			<point x="175" y="646" type="curve"/>
			<point x="199" y="668" type="line" smooth="yes"/>
			<point x="208" y="677"/>
			<point x="214" y="680"/>
			<point x="222" y="680" type="curve" smooth="yes"/>
			<point x="237" y="680"/>
			<point x="257" y="634"/>
			<point x="281" y="569" type="curve" smooth="yes"/>
			<point x="319" y="466"/>
			<point x="362" y="412"/>
			<point x="437" y="393" type="curve"/>
			<point x="437" y="391" type="line"/>
			<point x="337" y="373"/>
			<point x="285" y="336"/>
			<point x="236" y="238" type="curve" smooth="yes"/>
			<point x="227" y="220"/>
			<point x="216" y="197"/>
			<point x="200" y="162" type="curve" smooth="yes"/>
			<point x="138" y="27"/>
			<point x="114" y="8"/>
			<point x="74" y="8" type="curve" smooth="yes"/>
			<point x="55" y="8"/>
			<point x="42" y="15"/>
			<point x="24" y="30" type="curve"/>
			<point x="17" y="21" type="line"/>
			<point x="39" y="-2"/>
			<point x="65" y="-14"/>
			<point x="100" y="-14" type="curve" smooth="yes"/>
			<point x="155" y="-14"/>
			<point x="191" y="23"/>
			<point x="244" y="144" type="curve" smooth="yes"/>
			<point x="306" y="285"/>
			<point x="332" y="333"/>
			<point x="397" y="365" type="curve" smooth="yes"/>
			<point x="424" y="378"/>
			<point x="447" y="380"/>
		</contour>
	</outline>
	<guideline x="-199" y="380" angle="0"/>
</glyph>
<glyph name="El-cy" format="2">
	<unicode hex="041B"/>
	<advance width="661"/>
	<outline>
		<contour>
			<point x="505" y="712" type="line"/>
			<point x="476" y="23" type="line"/>
			<point x="391" y="10" type="line"/>
			<point x="390" y="0" type="line"/>
			<point x="609" y="0" type="line"/>
			<point x="610" y="10" type="line"/>
			<point x="525" y="22" type="line"/>
			<point x="554" y="707" type="line"/>
			<point x="639" y="720" type="line"/>
			<point x="639" y="730" type="line"/>
			<point x="168" y="730" type="line"/>
			<point x="167" y="718" type="line"/>
			<point x="257" y="707" type="line"/>
			<point x="240" y="400"/>
			<point x="194" y="148"/>
			<point x="113" y="37" type="curve"/>
			<point x="71" y="91" type="line"/>
			<point x="44" y="78"/>
			<point x="27" y="59"/>
			<point x="27" y="35" type="curve" smooth="yes"/>
			<point x="27" y="6"/>
			<point x="48" y="-10"/>
			<point x="71" y="-10" type="curve" smooth="yes"/>
			<point x="176" y="-10"/>
			<point x="258" y="315"/>
			<point x="279" y="712" type="curve"/>
		</contour>
	</outline>
</glyph>
<glyph name="Pe-cy" format="2">
	<unicode hex="041F"/>
	<advance width="709"/>
	<outline>
		<contour>
			<point x="51" y="0" type="line"/>
			<point x="270" y="0" type="line"/>
			<point x="271" y="10" type="line"/>
			<point x="186" y="22" type="line"/>
			<point x="214" y="712" type="line"/>
			<point x="557" y="712" type="line"/>
			<point x="528" y="23" type="line"/>
			<point x="443" y="10" type="line"/>
			<point x="442" y="0" type="line"/>
			<point x="661" y="0" type="line"/>
			<point x="662" y="10" type="line"/>
			<point x="577" y="22" type="line"/>
			<point x="606" y="707" type="line"/>
			<point x="691" y="720" type="line"/>
			<point x="691" y="730" type="line"/>
			<point x="80" y="730" type="line"/>
			<point x="79" y="718" type="line"/>
			<point x="164" y="707" type="line"/>
			<point x="137" y="23" type="line"/>
			<point x="52" y="10" type="line"/>
		</contour>
	</outline>
</glyph>
<glyph name="U-cy" format="2">
	<unicode hex="0423"/>
	<advance width="605"/>
	<outline>
		<contour>
			<point x="336" y="194" type="line"/>
			<point x="146" y="709" type="line"/>
			<point x="231" y="720" type="line"/>
			<point x="232" y="730" type="line"/>
			<point x="17" y="730" type="line"/>
			<point x="16" y="720" type="line"/>
			<point x="96" y="709" type="line"/>
			<point x="311" y="140" type="line"/>
			<point x="280" y="74"/>
			<point x="242" y="21"/>
			<point x="204" y="21" type="curve" smooth="yes"/>
			<point x="195" y="21"/>
			<point x="188" y="21"/>
			<point x="181" y="23" type="curve"/>
			<point x="155" y="101" type="line"/>
			<point x="113" y="101"/>
			<point x="90" y="81"/>
			<point x="90" y="50" type="curve" smooth="yes"/>
			<point x="90" y="8"/>
			<point x="122" y="-10"/>
			<point x="169" y="-10" type="curve" smooth="yes"/>
			<point x="239" y="-10"/>
			<point x="286" y="43"/>
			<point x="337" y="151" type="curve" smooth="yes"/>
			<point x="425" y="336"/>
			<point x="502" y="523"/>
			<point x="578" y="709" type="curve"/>
			<point x="651" y="720" type="line"/>
			<point x="652" y="730" type="line"/>
			<point x="474" y="730" type="line"/>
			<point x="473" y="720" type="line"/>
			<point x="559" y="709" type="line"/>
			<point x="489" y="537"/>
			<point x="417" y="366"/>
			<point x="338" y="194" type="curve"/>
		</contour>
	</outline>
	<anchor name="top" x="362" y="730"/>
</glyph>
<glyph name="Che-cy" format="2">
	<unicode hex="0427"/>
	<advance width="677"/>
	<outline>
		<contour>
			<point x="511" y="380" type="curve"/>
			<point x="496" y="23" type="line"/>
			<point x="411" y="10" type="line"/>
			<point x="410" y="0" type="line"/>
			<point x="629" y="0" type="line"/>
			<point x="630" y="10" type="line"/>
			<point x="545" y="22" type="line"/>
			<point x="574" y="707" type="line"/>
			<point x="659" y="720" type="line"/>
			<point x="659" y="730" type="line"/>
			<point x="441" y="730" type="line"/>
			<point x="440" y="720" type="line"/>
			<point x="525" y="707" type="line"/>
			<point x="512" y="400" type="line"/>
			<point x="448" y="345"/>
			<point x="376" y="314"/>
			<point x="306" y="314" type="curve" smooth="yes"/>
			<point x="222" y="314"/>
			<point x="169" y="351"/>
			<point x="169" y="444" type="curve" smooth="yes"/>
			<point x="169" y="529"/>
			<point x="173" y="616"/>
			<point x="180" y="707" type="curve"/>
			<point x="265" y="719" type="line"/>
			<point x="265" y="730" type="line"/>
			<point x="47" y="730" type="line"/>
			<point x="46" y="718" type="line"/>
			<point x="131" y="707" type="line"/>
			<point x="126" y="626"/>
			<point x="121" y="544"/>
			<point x="121" y="465" type="curve" smooth="yes"/>
			<point x="121" y="344"/>
			<point x="194" y="294"/>
			<point x="299" y="294" type="curve" smooth="yes"/>
			<point x="378" y="294"/>
			<point x="456" y="331"/>
		</contour>
	</outline>
</glyph>
<glyph name="Sha-cy" format="2">
	<unicode hex="0428"/>
	<advance width="1037"/>
	<outline>
		<contour>
			<point x="51" y="0" type="line"/>
			<point x="989" y="0" type="line"/>
			<point x="990" y="10" type="line"/>
			<point x="905" y="22" type="line"/>
			<point x="934" y="707" type="line"/>
			<point x="1019" y="720" type="line"/>
			<point x="1019" y="730" type="line"/>
			<point x="801" y="730" type="line"/>
			<point x="800" y="720" type="line"/>
			<point x="885" y="707" type="line"/>
			<point x="857" y="18" type="line"/>
			<point x="546" y="18" type="line"/>
			<point x="574" y="707" type="line"/>
			<point x="659" y="720" type="line"/>
			<point x="659" y="730" type="line"/>
			<point x="441" y="730" type="line"/>
			<point x="440" y="720" type="line"/>
			<point x="525" y="707" type="line"/>
			<point x="497" y="18" type="line"/>
			<point x="186" y="18" type="line"/>
			<point x="213" y="707" type="line"/>
			<point x="298" y="719" type="line"/>
			<point x="298" y="730" type="line"/>
			<point x="80" y="730" type="line"/>
			<point x="79" y="718" type="line"/>
			<point x="164" y="707" type="line"/>
			<point x="137" y="23" type="line"/>
			<point x="52" y="10" type="line"/>
		</contour>
	</outline>
</glyph>
<glyph name="Hardsign-cy" format="2">
	<unicode hex="042A"/>
	<advance width="672"/>
	<outline>
		<contour>
			<point x="272" y="712" type="line"/>
			<point x="244" y="23" type="line"/>
			<point x="159" y="10" type="line"/>
			<point x="158" y="0" type="line"/>
			<point x="375" y="0" type="line" smooth="yes"/>
			<point x="541" y="0"/>
			<point x="646" y="86"/>
			<point x="646" y="224" type="curve" smooth="yes"/>
			<point x="646" y="359"/>
			<point x="539" y="405"/>
			<point x="425" y="405" type="curve" smooth="yes"/>
			<point x="395" y="405"/>
			<point x="362" y="401"/>
			<point x="337" y="396" type="curve"/>
			<point x="335" y="378" type="line"/>
			<point x="365" y="384"/>
			<point x="393" y="387"/>
			<point x="427" y="387" type="curve" smooth="yes"/>
			<point x="518" y="387"/>
			<point x="595" y="344"/>
			<point x="595" y="226" type="curve" smooth="yes"/>
			<point x="595" y="71"/>
			<point x="501" y="18"/>
			<point x="363" y="18" type="curve" smooth="yes"/>
			<point x="292" y="18" type="line"/>
			<point x="320" y="707" type="line"/>
			<point x="405" y="719" type="line"/>
			<point x="405" y="730" type="line"/>
			<point x="76" y="730" type="line"/>
			<point x="53" y="566" type="line"/>
			<point x="65" y="564" type="line"/>
			<point x="82" y="621" type="line" smooth="yes"/>
			<point x="105" y="699"/>
			<point x="126" y="712"/>
			<point x="188" y="712" type="curve" smooth="yes"/>
		</contour>
	</outline>
	<anchor name="top" x="247" y="730"/>
</glyph>
<glyph name="Softsign-cy" format="2">
	<unicode hex="042C"/>
	<advance width="565"/>
	<outline>
		<contour>
			<point x="164" y="707" type="line"/>
			<point x="137" y="23" type="line"/>
			<point x="52" y="10" type="line"/>
			<point x="51" y="0" type="line"/>
			<point x="268" y="0" type="line" smooth="yes"/>
			<point x="434" y="0"/>
			<point x="539" y="86"/>
			<point x="539" y="224" type="curve" smooth="yes"/>
			<point x="539" y="359"/>
			<point x="432" y="405"/>
			<point x="318" y="405" type="curve" smooth="yes"/>
			<point x="288" y="405"/>
			<point x="255" y="401"/>
			<point x="230" y="396" type="curve"/>
			<point x="228" y="378" type="line"/>
			<point x="258" y="384"/>
			<point x="286" y="387"/>
			<point x="320" y="387" type="curve" smooth="yes"/>
			<point x="411" y="387"/>
			<point x="488" y="344"/>
			<point x="488" y="226" type="curve" smooth="yes"/>
			<point x="488" y="71"/>
			<point x="394" y="18"/>
			<point x="256" y="18" type="curve" smooth="yes"/>
			<point x="185" y="18" type="line"/>
			<point x="213" y="707" type="line"/>
			<point x="298" y="719" type="line"/>
			<point x="298" y="730" type="line"/>
			<point x="80" y="730" type="line"/>
			<point x="79" y="718" type="line"/>
		</contour>
	</outline>
</glyph>
<glyph name="Iu-cy" format="2">
	<unicode hex="042E"/>
	<advance width="978"/>
	<outline>
		<contour>
			<point x="201" y="366" type="line"/>
			<point x="384" y="366" type="line"/>
			<point x="384" y="119"/>
			<point x="483" y="-14"/>
			<point x="652" y="-14" type="curve" smooth="yes"/>
			<point x="830" y="-14"/>
			<point x="934" y="144"/>
			<point x="934" y="395" type="curve" smooth="yes"/>
			<point x="934" y="614"/>
			<point x="830" y="745"/>
			<point x="674" y="745" type="curve" smooth="yes"/>
			<point x="500" y="745"/>
			<point x="396" y="609"/>
			<point x="385" y="384" type="curve"/>
			<point x="201" y="384" type="line"/>
			<point x="213" y="707" type="line"/>
			<point x="298" y="719" type="line"/>
			<point x="298" y="730" type="line"/>
			<point x="80" y="730" type="line"/>
			<point x="79" y="718" type="line"/>
			<point x="164" y="707" type="line"/>
			<point x="137" y="23" type="line"/>
			<point x="52" y="10" type="line"/>
			<point x="51" y="0" type="line"/>
			<point x="270" y="0" type="line"/>
			<point x="271" y="10" type="line"/>
			<point x="186" y="22" type="line"/>
		</contour>
		<contour>
			<point x="435" y="361" type="curve" smooth="yes"/>
			<point x="435" y="614"/>
			<point x="539" y="726"/>
			<point x="672" y="726" type="curve" smooth="yes"/>
			<point x="800" y="726"/>
			<point x="883" y="619"/>
			<point x="883" y="388" type="curve" smooth="yes"/>
			<point x="883" y="126"/>
			<point x="788" y="5"/>
			<point x="658" y="5" type="curve" smooth="yes"/>
			<point x="520" y="5"/>
			<point x="435" y="119"/>
		</contour>
	</outline>
	<anchor name="top" x="674" y="730"/>
</glyph>
<glyph name="be-cy" format="2">
	<unicode hex="0431"/>
	<advance width="476"/>
	<outline>
		<contour>
			<point x="224" y="-15" type="curve" smooth="yes"/>
			<point x="328" y="-15"/>
			<point x="434" y="94"/>
			<point x="434" y="321" type="curve" smooth="yes"/>
			<point x="434" y="429"/>
			<point x="388" y="522"/>
			<point x="291" y="522" type="curve" smooth="yes"/>
			<point x="175" y="522"/>
			<point x="124" y="412"/>
			<point x="100" y="292" type="curve" smooth="yes"/>
			<point x="94" y="262" type="line"/>
			<point x="90" y="261" type="line"/>
			<point x="90" y="348"/>
			<point x="103" y="539"/>
			<point x="165" y="600" type="curve" smooth="yes"/>
			<point x="197" y="632"/>
			<point x="239" y="645"/>
			<point x="363" y="657" type="curve" smooth="yes"/>
			<point x="415" y="662"/>
			<point x="446" y="691"/>
			<point x="456" y="769" type="curve"/>
			<point x="441" y="773" type="line"/>
			<point x="432" y="716"/>
			<point x="413" y="709"/>
			<point x="379" y="704" type="curve" smooth="yes"/>
			<point x="243" y="684"/>
			<point x="209" y="670"/>
			<point x="166" y="634" type="curve" smooth="yes"/>
			<point x="97" y="576"/>
			<point x="45" y="397"/>
			<point x="45" y="235" type="curve" smooth="yes"/>
			<point x="45" y="96"/>
			<point x="91" y="-15"/>
		</contour>
		<contour>
			<point x="275" y="485" type="curve" smooth="yes"/>
			<point x="343" y="485"/>
			<point x="384" y="426"/>
			<point x="384" y="303" type="curve" smooth="yes"/>
			<point x="384" y="93"/>
			<point x="315" y="4"/>
			<point x="226" y="4" type="curve" smooth="yes"/>
			<point x="141" y="4"/>
			<point x="100" y="77"/>
			<point x="100" y="182" type="curve"/>
			<point x="116" y="359"/>
			<point x="185" y="485"/>
		</contour>
	</outline>
	<guideline x="641" y="4" angle="0"/>
	<guideline x="715" y="485" angle="0"/>
</glyph>
<glyph name="ge-cy" format="2">
	<unicode hex="0433"/>
	<advance width="394"/>
	<outline>
		<contour>
			<point x="59" y="428" type="curve"/>
			<point x="69" y="420" type="line"/>
			<point x="115" y="477"/>
			<point x="164" y="498"/>
			<point x="214" y="498" type="curve" smooth="yes"/>
			<point x="258" y="498"/>
			<point x="287" y="477"/>
			<point x="287" y="430" type="curve" smooth="yes"/>
			<point x="287" y="368"/>
			<point x="247" y="320"/>
			<point x="172" y="264" type="curve" smooth="yes"/>
			<point x="76" y="193"/>
			<point x="39" y="153"/>
			<point x="39" y="91" type="curve" smooth="yes"/>
			<point x="39" y="29"/>
			<point x="85" y="-14"/>
			<point x="163" y="-14" type="curve" smooth="yes"/>
			<point x="241" y="-14"/>
			<point x="292" y="30"/>
			<point x="330" y="79" type="curve"/>
			<point x="320" y="87" type="line"/>
			<point x="276" y="37"/>
			<point x="228" y="15"/>
			<point x="178" y="15" type="curve" smooth="yes"/>
			<point x="126" y="15"/>
			<point x="94" y="43"/>
			<point x="94" y="95" type="curve" smooth="yes"/>
			<point x="94" y="159"/>
			<point x="143" y="206"/>
			<point x="204" y="253" type="curve" smooth="yes"/>
			<point x="274" y="307"/>
			<point x="339" y="358"/>
			<point x="339" y="436" type="curve" smooth="yes"/>
			<point x="339" y="480"/>
			<point x="304" y="523"/>
			<point x="232" y="523" type="curve" smooth="yes"/>
			<point x="152" y="523"/>
			<point x="97" y="482"/>
		</contour>
	</outline>
	<anchor name="top" x="217" y="550"/>
</glyph>
<glyph name="zhe-cy" format="2">
	<unicode hex="0436"/>
	<advance width="736"/>
	<outline>
		<contour>
			<point x="372" y="123" type="line"/>
			<point x="403" y="509" type="line"/>
			<point x="355" y="509" type="line"/>
			<point x="344" y="366" type="line"/>
			<point x="250" y="282" type="line"/>
			<point x="243" y="301"/>
			<point x="233" y="325"/>
			<point x="224" y="346" type="curve" smooth="yes"/>
			<point x="164" y="488"/>
			<point x="138" y="522"/>
			<point x="92" y="522" type="curve" smooth="yes"/>
			<point x="58" y="522"/>
			<point x="39" y="499"/>
			<point x="22" y="461" type="curve"/>
			<point x="31" y="454" type="line"/>
			<point x="49" y="486"/>
			<point x="60" y="496"/>
			<point x="76" y="496" type="curve" smooth="yes"/>
			<point x="104" y="496"/>
			<point x="127" y="457"/>
			<point x="189" y="313" type="curve" smooth="yes"/>
			<point x="200" y="287"/>
			<point x="208" y="268"/>
			<point x="215" y="250" type="curve"/>
			<point x="124" y="171"/>
			<point x="50" y="106"/>
			<point x="50" y="43" type="curve" smooth="yes"/>
			<point x="50" y="11"/>
			<point x="68" y="-14"/>
			<point x="98" y="-14" type="curve" smooth="yes"/>
			<point x="117" y="-14"/>
			<point x="136" y="3"/>
			<point x="145" y="27" type="curve"/>
			<point x="118" y="45" type="line" smooth="yes"/>
			<point x="104" y="54"/>
			<point x="97" y="67"/>
			<point x="97" y="81" type="curve" smooth="yes"/>
			<point x="97" y="120"/>
			<point x="138" y="158"/>
			<point x="342" y="340" type="curve"/>
			<point x="321" y="0" type="line"/>
			<point x="366" y="0" type="line"/>
			<point x="371" y="65" type="line"/>
			<point x="394" y="119"/>
			<point x="434" y="210"/>
			<point x="461" y="259" type="curve"/>
			<point x="471" y="247"/>
			<point x="479" y="233"/>
			<point x="513" y="158" type="curve" smooth="yes"/>
			<point x="576" y="18"/>
			<point x="605" y="-14"/>
			<point x="651" y="-14" type="curve" smooth="yes"/>
			<point x="685" y="-14"/>
			<point x="713" y="11"/>
			<point x="729" y="50" type="curve"/>
			<point x="720" y="57" type="line"/>
			<point x="703" y="24"/>
			<point x="688" y="13"/>
			<point x="672" y="13" type="curve" smooth="yes"/>
			<point x="645" y="13"/>
			<point x="614" y="50"/>
			<point x="548" y="192" type="curve" smooth="yes"/>
			<point x="514" y="265"/>
			<point x="498" y="290"/>
			<point x="484" y="308" type="curve"/>
			<point x="500" y="343"/>
			<point x="519" y="377"/>
			<point x="532" y="399" type="curve" smooth="yes"/>
			<point x="563" y="451"/>
			<point x="602" y="495"/>
			<point x="640" y="457" type="curve" smooth="yes"/>
			<point x="665" y="433" type="line"/>
			<point x="682" y="447"/>
			<point x="692" y="464"/>
			<point x="692" y="479" type="curve" smooth="yes"/>
			<point x="692" y="500"/>
			<point x="678" y="521"/>
			<point x="640" y="521" type="curve" smooth="yes"/>
			<point x="581" y="521"/>
			<point x="531" y="442"/>
			<point x="492" y="367" type="curve" smooth="yes"/>
			<point x="440" y="267"/>
			<point x="393" y="162"/>
			<point x="376" y="122" type="curve"/>
		</contour>
	</outline>
</glyph>
<glyph name="ka-cy" format="2">
	<unicode hex="043A"/>
	<advance width="514"/>
	<outline>
		<contour>
			<point x="150" y="96" type="line"/>
			<point x="176" y="442" type="line" smooth="yes"/>
			<point x="180" y="498"/>
			<point x="166" y="523"/>
			<point x="122" y="523" type="curve" smooth="yes"/>
			<point x="86" y="523"/>
			<point x="55" y="508"/>
			<point x="28" y="491" type="curve"/>
			<point x="33" y="481" type="line"/>
			<point x="62" y="496"/>
			<point x="83" y="501"/>
			<point x="99" y="501" type="curve" smooth="yes"/>
			<point x="119" y="501"/>
			<point x="129" y="490"/>
			<point x="127" y="458" type="curve" smooth="yes"/>
			<point x="99" y="0" type="line"/>
			<point x="144" y="0" type="line"/>
			<point x="183" y="125"/>
			<point x="203" y="174"/>
			<point x="239" y="259" type="curve"/>
			<point x="249" y="247"/>
			<point x="259" y="233"/>
			<point x="291" y="158" type="curve" smooth="yes"/>
			<point x="351" y="18"/>
			<point x="383" y="-14"/>
			<point x="429" y="-14" type="curve" smooth="yes"/>
			<point x="463" y="-14"/>
			<point x="491" y="11"/>
			<point x="507" y="50" type="curve"/>
			<point x="498" y="57" type="line"/>
			<point x="481" y="24"/>
			<point x="466" y="13"/>
			<point x="450" y="13" type="curve" smooth="yes"/>
			<point x="423" y="13"/>
			<point x="390" y="50"/>
			<point x="326" y="192" type="curve" smooth="yes"/>
			<point x="293" y="265"/>
			<point x="276" y="290"/>
			<point x="262" y="308" type="curve"/>
			<point x="278" y="343"/>
			<point x="297" y="377"/>
			<point x="310" y="399" type="curve" smooth="yes"/>
			<point x="338" y="446"/>
			<point x="363" y="470"/>
			<point x="387" y="471" type="curve" smooth="yes"/>
			<point x="398" y="471"/>
			<point x="408" y="467"/>
			<point x="418" y="457" type="curve" smooth="yes"/>
			<point x="443" y="433" type="line"/>
			<point x="460" y="447"/>
			<point x="470" y="464"/>
			<point x="470" y="479" type="curve" smooth="yes"/>
			<point x="470" y="500"/>
			<point x="456" y="521"/>
			<point x="418" y="521" type="curve" smooth="yes"/>
			<point x="359" y="521"/>
			<point x="308" y="444"/>
			<point x="269" y="369" type="curve" smooth="yes"/>
			<point x="217" y="269"/>
			<point x="182" y="173"/>
			<point x="154" y="95" type="curve"/>
		</contour>
	</outline>
	<anchor name="top" x="285" y="550"/>
</glyph>
